G04 (created by PCBNEW (2013-07-07 BZR 4022)-stable) date 2020-03-17 3:52:32 PM*
%MOIN*%
G04 Gerber Fmt 3.4, Leading zero omitted, Abs format*
%FSLAX34Y34*%
G01*
G70*
G90*
G04 APERTURE LIST*
%ADD10C,0.00590551*%
%ADD11C,0.011811*%
%ADD12C,0.00787402*%
%ADD13C,0.0787402*%
%ADD14C,0.0031*%
%ADD15C,0.0039*%
%ADD16C,0.0047*%
%ADD17C,0.0043*%
G04 APERTURE END LIST*
G54D10*
G54D11*
X66055Y-50565D02*
X66055Y-49974D01*
X65830Y-49974D01*
X65774Y-50002D01*
X65746Y-50030D01*
X65718Y-50086D01*
X65718Y-50171D01*
X65746Y-50227D01*
X65774Y-50255D01*
X65830Y-50283D01*
X66055Y-50283D01*
X65465Y-50565D02*
X65465Y-49974D01*
X67897Y-48821D02*
X67616Y-48821D01*
X67954Y-48990D02*
X67757Y-48399D01*
X67560Y-48990D01*
X67026Y-48990D02*
X67222Y-48708D01*
X67363Y-48990D02*
X67363Y-48399D01*
X67138Y-48399D01*
X67082Y-48427D01*
X67054Y-48455D01*
X67026Y-48512D01*
X67026Y-48596D01*
X67054Y-48652D01*
X67082Y-48680D01*
X67138Y-48708D01*
X67363Y-48708D01*
X66773Y-48990D02*
X66773Y-48399D01*
X66632Y-48399D01*
X66548Y-48427D01*
X66491Y-48484D01*
X66463Y-48540D01*
X66435Y-48652D01*
X66435Y-48737D01*
X66463Y-48849D01*
X66491Y-48905D01*
X66548Y-48962D01*
X66632Y-48990D01*
X66773Y-48990D01*
X66182Y-48990D02*
X66182Y-48399D01*
X65844Y-48990D01*
X65844Y-48399D01*
X65451Y-48399D02*
X65338Y-48399D01*
X65282Y-48427D01*
X65226Y-48484D01*
X65198Y-48596D01*
X65198Y-48793D01*
X65226Y-48905D01*
X65282Y-48962D01*
X65338Y-48990D01*
X65451Y-48990D01*
X65507Y-48962D01*
X65563Y-48905D01*
X65591Y-48793D01*
X65591Y-48596D01*
X65563Y-48484D01*
X65507Y-48427D01*
X65451Y-48399D01*
G54D12*
X62884Y-50629D02*
X62884Y-49842D01*
X64853Y-50629D02*
X62884Y-50629D01*
X64853Y-49842D02*
X64853Y-50629D01*
X62884Y-49842D02*
X64853Y-49842D01*
G54D13*
X63308Y-48731D02*
X64489Y-48731D01*
G54D11*
X70600Y-27072D02*
X70600Y-26875D01*
X70290Y-26790D02*
X70290Y-27072D01*
X70881Y-27072D01*
X70881Y-26790D01*
X70515Y-26537D02*
X70515Y-26087D01*
X70290Y-26312D02*
X70740Y-26312D01*
X69655Y-27072D02*
X69655Y-26875D01*
X69346Y-26790D02*
X69346Y-27072D01*
X69936Y-27072D01*
X69936Y-26790D01*
X69571Y-26537D02*
X69571Y-26087D01*
X68569Y-27086D02*
X68569Y-26804D01*
X68401Y-27142D02*
X68991Y-26945D01*
X68401Y-26748D01*
X68626Y-26551D02*
X68626Y-26101D01*
X67625Y-27086D02*
X67625Y-26804D01*
X67456Y-27142D02*
X68046Y-26945D01*
X67456Y-26748D01*
X67681Y-26551D02*
X67681Y-26101D01*
X67456Y-26326D02*
X67906Y-26326D01*
X66820Y-26903D02*
X66792Y-26819D01*
X66764Y-26790D01*
X66708Y-26762D01*
X66623Y-26762D01*
X66567Y-26790D01*
X66539Y-26819D01*
X66511Y-26875D01*
X66511Y-27100D01*
X67101Y-27100D01*
X67101Y-26903D01*
X67073Y-26847D01*
X67045Y-26819D01*
X66989Y-26790D01*
X66933Y-26790D01*
X66877Y-26819D01*
X66848Y-26847D01*
X66820Y-26903D01*
X66820Y-27100D01*
X66736Y-26509D02*
X66736Y-26059D01*
X65875Y-26903D02*
X65847Y-26819D01*
X65819Y-26790D01*
X65763Y-26762D01*
X65679Y-26762D01*
X65622Y-26790D01*
X65594Y-26819D01*
X65566Y-26875D01*
X65566Y-27100D01*
X66157Y-27100D01*
X66157Y-26903D01*
X66128Y-26847D01*
X66100Y-26819D01*
X66044Y-26790D01*
X65988Y-26790D01*
X65932Y-26819D01*
X65904Y-26847D01*
X65875Y-26903D01*
X65875Y-27100D01*
X65791Y-26509D02*
X65791Y-26059D01*
X65566Y-26284D02*
X66016Y-26284D01*
X64902Y-27789D02*
X64621Y-27789D01*
X65212Y-27986D02*
X64902Y-27789D01*
X65212Y-27592D01*
X65240Y-26973D02*
X64481Y-27479D01*
X65184Y-26467D02*
X65212Y-26523D01*
X65212Y-26608D01*
X65184Y-26692D01*
X65127Y-26748D01*
X65071Y-26776D01*
X64959Y-26804D01*
X64874Y-26804D01*
X64762Y-26776D01*
X64706Y-26748D01*
X64649Y-26692D01*
X64621Y-26608D01*
X64621Y-26551D01*
X64649Y-26467D01*
X64677Y-26439D01*
X64874Y-26439D01*
X64874Y-26551D01*
X64621Y-26186D02*
X65212Y-26186D01*
X64621Y-25848D01*
X65212Y-25848D01*
X64621Y-25567D02*
X65212Y-25567D01*
X65212Y-25427D01*
X65184Y-25342D01*
X65127Y-25286D01*
X65071Y-25258D01*
X64959Y-25230D01*
X64874Y-25230D01*
X64762Y-25258D01*
X64706Y-25286D01*
X64649Y-25342D01*
X64621Y-25427D01*
X64621Y-25567D01*
X97351Y-31080D02*
X97351Y-30715D01*
X97126Y-30912D01*
X97126Y-30827D01*
X97098Y-30771D01*
X97070Y-30743D01*
X97014Y-30715D01*
X96873Y-30715D01*
X96817Y-30743D01*
X96789Y-30771D01*
X96760Y-30827D01*
X96760Y-30996D01*
X96789Y-31052D01*
X96817Y-31080D01*
X96535Y-30518D02*
X96564Y-30490D01*
X96648Y-30434D01*
X96704Y-30406D01*
X96789Y-30377D01*
X96929Y-30349D01*
X97042Y-30349D01*
X97182Y-30377D01*
X97267Y-30406D01*
X97323Y-30434D01*
X97407Y-30490D01*
X97435Y-30518D01*
X96817Y-29281D02*
X96789Y-29309D01*
X96760Y-29393D01*
X96760Y-29449D01*
X96789Y-29534D01*
X96845Y-29590D01*
X96901Y-29618D01*
X97014Y-29646D01*
X97098Y-29646D01*
X97210Y-29618D01*
X97267Y-29590D01*
X97323Y-29534D01*
X97351Y-29449D01*
X97351Y-29393D01*
X97323Y-29309D01*
X97295Y-29281D01*
X97379Y-28606D02*
X96620Y-29112D01*
X96760Y-28071D02*
X97042Y-28268D01*
X96760Y-28409D02*
X97351Y-28409D01*
X97351Y-28184D01*
X97323Y-28128D01*
X97295Y-28100D01*
X97239Y-28071D01*
X97154Y-28071D01*
X97098Y-28100D01*
X97070Y-28128D01*
X97042Y-28184D01*
X97042Y-28409D01*
X97070Y-27818D02*
X97070Y-27622D01*
X96760Y-27537D02*
X96760Y-27818D01*
X97351Y-27818D01*
X97351Y-27537D01*
X96760Y-27284D02*
X97351Y-27284D01*
X97351Y-27143D01*
X97323Y-27059D01*
X97267Y-27003D01*
X97210Y-26975D01*
X97098Y-26947D01*
X97014Y-26947D01*
X96901Y-26975D01*
X96845Y-27003D01*
X96789Y-27059D01*
X96760Y-27143D01*
X96760Y-27284D01*
X96350Y-31137D02*
X96378Y-31109D01*
X96406Y-31052D01*
X96406Y-30912D01*
X96378Y-30856D01*
X96350Y-30827D01*
X96294Y-30799D01*
X96237Y-30799D01*
X96153Y-30827D01*
X95816Y-31165D01*
X95816Y-30799D01*
X95591Y-30602D02*
X95619Y-30574D01*
X95703Y-30518D01*
X95759Y-30490D01*
X95844Y-30462D01*
X95984Y-30434D01*
X96097Y-30434D01*
X96237Y-30462D01*
X96322Y-30490D01*
X96378Y-30518D01*
X96462Y-30574D01*
X96491Y-30602D01*
X96041Y-29703D02*
X96041Y-29253D01*
X95816Y-29478D02*
X96266Y-29478D01*
X96434Y-28550D02*
X95675Y-29056D01*
X96406Y-28409D02*
X95816Y-28268D01*
X96237Y-28156D01*
X95816Y-28043D01*
X96406Y-27903D01*
X95816Y-27678D02*
X96406Y-27678D01*
X96125Y-27678D02*
X96125Y-27340D01*
X95816Y-27340D02*
X96406Y-27340D01*
X96406Y-27143D02*
X96406Y-26806D01*
X95816Y-26975D02*
X96406Y-26975D01*
X94871Y-30757D02*
X94871Y-31095D01*
X94871Y-30926D02*
X95461Y-30926D01*
X95377Y-30982D01*
X95321Y-31038D01*
X95293Y-31095D01*
X94646Y-30560D02*
X94674Y-30532D01*
X94758Y-30476D01*
X94814Y-30448D01*
X94899Y-30420D01*
X95039Y-30392D01*
X95152Y-30392D01*
X95293Y-30420D01*
X95377Y-30448D01*
X95433Y-30476D01*
X95517Y-30532D01*
X95546Y-30560D01*
X95096Y-29660D02*
X95096Y-29210D01*
X95489Y-28507D02*
X94730Y-29014D01*
X95180Y-28114D02*
X95152Y-28029D01*
X95124Y-28001D01*
X95068Y-27973D01*
X94983Y-27973D01*
X94927Y-28001D01*
X94899Y-28029D01*
X94871Y-28086D01*
X94871Y-28311D01*
X95461Y-28311D01*
X95461Y-28114D01*
X95433Y-28057D01*
X95405Y-28029D01*
X95349Y-28001D01*
X95293Y-28001D01*
X95236Y-28029D01*
X95208Y-28057D01*
X95180Y-28114D01*
X95180Y-28311D01*
X94871Y-27439D02*
X94871Y-27720D01*
X95461Y-27720D01*
X94871Y-27242D02*
X95461Y-27242D01*
X94871Y-26904D02*
X95208Y-27158D01*
X95461Y-26904D02*
X95124Y-27242D01*
X99556Y-26239D02*
X99837Y-26239D01*
X99837Y-25648D01*
X99078Y-26239D02*
X99359Y-26239D01*
X99359Y-25648D01*
X105612Y-26239D02*
X105893Y-26239D01*
X105893Y-25648D01*
X105078Y-26239D02*
X105275Y-25957D01*
X105415Y-26239D02*
X105415Y-25648D01*
X105190Y-25648D01*
X105134Y-25676D01*
X105106Y-25704D01*
X105078Y-25760D01*
X105078Y-25845D01*
X105106Y-25901D01*
X105134Y-25929D01*
X105190Y-25957D01*
X105415Y-25957D01*
X93964Y-25648D02*
X93964Y-26126D01*
X93935Y-26182D01*
X93907Y-26210D01*
X93851Y-26239D01*
X93739Y-26239D01*
X93682Y-26210D01*
X93654Y-26182D01*
X93626Y-26126D01*
X93626Y-25648D01*
X93007Y-26239D02*
X93204Y-25957D01*
X93345Y-26239D02*
X93345Y-25648D01*
X93120Y-25648D01*
X93064Y-25676D01*
X93035Y-25704D01*
X93007Y-25760D01*
X93007Y-25845D01*
X93035Y-25901D01*
X93064Y-25929D01*
X93120Y-25957D01*
X93345Y-25957D01*
X88407Y-25648D02*
X88407Y-26126D01*
X88379Y-26182D01*
X88351Y-26210D01*
X88295Y-26239D01*
X88182Y-26239D01*
X88126Y-26210D01*
X88098Y-26182D01*
X88070Y-26126D01*
X88070Y-25648D01*
X87507Y-26239D02*
X87789Y-26239D01*
X87789Y-25648D01*
X82656Y-24705D02*
X82543Y-24743D01*
X82505Y-24781D01*
X82468Y-24856D01*
X82468Y-24969D01*
X82505Y-25044D01*
X82543Y-25082D01*
X82618Y-25119D01*
X82919Y-25119D01*
X82919Y-24329D01*
X82656Y-24329D01*
X82580Y-24367D01*
X82543Y-24404D01*
X82505Y-24480D01*
X82505Y-24555D01*
X82543Y-24630D01*
X82580Y-24668D01*
X82656Y-24705D01*
X82919Y-24705D01*
X82204Y-24592D02*
X82016Y-25119D01*
X81828Y-24592D02*
X82016Y-25119D01*
X82091Y-25308D01*
X82129Y-25345D01*
X82204Y-25383D01*
X80510Y-24367D02*
X80585Y-24329D01*
X80698Y-24329D01*
X80811Y-24367D01*
X80886Y-24442D01*
X80924Y-24517D01*
X80962Y-24668D01*
X80962Y-24781D01*
X80924Y-24931D01*
X80886Y-25007D01*
X80811Y-25082D01*
X80698Y-25119D01*
X80623Y-25119D01*
X80510Y-25082D01*
X80472Y-25044D01*
X80472Y-24781D01*
X80623Y-24781D01*
X79795Y-25119D02*
X79795Y-24705D01*
X79832Y-24630D01*
X79908Y-24592D01*
X80058Y-24592D01*
X80134Y-24630D01*
X79795Y-25082D02*
X79870Y-25119D01*
X80058Y-25119D01*
X80134Y-25082D01*
X80171Y-25007D01*
X80171Y-24931D01*
X80134Y-24856D01*
X80058Y-24818D01*
X79870Y-24818D01*
X79795Y-24781D01*
X79418Y-25119D02*
X79418Y-24329D01*
X79418Y-24630D02*
X79343Y-24592D01*
X79192Y-24592D01*
X79117Y-24630D01*
X79079Y-24668D01*
X79042Y-24743D01*
X79042Y-24969D01*
X79079Y-25044D01*
X79117Y-25082D01*
X79192Y-25119D01*
X79343Y-25119D01*
X79418Y-25082D01*
X78703Y-25119D02*
X78703Y-24592D01*
X78703Y-24743D02*
X78665Y-24668D01*
X78628Y-24630D01*
X78552Y-24592D01*
X78477Y-24592D01*
X78214Y-25119D02*
X78214Y-24592D01*
X78214Y-24329D02*
X78251Y-24367D01*
X78214Y-24404D01*
X78176Y-24367D01*
X78214Y-24329D01*
X78214Y-24404D01*
X77536Y-25082D02*
X77611Y-25119D01*
X77762Y-25119D01*
X77837Y-25082D01*
X77875Y-25007D01*
X77875Y-24705D01*
X77837Y-24630D01*
X77762Y-24592D01*
X77611Y-24592D01*
X77536Y-24630D01*
X77498Y-24705D01*
X77498Y-24781D01*
X77875Y-24856D01*
X77047Y-25119D02*
X77122Y-25082D01*
X77160Y-25007D01*
X77160Y-24329D01*
X76256Y-24329D02*
X75804Y-24329D01*
X76030Y-25119D02*
X76030Y-24329D01*
X75240Y-25082D02*
X75315Y-25119D01*
X75465Y-25119D01*
X75541Y-25082D01*
X75578Y-25007D01*
X75578Y-24705D01*
X75541Y-24630D01*
X75465Y-24592D01*
X75315Y-24592D01*
X75240Y-24630D01*
X75202Y-24705D01*
X75202Y-24781D01*
X75578Y-24856D01*
X74562Y-25082D02*
X74637Y-25119D01*
X74788Y-25119D01*
X74863Y-25082D01*
X74901Y-25007D01*
X74901Y-24705D01*
X74863Y-24630D01*
X74788Y-24592D01*
X74637Y-24592D01*
X74562Y-24630D01*
X74524Y-24705D01*
X74524Y-24781D01*
X74901Y-24856D01*
X73847Y-24592D02*
X73847Y-25232D01*
X73884Y-25308D01*
X73922Y-25345D01*
X73997Y-25383D01*
X74110Y-25383D01*
X74186Y-25345D01*
X73847Y-25082D02*
X73922Y-25119D01*
X74073Y-25119D01*
X74148Y-25082D01*
X74186Y-25044D01*
X74223Y-24969D01*
X74223Y-24743D01*
X74186Y-24668D01*
X74148Y-24630D01*
X74073Y-24592D01*
X73922Y-24592D01*
X73847Y-24630D01*
X73169Y-25082D02*
X73244Y-25119D01*
X73395Y-25119D01*
X73470Y-25082D01*
X73508Y-25007D01*
X73508Y-24705D01*
X73470Y-24630D01*
X73395Y-24592D01*
X73244Y-24592D01*
X73169Y-24630D01*
X73131Y-24705D01*
X73131Y-24781D01*
X73508Y-24856D01*
X72793Y-25119D02*
X72793Y-24592D01*
X72793Y-24743D02*
X72755Y-24668D01*
X72717Y-24630D01*
X72642Y-24592D01*
X72567Y-24592D01*
G54D14*
X76225Y-26438D02*
G75*
G03X76225Y-26438I-62J0D01*
G74*
G01*
X75200Y-26100D02*
X75200Y-26500D01*
X76225Y-26100D02*
X76225Y-26500D01*
X75200Y-26500D02*
X76225Y-26500D01*
X76225Y-26100D02*
X75200Y-26100D01*
G54D15*
X101000Y-30900D02*
G75*
G03X101000Y-30900I-50J0D01*
G74*
G01*
X100950Y-30450D02*
X100950Y-30850D01*
X100950Y-30850D02*
X101550Y-30850D01*
X101550Y-30850D02*
X101550Y-30450D01*
X101550Y-30050D02*
X101550Y-29650D01*
X101550Y-29650D02*
X100950Y-29650D01*
X100950Y-29650D02*
X100950Y-30050D01*
X81950Y-33750D02*
G75*
G03X81950Y-33750I-50J0D01*
G74*
G01*
X81900Y-34200D02*
X81900Y-33800D01*
X81900Y-33800D02*
X81300Y-33800D01*
X81300Y-33800D02*
X81300Y-34200D01*
X81300Y-34600D02*
X81300Y-35000D01*
X81300Y-35000D02*
X81900Y-35000D01*
X81900Y-35000D02*
X81900Y-34600D01*
X68750Y-30900D02*
G75*
G03X68750Y-30900I-50J0D01*
G74*
G01*
X68700Y-30450D02*
X68700Y-30850D01*
X68700Y-30850D02*
X69300Y-30850D01*
X69300Y-30850D02*
X69300Y-30450D01*
X69300Y-30050D02*
X69300Y-29650D01*
X69300Y-29650D02*
X68700Y-29650D01*
X68700Y-29650D02*
X68700Y-30050D01*
X87950Y-44750D02*
G75*
G03X87950Y-44750I-50J0D01*
G74*
G01*
X87900Y-44300D02*
X87900Y-44700D01*
X87900Y-44700D02*
X88500Y-44700D01*
X88500Y-44700D02*
X88500Y-44300D01*
X88500Y-43900D02*
X88500Y-43500D01*
X88500Y-43500D02*
X87900Y-43500D01*
X87900Y-43500D02*
X87900Y-43900D01*
X65050Y-30900D02*
G75*
G03X65050Y-30900I-50J0D01*
G74*
G01*
X65000Y-30450D02*
X65000Y-30850D01*
X65000Y-30850D02*
X65600Y-30850D01*
X65600Y-30850D02*
X65600Y-30450D01*
X65600Y-30050D02*
X65600Y-29650D01*
X65600Y-29650D02*
X65000Y-29650D01*
X65000Y-29650D02*
X65000Y-30050D01*
X86750Y-44750D02*
G75*
G03X86750Y-44750I-50J0D01*
G74*
G01*
X86700Y-44300D02*
X86700Y-44700D01*
X86700Y-44700D02*
X87300Y-44700D01*
X87300Y-44700D02*
X87300Y-44300D01*
X87300Y-43900D02*
X87300Y-43500D01*
X87300Y-43500D02*
X86700Y-43500D01*
X86700Y-43500D02*
X86700Y-43900D01*
X84250Y-38650D02*
G75*
G03X84250Y-38650I-50J0D01*
G74*
G01*
X84200Y-38200D02*
X84200Y-38600D01*
X84200Y-38600D02*
X84800Y-38600D01*
X84800Y-38600D02*
X84800Y-38200D01*
X84800Y-37800D02*
X84800Y-37400D01*
X84800Y-37400D02*
X84200Y-37400D01*
X84200Y-37400D02*
X84200Y-37800D01*
X79700Y-33800D02*
G75*
G03X79700Y-33800I-50J0D01*
G74*
G01*
X79650Y-34250D02*
X79650Y-33850D01*
X79650Y-33850D02*
X79050Y-33850D01*
X79050Y-33850D02*
X79050Y-34250D01*
X79050Y-34650D02*
X79050Y-35050D01*
X79050Y-35050D02*
X79650Y-35050D01*
X79650Y-35050D02*
X79650Y-34650D01*
X80700Y-30800D02*
G75*
G03X80700Y-30800I-50J0D01*
G74*
G01*
X81100Y-30800D02*
X80700Y-30800D01*
X80700Y-30800D02*
X80700Y-31400D01*
X80700Y-31400D02*
X81100Y-31400D01*
X81500Y-31400D02*
X81900Y-31400D01*
X81900Y-31400D02*
X81900Y-30800D01*
X81900Y-30800D02*
X81500Y-30800D01*
X101850Y-34350D02*
G75*
G03X101850Y-34350I-50J0D01*
G74*
G01*
X101800Y-34800D02*
X101800Y-34400D01*
X101800Y-34400D02*
X101200Y-34400D01*
X101200Y-34400D02*
X101200Y-34800D01*
X101200Y-35200D02*
X101200Y-35600D01*
X101200Y-35600D02*
X101800Y-35600D01*
X101800Y-35600D02*
X101800Y-35200D01*
X69450Y-36650D02*
G75*
G03X69450Y-36650I-50J0D01*
G74*
G01*
X69400Y-36200D02*
X69400Y-36600D01*
X69400Y-36600D02*
X70000Y-36600D01*
X70000Y-36600D02*
X70000Y-36200D01*
X70000Y-35800D02*
X70000Y-35400D01*
X70000Y-35400D02*
X69400Y-35400D01*
X69400Y-35400D02*
X69400Y-35800D01*
X66550Y-36650D02*
G75*
G03X66550Y-36650I-50J0D01*
G74*
G01*
X66500Y-36200D02*
X66500Y-36600D01*
X66500Y-36600D02*
X67100Y-36600D01*
X67100Y-36600D02*
X67100Y-36200D01*
X67100Y-35800D02*
X67100Y-35400D01*
X67100Y-35400D02*
X66500Y-35400D01*
X66500Y-35400D02*
X66500Y-35800D01*
X85350Y-26850D02*
G75*
G03X85350Y-26850I-50J0D01*
G74*
G01*
X85300Y-27300D02*
X85300Y-26900D01*
X85300Y-26900D02*
X84700Y-26900D01*
X84700Y-26900D02*
X84700Y-27300D01*
X84700Y-27700D02*
X84700Y-28100D01*
X84700Y-28100D02*
X85300Y-28100D01*
X85300Y-28100D02*
X85300Y-27700D01*
X97850Y-34350D02*
G75*
G03X97850Y-34350I-50J0D01*
G74*
G01*
X97800Y-34800D02*
X97800Y-34400D01*
X97800Y-34400D02*
X97200Y-34400D01*
X97200Y-34400D02*
X97200Y-34800D01*
X97200Y-35200D02*
X97200Y-35600D01*
X97200Y-35600D02*
X97800Y-35600D01*
X97800Y-35600D02*
X97800Y-35200D01*
X89250Y-31650D02*
G75*
G03X89250Y-31650I-50J0D01*
G74*
G01*
X89200Y-31200D02*
X89200Y-31600D01*
X89200Y-31600D02*
X89800Y-31600D01*
X89800Y-31600D02*
X89800Y-31200D01*
X89800Y-30800D02*
X89800Y-30400D01*
X89800Y-30400D02*
X89200Y-30400D01*
X89200Y-30400D02*
X89200Y-30800D01*
X73550Y-35350D02*
G75*
G03X73550Y-35350I-50J0D01*
G74*
G01*
X73500Y-35800D02*
X73500Y-35400D01*
X73500Y-35400D02*
X72900Y-35400D01*
X72900Y-35400D02*
X72900Y-35800D01*
X72900Y-36200D02*
X72900Y-36600D01*
X72900Y-36600D02*
X73500Y-36600D01*
X73500Y-36600D02*
X73500Y-36200D01*
X89900Y-34700D02*
G75*
G03X89900Y-34700I-50J0D01*
G74*
G01*
X90300Y-34700D02*
X89900Y-34700D01*
X89900Y-34700D02*
X89900Y-35300D01*
X89900Y-35300D02*
X90300Y-35300D01*
X90700Y-35300D02*
X91100Y-35300D01*
X91100Y-35300D02*
X91100Y-34700D01*
X91100Y-34700D02*
X90700Y-34700D01*
X86900Y-34700D02*
G75*
G03X86900Y-34700I-50J0D01*
G74*
G01*
X87300Y-34700D02*
X86900Y-34700D01*
X86900Y-34700D02*
X86900Y-35300D01*
X86900Y-35300D02*
X87300Y-35300D01*
X87700Y-35300D02*
X88100Y-35300D01*
X88100Y-35300D02*
X88100Y-34700D01*
X88100Y-34700D02*
X87700Y-34700D01*
G54D10*
X74426Y-29212D02*
X74426Y-33228D01*
X74426Y-33228D02*
X75253Y-33228D01*
X75253Y-33228D02*
X75253Y-29252D01*
X75253Y-29252D02*
X75253Y-29212D01*
X75253Y-29212D02*
X74426Y-29212D01*
G54D15*
X97000Y-32900D02*
G75*
G03X97000Y-32900I-50J0D01*
G74*
G01*
X96950Y-32450D02*
X96950Y-32850D01*
X96950Y-32850D02*
X97550Y-32850D01*
X97550Y-32850D02*
X97550Y-32450D01*
X97550Y-32050D02*
X97550Y-31650D01*
X97550Y-31650D02*
X96950Y-31650D01*
X96950Y-31650D02*
X96950Y-32050D01*
G54D16*
X75063Y-26232D02*
X75048Y-26203D01*
X75020Y-26175D01*
X74977Y-26132D01*
X74963Y-26103D01*
X74963Y-26075D01*
X75034Y-26089D02*
X75020Y-26061D01*
X74991Y-26032D01*
X74934Y-26018D01*
X74834Y-26018D01*
X74777Y-26032D01*
X74748Y-26061D01*
X74734Y-26089D01*
X74734Y-26146D01*
X74748Y-26175D01*
X74777Y-26203D01*
X74834Y-26218D01*
X74934Y-26218D01*
X74991Y-26203D01*
X75020Y-26175D01*
X75034Y-26146D01*
X75034Y-26089D01*
X75034Y-26503D02*
X75034Y-26332D01*
X75034Y-26418D02*
X74734Y-26418D01*
X74777Y-26389D01*
X74805Y-26361D01*
X74820Y-26332D01*
G54D15*
X75754Y-26046D02*
X75557Y-26046D01*
X75557Y-26121D01*
X75567Y-26140D01*
X75576Y-26149D01*
X75595Y-26159D01*
X75623Y-26159D01*
X75642Y-26149D01*
X75651Y-26140D01*
X75660Y-26121D01*
X75660Y-26046D01*
X75754Y-26243D02*
X75557Y-26243D01*
X75754Y-26356D01*
X75557Y-26356D01*
X75754Y-26450D02*
X75557Y-26450D01*
X75557Y-26525D01*
X75567Y-26543D01*
X75576Y-26553D01*
X75595Y-26562D01*
X75623Y-26562D01*
X75642Y-26553D01*
X75651Y-26543D01*
X75660Y-26525D01*
X75660Y-26450D01*
G54D17*
X101860Y-30217D02*
X101870Y-30207D01*
X101879Y-30179D01*
X101879Y-30160D01*
X101870Y-30132D01*
X101851Y-30113D01*
X101832Y-30104D01*
X101795Y-30095D01*
X101767Y-30095D01*
X101729Y-30104D01*
X101710Y-30113D01*
X101692Y-30132D01*
X101682Y-30160D01*
X101682Y-30179D01*
X101692Y-30207D01*
X101701Y-30217D01*
X101767Y-30329D02*
X101757Y-30310D01*
X101748Y-30301D01*
X101729Y-30292D01*
X101720Y-30292D01*
X101701Y-30301D01*
X101692Y-30310D01*
X101682Y-30329D01*
X101682Y-30367D01*
X101692Y-30386D01*
X101701Y-30395D01*
X101720Y-30404D01*
X101729Y-30404D01*
X101748Y-30395D01*
X101757Y-30386D01*
X101767Y-30367D01*
X101767Y-30329D01*
X101776Y-30310D01*
X101785Y-30301D01*
X101804Y-30292D01*
X101842Y-30292D01*
X101860Y-30301D01*
X101870Y-30310D01*
X101879Y-30329D01*
X101879Y-30367D01*
X101870Y-30386D01*
X101860Y-30395D01*
X101842Y-30404D01*
X101804Y-30404D01*
X101785Y-30395D01*
X101776Y-30386D01*
X101767Y-30367D01*
X100632Y-29926D02*
X100632Y-29945D01*
X100642Y-29963D01*
X100651Y-29973D01*
X100670Y-29982D01*
X100707Y-29992D01*
X100754Y-29992D01*
X100792Y-29982D01*
X100810Y-29973D01*
X100820Y-29963D01*
X100829Y-29945D01*
X100829Y-29926D01*
X100820Y-29907D01*
X100810Y-29898D01*
X100792Y-29888D01*
X100754Y-29879D01*
X100707Y-29879D01*
X100670Y-29888D01*
X100651Y-29898D01*
X100642Y-29907D01*
X100632Y-29926D01*
X100810Y-30076D02*
X100820Y-30085D01*
X100829Y-30076D01*
X100820Y-30067D01*
X100810Y-30076D01*
X100829Y-30076D01*
X100829Y-30273D02*
X100829Y-30160D01*
X100829Y-30217D02*
X100632Y-30217D01*
X100660Y-30198D01*
X100679Y-30179D01*
X100689Y-30160D01*
X100698Y-30442D02*
X100829Y-30442D01*
X100698Y-30357D02*
X100801Y-30357D01*
X100820Y-30367D01*
X100829Y-30386D01*
X100829Y-30414D01*
X100820Y-30432D01*
X100810Y-30442D01*
X100726Y-30601D02*
X100726Y-30536D01*
X100829Y-30536D02*
X100632Y-30536D01*
X100632Y-30629D01*
X81179Y-34367D02*
X81085Y-34301D01*
X81179Y-34254D02*
X80982Y-34254D01*
X80982Y-34329D01*
X80992Y-34348D01*
X81001Y-34357D01*
X81020Y-34367D01*
X81048Y-34367D01*
X81067Y-34357D01*
X81076Y-34348D01*
X81085Y-34329D01*
X81085Y-34254D01*
X80982Y-34545D02*
X80982Y-34451D01*
X81076Y-34442D01*
X81067Y-34451D01*
X81057Y-34470D01*
X81057Y-34517D01*
X81067Y-34536D01*
X81076Y-34545D01*
X81095Y-34554D01*
X81142Y-34554D01*
X81160Y-34545D01*
X81170Y-34536D01*
X81179Y-34517D01*
X81179Y-34470D01*
X81170Y-34451D01*
X81160Y-34442D01*
X82229Y-34170D02*
X82229Y-34057D01*
X82229Y-34113D02*
X82032Y-34113D01*
X82060Y-34095D01*
X82079Y-34076D01*
X82089Y-34057D01*
X82032Y-34292D02*
X82032Y-34310D01*
X82042Y-34329D01*
X82051Y-34339D01*
X82070Y-34348D01*
X82107Y-34357D01*
X82154Y-34357D01*
X82192Y-34348D01*
X82210Y-34339D01*
X82220Y-34329D01*
X82229Y-34310D01*
X82229Y-34292D01*
X82220Y-34273D01*
X82210Y-34263D01*
X82192Y-34254D01*
X82154Y-34245D01*
X82107Y-34245D01*
X82070Y-34254D01*
X82051Y-34263D01*
X82042Y-34273D01*
X82032Y-34292D01*
X82032Y-34479D02*
X82032Y-34498D01*
X82042Y-34517D01*
X82051Y-34526D01*
X82070Y-34536D01*
X82107Y-34545D01*
X82154Y-34545D01*
X82192Y-34536D01*
X82210Y-34526D01*
X82220Y-34517D01*
X82229Y-34498D01*
X82229Y-34479D01*
X82220Y-34460D01*
X82210Y-34451D01*
X82192Y-34442D01*
X82154Y-34432D01*
X82107Y-34432D01*
X82070Y-34442D01*
X82051Y-34451D01*
X82042Y-34460D01*
X82032Y-34479D01*
X82229Y-34742D02*
X82135Y-34676D01*
X82229Y-34629D02*
X82032Y-34629D01*
X82032Y-34704D01*
X82042Y-34723D01*
X82051Y-34733D01*
X82070Y-34742D01*
X82098Y-34742D01*
X82117Y-34733D01*
X82126Y-34723D01*
X82135Y-34704D01*
X82135Y-34629D01*
X69679Y-30217D02*
X69585Y-30151D01*
X69679Y-30104D02*
X69482Y-30104D01*
X69482Y-30179D01*
X69492Y-30198D01*
X69501Y-30207D01*
X69520Y-30217D01*
X69548Y-30217D01*
X69567Y-30207D01*
X69576Y-30198D01*
X69585Y-30179D01*
X69585Y-30104D01*
X69482Y-30282D02*
X69482Y-30414D01*
X69679Y-30329D01*
X68629Y-30020D02*
X68629Y-29907D01*
X68629Y-29963D02*
X68432Y-29963D01*
X68460Y-29945D01*
X68479Y-29926D01*
X68489Y-29907D01*
X68432Y-30142D02*
X68432Y-30160D01*
X68442Y-30179D01*
X68451Y-30189D01*
X68470Y-30198D01*
X68507Y-30207D01*
X68554Y-30207D01*
X68592Y-30198D01*
X68610Y-30189D01*
X68620Y-30179D01*
X68629Y-30160D01*
X68629Y-30142D01*
X68620Y-30123D01*
X68610Y-30113D01*
X68592Y-30104D01*
X68554Y-30095D01*
X68507Y-30095D01*
X68470Y-30104D01*
X68451Y-30113D01*
X68442Y-30123D01*
X68432Y-30142D01*
X68432Y-30329D02*
X68432Y-30348D01*
X68442Y-30367D01*
X68451Y-30376D01*
X68470Y-30386D01*
X68507Y-30395D01*
X68554Y-30395D01*
X68592Y-30386D01*
X68610Y-30376D01*
X68620Y-30367D01*
X68629Y-30348D01*
X68629Y-30329D01*
X68620Y-30310D01*
X68610Y-30301D01*
X68592Y-30292D01*
X68554Y-30282D01*
X68507Y-30282D01*
X68470Y-30292D01*
X68451Y-30301D01*
X68442Y-30310D01*
X68432Y-30329D01*
X68629Y-30592D02*
X68535Y-30526D01*
X68629Y-30479D02*
X68432Y-30479D01*
X68432Y-30554D01*
X68442Y-30573D01*
X68451Y-30583D01*
X68470Y-30592D01*
X68498Y-30592D01*
X68517Y-30583D01*
X68526Y-30573D01*
X68535Y-30554D01*
X68535Y-30479D01*
X87879Y-44067D02*
X87785Y-44001D01*
X87879Y-43954D02*
X87682Y-43954D01*
X87682Y-44029D01*
X87692Y-44048D01*
X87701Y-44057D01*
X87720Y-44067D01*
X87748Y-44067D01*
X87767Y-44057D01*
X87776Y-44048D01*
X87785Y-44029D01*
X87785Y-43954D01*
X87682Y-44236D02*
X87682Y-44198D01*
X87692Y-44179D01*
X87701Y-44170D01*
X87729Y-44151D01*
X87767Y-44142D01*
X87842Y-44142D01*
X87860Y-44151D01*
X87870Y-44160D01*
X87879Y-44179D01*
X87879Y-44217D01*
X87870Y-44236D01*
X87860Y-44245D01*
X87842Y-44254D01*
X87795Y-44254D01*
X87776Y-44245D01*
X87767Y-44236D01*
X87757Y-44217D01*
X87757Y-44179D01*
X87767Y-44160D01*
X87776Y-44151D01*
X87795Y-44142D01*
X88829Y-43963D02*
X88829Y-43851D01*
X88829Y-43907D02*
X88632Y-43907D01*
X88660Y-43888D01*
X88679Y-43870D01*
X88689Y-43851D01*
X88632Y-44085D02*
X88632Y-44104D01*
X88642Y-44123D01*
X88651Y-44132D01*
X88670Y-44142D01*
X88707Y-44151D01*
X88754Y-44151D01*
X88792Y-44142D01*
X88810Y-44132D01*
X88820Y-44123D01*
X88829Y-44104D01*
X88829Y-44085D01*
X88820Y-44067D01*
X88810Y-44057D01*
X88792Y-44048D01*
X88754Y-44039D01*
X88707Y-44039D01*
X88670Y-44048D01*
X88651Y-44057D01*
X88642Y-44067D01*
X88632Y-44085D01*
X88829Y-44236D02*
X88632Y-44236D01*
X88829Y-44348D02*
X88717Y-44264D01*
X88632Y-44348D02*
X88745Y-44236D01*
X65960Y-30217D02*
X65970Y-30207D01*
X65979Y-30179D01*
X65979Y-30160D01*
X65970Y-30132D01*
X65951Y-30113D01*
X65932Y-30104D01*
X65895Y-30095D01*
X65867Y-30095D01*
X65829Y-30104D01*
X65810Y-30113D01*
X65792Y-30132D01*
X65782Y-30160D01*
X65782Y-30179D01*
X65792Y-30207D01*
X65801Y-30217D01*
X65782Y-30395D02*
X65782Y-30301D01*
X65876Y-30292D01*
X65867Y-30301D01*
X65857Y-30320D01*
X65857Y-30367D01*
X65867Y-30386D01*
X65876Y-30395D01*
X65895Y-30404D01*
X65942Y-30404D01*
X65960Y-30395D01*
X65970Y-30386D01*
X65979Y-30367D01*
X65979Y-30320D01*
X65970Y-30301D01*
X65960Y-30292D01*
X64632Y-29926D02*
X64632Y-29945D01*
X64642Y-29963D01*
X64651Y-29973D01*
X64670Y-29982D01*
X64707Y-29992D01*
X64754Y-29992D01*
X64792Y-29982D01*
X64810Y-29973D01*
X64820Y-29963D01*
X64829Y-29945D01*
X64829Y-29926D01*
X64820Y-29907D01*
X64810Y-29898D01*
X64792Y-29888D01*
X64754Y-29879D01*
X64707Y-29879D01*
X64670Y-29888D01*
X64651Y-29898D01*
X64642Y-29907D01*
X64632Y-29926D01*
X64810Y-30076D02*
X64820Y-30085D01*
X64829Y-30076D01*
X64820Y-30067D01*
X64810Y-30076D01*
X64829Y-30076D01*
X64829Y-30273D02*
X64829Y-30160D01*
X64829Y-30217D02*
X64632Y-30217D01*
X64660Y-30198D01*
X64679Y-30179D01*
X64689Y-30160D01*
X64698Y-30442D02*
X64829Y-30442D01*
X64698Y-30357D02*
X64801Y-30357D01*
X64820Y-30367D01*
X64829Y-30386D01*
X64829Y-30414D01*
X64820Y-30432D01*
X64810Y-30442D01*
X64726Y-30601D02*
X64726Y-30536D01*
X64829Y-30536D02*
X64632Y-30536D01*
X64632Y-30629D01*
X87579Y-44067D02*
X87485Y-44001D01*
X87579Y-43954D02*
X87382Y-43954D01*
X87382Y-44029D01*
X87392Y-44048D01*
X87401Y-44057D01*
X87420Y-44067D01*
X87448Y-44067D01*
X87467Y-44057D01*
X87476Y-44048D01*
X87485Y-44029D01*
X87485Y-43954D01*
X87579Y-44160D02*
X87579Y-44198D01*
X87570Y-44217D01*
X87560Y-44226D01*
X87532Y-44245D01*
X87495Y-44254D01*
X87420Y-44254D01*
X87401Y-44245D01*
X87392Y-44236D01*
X87382Y-44217D01*
X87382Y-44179D01*
X87392Y-44160D01*
X87401Y-44151D01*
X87420Y-44142D01*
X87467Y-44142D01*
X87485Y-44151D01*
X87495Y-44160D01*
X87504Y-44179D01*
X87504Y-44217D01*
X87495Y-44236D01*
X87485Y-44245D01*
X87467Y-44254D01*
X86579Y-43963D02*
X86579Y-43851D01*
X86579Y-43907D02*
X86382Y-43907D01*
X86410Y-43888D01*
X86429Y-43870D01*
X86439Y-43851D01*
X86382Y-44085D02*
X86382Y-44104D01*
X86392Y-44123D01*
X86401Y-44132D01*
X86420Y-44142D01*
X86457Y-44151D01*
X86504Y-44151D01*
X86542Y-44142D01*
X86560Y-44132D01*
X86570Y-44123D01*
X86579Y-44104D01*
X86579Y-44085D01*
X86570Y-44067D01*
X86560Y-44057D01*
X86542Y-44048D01*
X86504Y-44039D01*
X86457Y-44039D01*
X86420Y-44048D01*
X86401Y-44057D01*
X86392Y-44067D01*
X86382Y-44085D01*
X86579Y-44236D02*
X86382Y-44236D01*
X86579Y-44348D02*
X86467Y-44264D01*
X86382Y-44348D02*
X86495Y-44236D01*
X84704Y-37967D02*
X84610Y-37901D01*
X84704Y-37854D02*
X84507Y-37854D01*
X84507Y-37929D01*
X84517Y-37948D01*
X84526Y-37957D01*
X84545Y-37967D01*
X84573Y-37967D01*
X84592Y-37957D01*
X84601Y-37948D01*
X84610Y-37929D01*
X84610Y-37854D01*
X84592Y-38079D02*
X84582Y-38060D01*
X84573Y-38051D01*
X84554Y-38042D01*
X84545Y-38042D01*
X84526Y-38051D01*
X84517Y-38060D01*
X84507Y-38079D01*
X84507Y-38117D01*
X84517Y-38136D01*
X84526Y-38145D01*
X84545Y-38154D01*
X84554Y-38154D01*
X84573Y-38145D01*
X84582Y-38136D01*
X84592Y-38117D01*
X84592Y-38079D01*
X84601Y-38060D01*
X84610Y-38051D01*
X84629Y-38042D01*
X84667Y-38042D01*
X84685Y-38051D01*
X84695Y-38060D01*
X84704Y-38079D01*
X84704Y-38117D01*
X84695Y-38136D01*
X84685Y-38145D01*
X84667Y-38154D01*
X84629Y-38154D01*
X84610Y-38145D01*
X84601Y-38136D01*
X84592Y-38117D01*
X84251Y-37657D02*
X84242Y-37666D01*
X84232Y-37685D01*
X84232Y-37732D01*
X84242Y-37751D01*
X84251Y-37760D01*
X84270Y-37770D01*
X84289Y-37770D01*
X84317Y-37760D01*
X84429Y-37648D01*
X84429Y-37770D01*
X84251Y-37845D02*
X84242Y-37854D01*
X84232Y-37873D01*
X84232Y-37920D01*
X84242Y-37939D01*
X84251Y-37948D01*
X84270Y-37957D01*
X84289Y-37957D01*
X84317Y-37948D01*
X84429Y-37835D01*
X84429Y-37957D01*
X84232Y-38079D02*
X84232Y-38098D01*
X84242Y-38117D01*
X84251Y-38126D01*
X84270Y-38136D01*
X84307Y-38145D01*
X84354Y-38145D01*
X84392Y-38136D01*
X84410Y-38126D01*
X84420Y-38117D01*
X84429Y-38098D01*
X84429Y-38079D01*
X84420Y-38060D01*
X84410Y-38051D01*
X84392Y-38042D01*
X84354Y-38032D01*
X84307Y-38032D01*
X84270Y-38042D01*
X84251Y-38051D01*
X84242Y-38060D01*
X84232Y-38079D01*
X84429Y-38342D02*
X84335Y-38276D01*
X84429Y-38229D02*
X84232Y-38229D01*
X84232Y-38304D01*
X84242Y-38323D01*
X84251Y-38333D01*
X84270Y-38342D01*
X84298Y-38342D01*
X84317Y-38333D01*
X84326Y-38323D01*
X84335Y-38304D01*
X84335Y-38229D01*
X78879Y-34417D02*
X78785Y-34351D01*
X78879Y-34304D02*
X78682Y-34304D01*
X78682Y-34379D01*
X78692Y-34398D01*
X78701Y-34407D01*
X78720Y-34417D01*
X78748Y-34417D01*
X78767Y-34407D01*
X78776Y-34398D01*
X78785Y-34379D01*
X78785Y-34304D01*
X78748Y-34586D02*
X78879Y-34586D01*
X78673Y-34539D02*
X78814Y-34492D01*
X78814Y-34614D01*
X79929Y-34220D02*
X79929Y-34107D01*
X79929Y-34163D02*
X79732Y-34163D01*
X79760Y-34145D01*
X79779Y-34126D01*
X79789Y-34107D01*
X79732Y-34342D02*
X79732Y-34360D01*
X79742Y-34379D01*
X79751Y-34389D01*
X79770Y-34398D01*
X79807Y-34407D01*
X79854Y-34407D01*
X79892Y-34398D01*
X79910Y-34389D01*
X79920Y-34379D01*
X79929Y-34360D01*
X79929Y-34342D01*
X79920Y-34323D01*
X79910Y-34313D01*
X79892Y-34304D01*
X79854Y-34295D01*
X79807Y-34295D01*
X79770Y-34304D01*
X79751Y-34313D01*
X79742Y-34323D01*
X79732Y-34342D01*
X79732Y-34529D02*
X79732Y-34548D01*
X79742Y-34567D01*
X79751Y-34576D01*
X79770Y-34586D01*
X79807Y-34595D01*
X79854Y-34595D01*
X79892Y-34586D01*
X79910Y-34576D01*
X79920Y-34567D01*
X79929Y-34548D01*
X79929Y-34529D01*
X79920Y-34510D01*
X79910Y-34501D01*
X79892Y-34492D01*
X79854Y-34482D01*
X79807Y-34482D01*
X79770Y-34492D01*
X79751Y-34501D01*
X79742Y-34510D01*
X79732Y-34529D01*
X79929Y-34792D02*
X79835Y-34726D01*
X79929Y-34679D02*
X79732Y-34679D01*
X79732Y-34754D01*
X79742Y-34773D01*
X79751Y-34783D01*
X79770Y-34792D01*
X79798Y-34792D01*
X79817Y-34783D01*
X79826Y-34773D01*
X79835Y-34754D01*
X79835Y-34679D01*
X81332Y-31660D02*
X81342Y-31670D01*
X81370Y-31679D01*
X81389Y-31679D01*
X81417Y-31670D01*
X81436Y-31651D01*
X81445Y-31632D01*
X81454Y-31595D01*
X81454Y-31567D01*
X81445Y-31529D01*
X81436Y-31510D01*
X81417Y-31492D01*
X81389Y-31482D01*
X81370Y-31482D01*
X81342Y-31492D01*
X81332Y-31501D01*
X81163Y-31482D02*
X81201Y-31482D01*
X81220Y-31492D01*
X81229Y-31501D01*
X81248Y-31529D01*
X81257Y-31567D01*
X81257Y-31642D01*
X81248Y-31660D01*
X81239Y-31670D01*
X81220Y-31679D01*
X81182Y-31679D01*
X81163Y-31670D01*
X81154Y-31660D01*
X81145Y-31642D01*
X81145Y-31595D01*
X81154Y-31576D01*
X81163Y-31567D01*
X81182Y-31557D01*
X81220Y-31557D01*
X81239Y-31567D01*
X81248Y-31576D01*
X81257Y-31595D01*
X81461Y-30679D02*
X81573Y-30679D01*
X81517Y-30679D02*
X81517Y-30482D01*
X81536Y-30510D01*
X81554Y-30529D01*
X81573Y-30539D01*
X81339Y-30482D02*
X81320Y-30482D01*
X81301Y-30492D01*
X81292Y-30501D01*
X81282Y-30520D01*
X81273Y-30557D01*
X81273Y-30604D01*
X81282Y-30642D01*
X81292Y-30660D01*
X81301Y-30670D01*
X81320Y-30679D01*
X81339Y-30679D01*
X81357Y-30670D01*
X81367Y-30660D01*
X81376Y-30642D01*
X81386Y-30604D01*
X81386Y-30557D01*
X81376Y-30520D01*
X81367Y-30501D01*
X81357Y-30492D01*
X81339Y-30482D01*
X81104Y-30548D02*
X81104Y-30679D01*
X81189Y-30548D02*
X81189Y-30651D01*
X81179Y-30670D01*
X81160Y-30679D01*
X81132Y-30679D01*
X81113Y-30670D01*
X81104Y-30660D01*
X80945Y-30576D02*
X81010Y-30576D01*
X81010Y-30679D02*
X81010Y-30482D01*
X80916Y-30482D01*
X101010Y-34967D02*
X101020Y-34957D01*
X101029Y-34929D01*
X101029Y-34910D01*
X101020Y-34882D01*
X101001Y-34863D01*
X100982Y-34854D01*
X100945Y-34845D01*
X100917Y-34845D01*
X100879Y-34854D01*
X100860Y-34863D01*
X100842Y-34882D01*
X100832Y-34910D01*
X100832Y-34929D01*
X100842Y-34957D01*
X100851Y-34967D01*
X100832Y-35032D02*
X100832Y-35164D01*
X101029Y-35079D01*
X101882Y-34676D02*
X101882Y-34695D01*
X101892Y-34713D01*
X101901Y-34723D01*
X101920Y-34732D01*
X101957Y-34742D01*
X102004Y-34742D01*
X102042Y-34732D01*
X102060Y-34723D01*
X102070Y-34713D01*
X102079Y-34695D01*
X102079Y-34676D01*
X102070Y-34657D01*
X102060Y-34648D01*
X102042Y-34638D01*
X102004Y-34629D01*
X101957Y-34629D01*
X101920Y-34638D01*
X101901Y-34648D01*
X101892Y-34657D01*
X101882Y-34676D01*
X102060Y-34826D02*
X102070Y-34835D01*
X102079Y-34826D01*
X102070Y-34817D01*
X102060Y-34826D01*
X102079Y-34826D01*
X102079Y-35023D02*
X102079Y-34910D01*
X102079Y-34967D02*
X101882Y-34967D01*
X101910Y-34948D01*
X101929Y-34929D01*
X101939Y-34910D01*
X101948Y-35192D02*
X102079Y-35192D01*
X101948Y-35107D02*
X102051Y-35107D01*
X102070Y-35117D01*
X102079Y-35136D01*
X102079Y-35164D01*
X102070Y-35182D01*
X102060Y-35192D01*
X101976Y-35351D02*
X101976Y-35286D01*
X102079Y-35286D02*
X101882Y-35286D01*
X101882Y-35379D01*
X70360Y-35967D02*
X70370Y-35957D01*
X70379Y-35929D01*
X70379Y-35910D01*
X70370Y-35882D01*
X70351Y-35863D01*
X70332Y-35854D01*
X70295Y-35845D01*
X70267Y-35845D01*
X70229Y-35854D01*
X70210Y-35863D01*
X70192Y-35882D01*
X70182Y-35910D01*
X70182Y-35929D01*
X70192Y-35957D01*
X70201Y-35967D01*
X70248Y-36136D02*
X70379Y-36136D01*
X70173Y-36089D02*
X70314Y-36042D01*
X70314Y-36164D01*
X68982Y-35676D02*
X68982Y-35695D01*
X68992Y-35713D01*
X69001Y-35723D01*
X69020Y-35732D01*
X69057Y-35742D01*
X69104Y-35742D01*
X69142Y-35732D01*
X69160Y-35723D01*
X69170Y-35713D01*
X69179Y-35695D01*
X69179Y-35676D01*
X69170Y-35657D01*
X69160Y-35648D01*
X69142Y-35638D01*
X69104Y-35629D01*
X69057Y-35629D01*
X69020Y-35638D01*
X69001Y-35648D01*
X68992Y-35657D01*
X68982Y-35676D01*
X69160Y-35826D02*
X69170Y-35835D01*
X69179Y-35826D01*
X69170Y-35817D01*
X69160Y-35826D01*
X69179Y-35826D01*
X69179Y-36023D02*
X69179Y-35910D01*
X69179Y-35967D02*
X68982Y-35967D01*
X69010Y-35948D01*
X69029Y-35929D01*
X69039Y-35910D01*
X69048Y-36192D02*
X69179Y-36192D01*
X69048Y-36107D02*
X69151Y-36107D01*
X69170Y-36117D01*
X69179Y-36136D01*
X69179Y-36164D01*
X69170Y-36182D01*
X69160Y-36192D01*
X69076Y-36351D02*
X69076Y-36286D01*
X69179Y-36286D02*
X68982Y-36286D01*
X68982Y-36379D01*
X67410Y-35967D02*
X67420Y-35957D01*
X67429Y-35929D01*
X67429Y-35910D01*
X67420Y-35882D01*
X67401Y-35863D01*
X67382Y-35854D01*
X67345Y-35845D01*
X67317Y-35845D01*
X67279Y-35854D01*
X67260Y-35863D01*
X67242Y-35882D01*
X67232Y-35910D01*
X67232Y-35929D01*
X67242Y-35957D01*
X67251Y-35967D01*
X67232Y-36032D02*
X67232Y-36154D01*
X67307Y-36089D01*
X67307Y-36117D01*
X67317Y-36136D01*
X67326Y-36145D01*
X67345Y-36154D01*
X67392Y-36154D01*
X67410Y-36145D01*
X67420Y-36136D01*
X67429Y-36117D01*
X67429Y-36060D01*
X67420Y-36042D01*
X67410Y-36032D01*
X66132Y-35676D02*
X66132Y-35695D01*
X66142Y-35713D01*
X66151Y-35723D01*
X66170Y-35732D01*
X66207Y-35742D01*
X66254Y-35742D01*
X66292Y-35732D01*
X66310Y-35723D01*
X66320Y-35713D01*
X66329Y-35695D01*
X66329Y-35676D01*
X66320Y-35657D01*
X66310Y-35648D01*
X66292Y-35638D01*
X66254Y-35629D01*
X66207Y-35629D01*
X66170Y-35638D01*
X66151Y-35648D01*
X66142Y-35657D01*
X66132Y-35676D01*
X66310Y-35826D02*
X66320Y-35835D01*
X66329Y-35826D01*
X66320Y-35817D01*
X66310Y-35826D01*
X66329Y-35826D01*
X66329Y-36023D02*
X66329Y-35910D01*
X66329Y-35967D02*
X66132Y-35967D01*
X66160Y-35948D01*
X66179Y-35929D01*
X66189Y-35910D01*
X66198Y-36192D02*
X66329Y-36192D01*
X66198Y-36107D02*
X66301Y-36107D01*
X66320Y-36117D01*
X66329Y-36136D01*
X66329Y-36164D01*
X66320Y-36182D01*
X66310Y-36192D01*
X66226Y-36351D02*
X66226Y-36286D01*
X66329Y-36286D02*
X66132Y-36286D01*
X66132Y-36379D01*
X84529Y-27467D02*
X84529Y-27373D01*
X84332Y-27373D01*
X84529Y-27636D02*
X84529Y-27523D01*
X84529Y-27579D02*
X84332Y-27579D01*
X84360Y-27560D01*
X84379Y-27542D01*
X84389Y-27523D01*
X85482Y-27101D02*
X85482Y-27223D01*
X85557Y-27157D01*
X85557Y-27185D01*
X85567Y-27204D01*
X85576Y-27213D01*
X85595Y-27223D01*
X85642Y-27223D01*
X85660Y-27213D01*
X85670Y-27204D01*
X85679Y-27185D01*
X85679Y-27129D01*
X85670Y-27110D01*
X85660Y-27101D01*
X85660Y-27307D02*
X85670Y-27317D01*
X85679Y-27307D01*
X85670Y-27298D01*
X85660Y-27307D01*
X85679Y-27307D01*
X85482Y-27382D02*
X85482Y-27504D01*
X85557Y-27439D01*
X85557Y-27467D01*
X85567Y-27485D01*
X85576Y-27495D01*
X85595Y-27504D01*
X85642Y-27504D01*
X85660Y-27495D01*
X85670Y-27485D01*
X85679Y-27467D01*
X85679Y-27410D01*
X85670Y-27392D01*
X85660Y-27382D01*
X85548Y-27673D02*
X85679Y-27673D01*
X85548Y-27589D02*
X85651Y-27589D01*
X85670Y-27598D01*
X85679Y-27617D01*
X85679Y-27645D01*
X85670Y-27664D01*
X85660Y-27673D01*
X85679Y-27767D02*
X85482Y-27767D01*
X85576Y-27767D02*
X85576Y-27879D01*
X85679Y-27879D02*
X85482Y-27879D01*
X97010Y-34967D02*
X97020Y-34957D01*
X97029Y-34929D01*
X97029Y-34910D01*
X97020Y-34882D01*
X97001Y-34863D01*
X96982Y-34854D01*
X96945Y-34845D01*
X96917Y-34845D01*
X96879Y-34854D01*
X96860Y-34863D01*
X96842Y-34882D01*
X96832Y-34910D01*
X96832Y-34929D01*
X96842Y-34957D01*
X96851Y-34967D01*
X97029Y-35154D02*
X97029Y-35042D01*
X97029Y-35098D02*
X96832Y-35098D01*
X96860Y-35079D01*
X96879Y-35060D01*
X96889Y-35042D01*
X98079Y-34788D02*
X98079Y-34676D01*
X98079Y-34732D02*
X97882Y-34732D01*
X97910Y-34713D01*
X97929Y-34695D01*
X97939Y-34676D01*
X97882Y-34910D02*
X97882Y-34929D01*
X97892Y-34948D01*
X97901Y-34957D01*
X97920Y-34967D01*
X97957Y-34976D01*
X98004Y-34976D01*
X98042Y-34967D01*
X98060Y-34957D01*
X98070Y-34948D01*
X98079Y-34929D01*
X98079Y-34910D01*
X98070Y-34892D01*
X98060Y-34882D01*
X98042Y-34873D01*
X98004Y-34863D01*
X97957Y-34863D01*
X97920Y-34873D01*
X97901Y-34882D01*
X97892Y-34892D01*
X97882Y-34910D01*
X97948Y-35145D02*
X98079Y-35145D01*
X97948Y-35060D02*
X98051Y-35060D01*
X98070Y-35070D01*
X98079Y-35089D01*
X98079Y-35117D01*
X98070Y-35136D01*
X98060Y-35145D01*
X97976Y-35304D02*
X97976Y-35239D01*
X98079Y-35239D02*
X97882Y-35239D01*
X97882Y-35333D01*
X90110Y-30967D02*
X90120Y-30957D01*
X90129Y-30929D01*
X90129Y-30910D01*
X90120Y-30882D01*
X90101Y-30863D01*
X90082Y-30854D01*
X90045Y-30845D01*
X90017Y-30845D01*
X89979Y-30854D01*
X89960Y-30863D01*
X89942Y-30882D01*
X89932Y-30910D01*
X89932Y-30929D01*
X89942Y-30957D01*
X89951Y-30967D01*
X89951Y-31042D02*
X89942Y-31051D01*
X89932Y-31070D01*
X89932Y-31117D01*
X89942Y-31136D01*
X89951Y-31145D01*
X89970Y-31154D01*
X89989Y-31154D01*
X90017Y-31145D01*
X90129Y-31032D01*
X90129Y-31154D01*
X88782Y-30676D02*
X88782Y-30695D01*
X88792Y-30713D01*
X88801Y-30723D01*
X88820Y-30732D01*
X88857Y-30742D01*
X88904Y-30742D01*
X88942Y-30732D01*
X88960Y-30723D01*
X88970Y-30713D01*
X88979Y-30695D01*
X88979Y-30676D01*
X88970Y-30657D01*
X88960Y-30648D01*
X88942Y-30638D01*
X88904Y-30629D01*
X88857Y-30629D01*
X88820Y-30638D01*
X88801Y-30648D01*
X88792Y-30657D01*
X88782Y-30676D01*
X88960Y-30826D02*
X88970Y-30835D01*
X88979Y-30826D01*
X88970Y-30817D01*
X88960Y-30826D01*
X88979Y-30826D01*
X88979Y-31023D02*
X88979Y-30910D01*
X88979Y-30967D02*
X88782Y-30967D01*
X88810Y-30948D01*
X88829Y-30929D01*
X88839Y-30910D01*
X88848Y-31192D02*
X88979Y-31192D01*
X88848Y-31107D02*
X88951Y-31107D01*
X88970Y-31117D01*
X88979Y-31136D01*
X88979Y-31164D01*
X88970Y-31182D01*
X88960Y-31192D01*
X88876Y-31351D02*
X88876Y-31286D01*
X88979Y-31286D02*
X88782Y-31286D01*
X88782Y-31379D01*
X72632Y-36079D02*
X72698Y-35985D01*
X72745Y-36079D02*
X72745Y-35882D01*
X72670Y-35882D01*
X72651Y-35892D01*
X72642Y-35901D01*
X72632Y-35920D01*
X72632Y-35948D01*
X72642Y-35967D01*
X72651Y-35976D01*
X72670Y-35985D01*
X72745Y-35985D01*
X72567Y-35882D02*
X72445Y-35882D01*
X72510Y-35957D01*
X72482Y-35957D01*
X72463Y-35967D01*
X72454Y-35976D01*
X72445Y-35995D01*
X72445Y-36042D01*
X72454Y-36060D01*
X72463Y-36070D01*
X72482Y-36079D01*
X72539Y-36079D01*
X72557Y-36070D01*
X72567Y-36060D01*
X73879Y-35770D02*
X73879Y-35657D01*
X73879Y-35713D02*
X73682Y-35713D01*
X73710Y-35695D01*
X73729Y-35676D01*
X73739Y-35657D01*
X73682Y-35892D02*
X73682Y-35910D01*
X73692Y-35929D01*
X73701Y-35939D01*
X73720Y-35948D01*
X73757Y-35957D01*
X73804Y-35957D01*
X73842Y-35948D01*
X73860Y-35939D01*
X73870Y-35929D01*
X73879Y-35910D01*
X73879Y-35892D01*
X73870Y-35873D01*
X73860Y-35863D01*
X73842Y-35854D01*
X73804Y-35845D01*
X73757Y-35845D01*
X73720Y-35854D01*
X73701Y-35863D01*
X73692Y-35873D01*
X73682Y-35892D01*
X73682Y-36079D02*
X73682Y-36098D01*
X73692Y-36117D01*
X73701Y-36126D01*
X73720Y-36136D01*
X73757Y-36145D01*
X73804Y-36145D01*
X73842Y-36136D01*
X73860Y-36126D01*
X73870Y-36117D01*
X73879Y-36098D01*
X73879Y-36079D01*
X73870Y-36060D01*
X73860Y-36051D01*
X73842Y-36042D01*
X73804Y-36032D01*
X73757Y-36032D01*
X73720Y-36042D01*
X73701Y-36051D01*
X73692Y-36060D01*
X73682Y-36079D01*
X73879Y-36342D02*
X73785Y-36276D01*
X73879Y-36229D02*
X73682Y-36229D01*
X73682Y-36304D01*
X73692Y-36323D01*
X73701Y-36333D01*
X73720Y-36342D01*
X73748Y-36342D01*
X73767Y-36333D01*
X73776Y-36323D01*
X73785Y-36304D01*
X73785Y-36229D01*
X90532Y-35629D02*
X90598Y-35535D01*
X90645Y-35629D02*
X90645Y-35432D01*
X90570Y-35432D01*
X90551Y-35442D01*
X90542Y-35451D01*
X90532Y-35470D01*
X90532Y-35498D01*
X90542Y-35517D01*
X90551Y-35526D01*
X90570Y-35535D01*
X90645Y-35535D01*
X90457Y-35451D02*
X90448Y-35442D01*
X90429Y-35432D01*
X90382Y-35432D01*
X90363Y-35442D01*
X90354Y-35451D01*
X90345Y-35470D01*
X90345Y-35489D01*
X90354Y-35517D01*
X90467Y-35629D01*
X90345Y-35629D01*
X90757Y-34467D02*
X90776Y-34457D01*
X90786Y-34448D01*
X90795Y-34429D01*
X90795Y-34420D01*
X90786Y-34401D01*
X90776Y-34392D01*
X90757Y-34382D01*
X90720Y-34382D01*
X90701Y-34392D01*
X90692Y-34401D01*
X90682Y-34420D01*
X90682Y-34429D01*
X90692Y-34448D01*
X90701Y-34457D01*
X90720Y-34467D01*
X90757Y-34467D01*
X90776Y-34476D01*
X90786Y-34485D01*
X90795Y-34504D01*
X90795Y-34542D01*
X90786Y-34560D01*
X90776Y-34570D01*
X90757Y-34579D01*
X90720Y-34579D01*
X90701Y-34570D01*
X90692Y-34560D01*
X90682Y-34542D01*
X90682Y-34504D01*
X90692Y-34485D01*
X90701Y-34476D01*
X90720Y-34467D01*
X90598Y-34560D02*
X90589Y-34570D01*
X90598Y-34579D01*
X90607Y-34570D01*
X90598Y-34560D01*
X90598Y-34579D01*
X90514Y-34401D02*
X90504Y-34392D01*
X90485Y-34382D01*
X90439Y-34382D01*
X90420Y-34392D01*
X90410Y-34401D01*
X90401Y-34420D01*
X90401Y-34439D01*
X90410Y-34467D01*
X90523Y-34579D01*
X90401Y-34579D01*
X90317Y-34579D02*
X90317Y-34382D01*
X90204Y-34579D02*
X90288Y-34467D01*
X90204Y-34382D02*
X90317Y-34495D01*
X87582Y-35579D02*
X87648Y-35485D01*
X87695Y-35579D02*
X87695Y-35382D01*
X87620Y-35382D01*
X87601Y-35392D01*
X87592Y-35401D01*
X87582Y-35420D01*
X87582Y-35448D01*
X87592Y-35467D01*
X87601Y-35476D01*
X87620Y-35485D01*
X87695Y-35485D01*
X87395Y-35579D02*
X87507Y-35579D01*
X87451Y-35579D02*
X87451Y-35382D01*
X87470Y-35410D01*
X87489Y-35429D01*
X87507Y-35439D01*
X87748Y-34351D02*
X87739Y-34342D01*
X87720Y-34332D01*
X87673Y-34332D01*
X87654Y-34342D01*
X87645Y-34351D01*
X87636Y-34370D01*
X87636Y-34389D01*
X87645Y-34417D01*
X87757Y-34529D01*
X87636Y-34529D01*
X87514Y-34332D02*
X87495Y-34332D01*
X87476Y-34342D01*
X87467Y-34351D01*
X87457Y-34370D01*
X87448Y-34407D01*
X87448Y-34454D01*
X87457Y-34492D01*
X87467Y-34510D01*
X87476Y-34520D01*
X87495Y-34529D01*
X87514Y-34529D01*
X87532Y-34520D01*
X87542Y-34510D01*
X87551Y-34492D01*
X87560Y-34454D01*
X87560Y-34407D01*
X87551Y-34370D01*
X87542Y-34351D01*
X87532Y-34342D01*
X87514Y-34332D01*
X87363Y-34529D02*
X87363Y-34332D01*
X87251Y-34529D02*
X87335Y-34417D01*
X87251Y-34332D02*
X87363Y-34445D01*
G54D10*
X72774Y-30920D02*
X73093Y-30920D01*
X73130Y-30939D01*
X73149Y-30958D01*
X73168Y-30995D01*
X73168Y-31070D01*
X73149Y-31108D01*
X73130Y-31126D01*
X73093Y-31145D01*
X72774Y-31145D01*
X72774Y-31501D02*
X72774Y-31426D01*
X72793Y-31389D01*
X72812Y-31370D01*
X72868Y-31333D01*
X72943Y-31314D01*
X73093Y-31314D01*
X73130Y-31333D01*
X73149Y-31351D01*
X73168Y-31389D01*
X73168Y-31464D01*
X73149Y-31501D01*
X73130Y-31520D01*
X73093Y-31539D01*
X72999Y-31539D01*
X72962Y-31520D01*
X72943Y-31501D01*
X72924Y-31464D01*
X72924Y-31389D01*
X72943Y-31351D01*
X72962Y-31333D01*
X72999Y-31314D01*
X75009Y-30337D02*
X74615Y-30337D01*
X74803Y-30337D02*
X74803Y-30562D01*
X75009Y-30562D02*
X74615Y-30562D01*
X74615Y-30712D02*
X75009Y-30975D01*
X74615Y-30975D02*
X75009Y-30712D01*
X74615Y-31087D02*
X74615Y-31349D01*
X75009Y-31181D01*
X75009Y-31706D02*
X75009Y-31481D01*
X75009Y-31593D02*
X74615Y-31593D01*
X74671Y-31556D01*
X74709Y-31518D01*
X74728Y-31481D01*
X75009Y-32081D02*
X75009Y-31856D01*
X75009Y-31968D02*
X74615Y-31968D01*
X74671Y-31931D01*
X74709Y-31893D01*
X74728Y-31856D01*
G54D17*
X97879Y-32123D02*
X97785Y-32057D01*
X97879Y-32010D02*
X97682Y-32010D01*
X97682Y-32085D01*
X97692Y-32104D01*
X97701Y-32113D01*
X97720Y-32123D01*
X97748Y-32123D01*
X97767Y-32113D01*
X97776Y-32104D01*
X97785Y-32085D01*
X97785Y-32010D01*
X97879Y-32310D02*
X97879Y-32198D01*
X97879Y-32254D02*
X97682Y-32254D01*
X97710Y-32235D01*
X97729Y-32217D01*
X97739Y-32198D01*
X97682Y-32432D02*
X97682Y-32451D01*
X97692Y-32470D01*
X97701Y-32479D01*
X97720Y-32489D01*
X97757Y-32498D01*
X97804Y-32498D01*
X97842Y-32489D01*
X97860Y-32479D01*
X97870Y-32470D01*
X97879Y-32451D01*
X97879Y-32432D01*
X97870Y-32414D01*
X97860Y-32404D01*
X97842Y-32395D01*
X97804Y-32386D01*
X97757Y-32386D01*
X97720Y-32395D01*
X97701Y-32404D01*
X97692Y-32414D01*
X97682Y-32432D01*
X96829Y-32163D02*
X96829Y-32051D01*
X96829Y-32107D02*
X96632Y-32107D01*
X96660Y-32088D01*
X96679Y-32070D01*
X96689Y-32051D01*
X96632Y-32285D02*
X96632Y-32304D01*
X96642Y-32323D01*
X96651Y-32332D01*
X96670Y-32342D01*
X96707Y-32351D01*
X96754Y-32351D01*
X96792Y-32342D01*
X96810Y-32332D01*
X96820Y-32323D01*
X96829Y-32304D01*
X96829Y-32285D01*
X96820Y-32267D01*
X96810Y-32257D01*
X96792Y-32248D01*
X96754Y-32239D01*
X96707Y-32239D01*
X96670Y-32248D01*
X96651Y-32257D01*
X96642Y-32267D01*
X96632Y-32285D01*
X96829Y-32436D02*
X96632Y-32436D01*
X96829Y-32548D02*
X96717Y-32464D01*
X96632Y-32548D02*
X96745Y-32436D01*
M02*
