G04 (created by PCBNEW (2013-07-07 BZR 4022)-stable) date 2020-03-17 3:52:32 PM*
%MOIN*%
G04 Gerber Fmt 3.4, Leading zero omitted, Abs format*
%FSLAX34Y34*%
G01*
G70*
G90*
G04 APERTURE LIST*
%ADD10C,0.00590551*%
%ADD11C,0.0787402*%
%ADD12C,0.16*%
%ADD13R,0.0315X0.0394*%
%ADD14R,0.055X0.035*%
%ADD15R,0.035X0.055*%
%ADD16R,0.06X0.06*%
%ADD17C,0.06*%
%ADD18R,0.126772X0.019685*%
%ADD19C,0.08*%
%ADD20C,0.11811*%
G04 APERTURE END LIST*
G54D10*
G54D11*
X91551Y-51251D03*
X94110Y-51251D03*
X91551Y-53023D03*
X94110Y-53023D03*
X86551Y-51251D03*
X89110Y-51251D03*
X86551Y-53023D03*
X89110Y-53023D03*
G54D12*
X61000Y-25000D03*
X61000Y-35000D03*
X128500Y-25000D03*
X128500Y-35000D03*
G54D13*
X75700Y-25867D03*
X75325Y-26733D03*
X76075Y-26733D03*
G54D14*
X101250Y-30625D03*
X101250Y-29875D03*
X81600Y-34025D03*
X81600Y-34775D03*
X69000Y-30625D03*
X69000Y-29875D03*
X88200Y-44475D03*
X88200Y-43725D03*
X65300Y-30625D03*
X65300Y-29875D03*
X87000Y-44475D03*
X87000Y-43725D03*
X84500Y-38375D03*
X84500Y-37625D03*
X79350Y-34075D03*
X79350Y-34825D03*
G54D15*
X80925Y-31100D03*
X81675Y-31100D03*
G54D14*
X101500Y-34625D03*
X101500Y-35375D03*
X69700Y-36375D03*
X69700Y-35625D03*
X66800Y-36375D03*
X66800Y-35625D03*
X85000Y-27125D03*
X85000Y-27875D03*
X97500Y-34625D03*
X97500Y-35375D03*
X89500Y-31375D03*
X89500Y-30625D03*
X73200Y-35625D03*
X73200Y-36375D03*
G54D15*
X90125Y-35000D03*
X90875Y-35000D03*
X87125Y-35000D03*
X87875Y-35000D03*
G54D16*
X85200Y-48700D03*
G54D17*
X86200Y-48700D03*
X87200Y-48700D03*
G54D16*
X85200Y-47200D03*
G54D17*
X86200Y-47200D03*
X87200Y-47200D03*
G54D16*
X90000Y-48900D03*
G54D17*
X90000Y-47900D03*
X90000Y-46900D03*
G54D16*
X62000Y-46850D03*
G54D17*
X61000Y-46850D03*
G54D18*
X75794Y-33006D03*
X73845Y-33006D03*
X73845Y-29986D03*
X75794Y-29986D03*
X75794Y-29474D03*
X73845Y-29474D03*
X73845Y-30498D03*
X75794Y-30498D03*
X73845Y-31994D03*
X73845Y-32494D03*
X75794Y-32494D03*
X75794Y-31994D03*
X75794Y-31010D03*
X75794Y-31510D03*
X73845Y-31510D03*
X73845Y-31010D03*
G54D19*
X62200Y-38850D03*
X73200Y-38850D03*
X72200Y-38850D03*
X70200Y-38850D03*
X71200Y-38850D03*
X75200Y-38850D03*
X74200Y-38850D03*
X76200Y-38850D03*
X69200Y-38850D03*
X68200Y-38850D03*
X66200Y-38850D03*
X67200Y-38850D03*
X63200Y-38850D03*
X64200Y-38850D03*
X65200Y-38850D03*
X73200Y-44850D03*
X74200Y-44850D03*
X76200Y-44850D03*
X75200Y-44850D03*
X72200Y-44850D03*
X65200Y-44850D03*
X71200Y-44850D03*
X70200Y-44850D03*
X62200Y-44850D03*
X64200Y-44850D03*
X63200Y-44850D03*
X68200Y-44850D03*
X69200Y-44850D03*
X67200Y-44850D03*
X66200Y-44850D03*
G54D16*
X79500Y-38500D03*
G54D17*
X79500Y-39500D03*
X79500Y-40500D03*
X79500Y-41500D03*
X79500Y-42500D03*
X79500Y-43500D03*
X79500Y-44500D03*
X79500Y-45500D03*
G54D16*
X91780Y-39530D03*
G54D17*
X91780Y-40530D03*
X91780Y-41530D03*
X91780Y-42530D03*
G54D16*
X87000Y-25000D03*
G54D17*
X88000Y-25000D03*
X89000Y-25000D03*
G54D16*
X92500Y-25000D03*
G54D17*
X93500Y-25000D03*
X94500Y-25000D03*
G54D16*
X98500Y-25000D03*
G54D17*
X99500Y-25000D03*
X100500Y-25000D03*
G54D16*
X104500Y-25000D03*
G54D17*
X105500Y-25000D03*
X106500Y-25000D03*
G54D16*
X83600Y-52400D03*
G54D17*
X83600Y-51400D03*
X83600Y-50400D03*
G54D16*
X79300Y-54300D03*
X80800Y-54300D03*
X77800Y-52200D03*
X80700Y-52200D03*
X82300Y-52200D03*
X77800Y-54300D03*
X82300Y-54300D03*
X79300Y-52200D03*
X83700Y-54300D03*
X71000Y-24000D03*
G54D17*
X70000Y-24000D03*
X69000Y-24000D03*
X68000Y-24000D03*
X67000Y-24000D03*
X66000Y-24000D03*
X65000Y-24000D03*
G54D20*
X98031Y-40944D03*
X127559Y-40944D03*
X98031Y-53149D03*
X127559Y-53149D03*
G54D16*
X68297Y-46844D03*
G54D17*
X69297Y-46844D03*
G54D16*
X65935Y-46844D03*
G54D17*
X66935Y-46844D03*
G54D16*
X63573Y-46844D03*
G54D17*
X64573Y-46844D03*
G54D14*
X97250Y-32625D03*
X97250Y-31875D03*
M02*
