M48
INCH,TZ
T1C0.025
T2C0.039
T3C0.040
T4C0.050
T5C0.120
%
G90
G05
T1
X64650Y-47950
X67650Y-45450
X67750Y-36050
X67900Y-24900
X68400Y-29300
X68450Y-48350
X68600Y-26350
X69100Y-33200
X69100Y-34100
X69150Y-39800
X69650Y-30450
X69700Y-27450
X69700Y-32600
X69850Y-33950
X70000Y-34450
X70650Y-33150
X70650Y-34750
X70650Y-37250
X70650Y-47550
X71250Y-34150
X71300Y-33150
X71650Y-38250
X71900Y-46250
X72150Y-39800
X72350Y-32100
X72450Y-34600
X72550Y-36050
X72850Y-29450
X72850Y-30050
X72850Y-30950
X72850Y-31900
X72850Y-46650
X73400Y-47050
X73850Y-36000
X73950Y-41100
X74200Y-33600
X74450Y-35000
X74450Y-40500
X74550Y-47100
X74750Y-37250
X74800Y-46250
X75050Y-28850
X75300Y-41900
X75650Y-46250
X75700Y-33450
X75700Y-46750
X75750Y-38250
X75800Y-27300
X75800Y-29050
X76350Y-42950
X76600Y-26550
X76600Y-27250
X76800Y-29550
X76800Y-32350
X76850Y-30050
X76850Y-31100
X77100Y-31900
X77550Y-28800
X77600Y-39000
X77600Y-39800
X77600Y-44200
X77650Y-31900
X77900Y-40700
X78400Y-40600
X78500Y-47450
X78650Y-42350
X78900Y-49400
X79134Y-48800
X79250Y-37250
X79550Y-30300
X79900Y-35400
X80150Y-29700
X80400Y-39550
X80400Y-42400
X80950Y-34450
X81100Y-41950
X81200Y-43800
X81200Y-53200
X81450Y-42850
X81800Y-41150
X82150Y-35350
X82200Y-42150
X82550Y-39350
X82835Y-47126
X83200Y-41950
X83400Y-53200
X83600Y-42950
X83600Y-43950
X83622Y-45118
X84000Y-46000
X84449Y-45472
X85550Y-28450
X85591Y-43543
X85650Y-27700
X86299Y-38898
X86350Y-44300
X86350Y-46150
X86450Y-34300
X86750Y-45200
X86772Y-43071
X88200Y-45150
X88700Y-45050
X88700Y-49800
X88750Y-31500
X88800Y-43150
X88850Y-30650
X89000Y-30050
X89100Y-46600
X89200Y-43500
X89500Y-50600
X90150Y-31200
X90300Y-34350
X90650Y-31150
X90800Y-39950
X90800Y-41150
X90800Y-51650
X91450Y-35550
X91700Y-46200
X93400Y-25900
X96600Y-33300
X98150Y-34000
X101300Y-31200
X101300Y-34050
X101900Y-30450
X102150Y-34800
T2
X86552Y-51252
X86552Y-53023
X89111Y-51252
X89111Y-53023
X91552Y-51252
X91552Y-53023
X94111Y-51252
X94111Y-53023
T3
X61000Y-46850
X62000Y-46850
X63573Y-46844
X64573Y-46844
X65000Y-24000
X65935Y-46844
X66000Y-24000
X66935Y-46844
X67000Y-24000
X68000Y-24000
X68298Y-46844
X69000Y-24000
X69298Y-46844
X70000Y-24000
X71000Y-24000
X77800Y-52200
X77800Y-54300
X79300Y-52200
X79300Y-54300
X79500Y-38500
X79500Y-39500
X79500Y-40500
X79500Y-41500
X79500Y-42500
X79500Y-43500
X79500Y-44500
X79500Y-45500
X80700Y-52200
X80800Y-54300
X82300Y-52200
X82300Y-54300
X83600Y-50400
X83600Y-51400
X83600Y-52400
X83700Y-54300
X85200Y-47200
X85200Y-48700
X86200Y-47200
X86200Y-48700
X87000Y-25000
X87200Y-47200
X87200Y-48700
X88000Y-25000
X89000Y-25000
X90000Y-46900
X90000Y-47900
X90000Y-48900
X91780Y-39530
X91780Y-40530
X91780Y-41530
X91780Y-42530
X92500Y-25000
X93500Y-25000
X94500Y-25000
X98500Y-25000
X99500Y-25000
X100500Y-25000
X104500Y-25000
X105500Y-25000
X106500Y-25000
T4
X62200Y-38850
X62200Y-44850
X63200Y-38850
X63200Y-44850
X64200Y-38850
X64200Y-44850
X65200Y-38850
X65200Y-44850
X66200Y-38850
X66200Y-44850
X67200Y-38850
X67200Y-44850
X68200Y-38850
X68200Y-44850
X69200Y-38850
X69200Y-44850
X70200Y-38850
X70200Y-44850
X71200Y-38850
X71200Y-44850
X72200Y-38850
X72200Y-44850
X73200Y-38850
X73200Y-44850
X74200Y-38850
X74200Y-44850
X75200Y-38850
X75200Y-44850
X76200Y-38850
X76200Y-44850
T5
X61000Y-25000
X61000Y-35000
X128500Y-25000
X128500Y-35000
T0
M30
