G04 (created by PCBNEW (2013-07-07 BZR 4022)-stable) date 2020-03-17 3:52:32 PM*
%MOIN*%
G04 Gerber Fmt 3.4, Leading zero omitted, Abs format*
%FSLAX34Y34*%
G01*
G70*
G90*
G04 APERTURE LIST*
%ADD10C,0.00590551*%
%ADD11C,0.0787402*%
%ADD12C,0.16*%
%ADD13R,0.055X0.035*%
%ADD14R,0.06X0.06*%
%ADD15C,0.06*%
%ADD16C,0.08*%
%ADD17C,0.11811*%
%ADD18R,0.035X0.055*%
G04 APERTURE END LIST*
G54D10*
G54D11*
X91551Y-51251D03*
X94110Y-51251D03*
X91551Y-53023D03*
X94110Y-53023D03*
X86551Y-51251D03*
X89110Y-51251D03*
X86551Y-53023D03*
X89110Y-53023D03*
G54D12*
X61000Y-25000D03*
X61000Y-35000D03*
X128500Y-25000D03*
X128500Y-35000D03*
G54D13*
X79133Y-48800D03*
X79133Y-48050D03*
G54D14*
X85200Y-48700D03*
G54D15*
X86200Y-48700D03*
X87200Y-48700D03*
G54D14*
X85200Y-47200D03*
G54D15*
X86200Y-47200D03*
X87200Y-47200D03*
G54D14*
X90000Y-48900D03*
G54D15*
X90000Y-47900D03*
X90000Y-46900D03*
G54D14*
X62000Y-46850D03*
G54D15*
X61000Y-46850D03*
G54D16*
X62200Y-38850D03*
X73200Y-38850D03*
X72200Y-38850D03*
X70200Y-38850D03*
X71200Y-38850D03*
X75200Y-38850D03*
X74200Y-38850D03*
X76200Y-38850D03*
X69200Y-38850D03*
X68200Y-38850D03*
X66200Y-38850D03*
X67200Y-38850D03*
X63200Y-38850D03*
X64200Y-38850D03*
X65200Y-38850D03*
X73200Y-44850D03*
X74200Y-44850D03*
X76200Y-44850D03*
X75200Y-44850D03*
X72200Y-44850D03*
X65200Y-44850D03*
X71200Y-44850D03*
X70200Y-44850D03*
X62200Y-44850D03*
X64200Y-44850D03*
X63200Y-44850D03*
X68200Y-44850D03*
X69200Y-44850D03*
X67200Y-44850D03*
X66200Y-44850D03*
G54D14*
X79500Y-38500D03*
G54D15*
X79500Y-39500D03*
X79500Y-40500D03*
X79500Y-41500D03*
X79500Y-42500D03*
X79500Y-43500D03*
X79500Y-44500D03*
X79500Y-45500D03*
G54D14*
X91780Y-39530D03*
G54D15*
X91780Y-40530D03*
X91780Y-41530D03*
X91780Y-42530D03*
G54D14*
X87000Y-25000D03*
G54D15*
X88000Y-25000D03*
X89000Y-25000D03*
G54D14*
X92500Y-25000D03*
G54D15*
X93500Y-25000D03*
X94500Y-25000D03*
G54D14*
X98500Y-25000D03*
G54D15*
X99500Y-25000D03*
X100500Y-25000D03*
G54D14*
X104500Y-25000D03*
G54D15*
X105500Y-25000D03*
X106500Y-25000D03*
G54D14*
X83600Y-52400D03*
G54D15*
X83600Y-51400D03*
X83600Y-50400D03*
G54D14*
X79300Y-54300D03*
X80800Y-54300D03*
X77800Y-52200D03*
X80700Y-52200D03*
X82300Y-52200D03*
X77800Y-54300D03*
X82300Y-54300D03*
X79300Y-52200D03*
X83700Y-54300D03*
X71000Y-24000D03*
G54D15*
X70000Y-24000D03*
X69000Y-24000D03*
X68000Y-24000D03*
X67000Y-24000D03*
X66000Y-24000D03*
X65000Y-24000D03*
G54D17*
X98031Y-40944D03*
X127559Y-40944D03*
X98031Y-53149D03*
X127559Y-53149D03*
G54D14*
X68297Y-46844D03*
G54D15*
X69297Y-46844D03*
G54D14*
X65935Y-46844D03*
G54D15*
X66935Y-46844D03*
G54D14*
X63573Y-46844D03*
G54D15*
X64573Y-46844D03*
G54D18*
X70555Y-46860D03*
X71305Y-46860D03*
M02*
