G04 (created by PCBNEW (2013-07-07 BZR 4022)-stable) date 2020-03-17 3:52:32 PM*
%MOIN*%
G04 Gerber Fmt 3.4, Leading zero omitted, Abs format*
%FSLAX34Y34*%
G01*
G70*
G90*
G04 APERTURE LIST*
%ADD10C,0.00590551*%
%ADD11C,0.00787402*%
%ADD12C,0.011811*%
%ADD13C,0.015*%
%ADD14C,0.0039*%
%ADD15C,0.006*%
%ADD16C,0.01*%
%ADD17C,0.0043*%
%ADD18C,0.008*%
G04 APERTURE END LIST*
G54D10*
G54D11*
X70662Y-47887D02*
X70531Y-47700D01*
X70437Y-47887D02*
X70437Y-47494D01*
X70587Y-47494D01*
X70625Y-47512D01*
X70643Y-47531D01*
X70662Y-47568D01*
X70662Y-47625D01*
X70643Y-47662D01*
X70625Y-47681D01*
X70587Y-47700D01*
X70437Y-47700D01*
X71000Y-47887D02*
X71000Y-47681D01*
X70981Y-47643D01*
X70943Y-47625D01*
X70868Y-47625D01*
X70831Y-47643D01*
X71000Y-47868D02*
X70962Y-47887D01*
X70868Y-47887D01*
X70831Y-47868D01*
X70812Y-47831D01*
X70812Y-47793D01*
X70831Y-47756D01*
X70868Y-47737D01*
X70962Y-47737D01*
X71000Y-47718D01*
X71131Y-47625D02*
X71281Y-47625D01*
X71187Y-47494D02*
X71187Y-47831D01*
X71206Y-47868D01*
X71243Y-47887D01*
X71281Y-47887D01*
X71562Y-47868D02*
X71524Y-47887D01*
X71449Y-47887D01*
X71412Y-47868D01*
X71393Y-47831D01*
X71393Y-47681D01*
X71412Y-47643D01*
X71449Y-47625D01*
X71524Y-47625D01*
X71562Y-47643D01*
X71581Y-47681D01*
X71581Y-47718D01*
X71393Y-47756D01*
X68323Y-47537D02*
X68567Y-47537D01*
X68436Y-47687D01*
X68492Y-47687D01*
X68529Y-47706D01*
X68548Y-47724D01*
X68567Y-47762D01*
X68567Y-47856D01*
X68548Y-47893D01*
X68529Y-47912D01*
X68492Y-47931D01*
X68379Y-47931D01*
X68342Y-47912D01*
X68323Y-47893D01*
X68679Y-47537D02*
X68811Y-47931D01*
X68942Y-47537D01*
X69035Y-47537D02*
X69279Y-47537D01*
X69148Y-47687D01*
X69204Y-47687D01*
X69242Y-47706D01*
X69260Y-47724D01*
X69279Y-47762D01*
X69279Y-47856D01*
X69260Y-47893D01*
X69242Y-47912D01*
X69204Y-47931D01*
X69092Y-47931D01*
X69054Y-47912D01*
X69035Y-47893D01*
X66436Y-47525D02*
X66249Y-47525D01*
X66230Y-47712D01*
X66249Y-47694D01*
X66286Y-47675D01*
X66380Y-47675D01*
X66418Y-47694D01*
X66436Y-47712D01*
X66455Y-47750D01*
X66455Y-47844D01*
X66436Y-47881D01*
X66418Y-47900D01*
X66380Y-47919D01*
X66286Y-47919D01*
X66249Y-47900D01*
X66230Y-47881D01*
X66568Y-47525D02*
X66699Y-47919D01*
X66830Y-47525D01*
X63282Y-47681D02*
X63339Y-47700D01*
X63357Y-47718D01*
X63376Y-47756D01*
X63376Y-47812D01*
X63357Y-47850D01*
X63339Y-47868D01*
X63301Y-47887D01*
X63151Y-47887D01*
X63151Y-47494D01*
X63282Y-47494D01*
X63320Y-47512D01*
X63339Y-47531D01*
X63357Y-47568D01*
X63357Y-47606D01*
X63339Y-47643D01*
X63320Y-47662D01*
X63282Y-47681D01*
X63151Y-47681D01*
X63714Y-47887D02*
X63714Y-47681D01*
X63695Y-47643D01*
X63657Y-47625D01*
X63582Y-47625D01*
X63545Y-47643D01*
X63714Y-47868D02*
X63676Y-47887D01*
X63582Y-47887D01*
X63545Y-47868D01*
X63526Y-47831D01*
X63526Y-47793D01*
X63545Y-47756D01*
X63582Y-47737D01*
X63676Y-47737D01*
X63714Y-47718D01*
X63845Y-47625D02*
X63995Y-47625D01*
X63901Y-47494D02*
X63901Y-47831D01*
X63920Y-47868D01*
X63957Y-47887D01*
X63995Y-47887D01*
X64070Y-47625D02*
X64220Y-47625D01*
X64126Y-47494D02*
X64126Y-47831D01*
X64145Y-47868D01*
X64182Y-47887D01*
X64220Y-47887D01*
X64501Y-47868D02*
X64464Y-47887D01*
X64389Y-47887D01*
X64351Y-47868D01*
X64332Y-47831D01*
X64332Y-47681D01*
X64351Y-47643D01*
X64389Y-47625D01*
X64464Y-47625D01*
X64501Y-47643D01*
X64520Y-47681D01*
X64520Y-47718D01*
X64332Y-47756D01*
X64688Y-47887D02*
X64688Y-47625D01*
X64688Y-47700D02*
X64707Y-47662D01*
X64726Y-47643D01*
X64763Y-47625D01*
X64801Y-47625D01*
X64895Y-47625D02*
X64988Y-47887D01*
X65082Y-47625D02*
X64988Y-47887D01*
X64951Y-47981D01*
X64932Y-48000D01*
X64895Y-48018D01*
G54D12*
X86850Y-54038D02*
X87187Y-54038D01*
X87019Y-54628D02*
X87019Y-54038D01*
X87356Y-54460D02*
X87637Y-54460D01*
X87300Y-54628D02*
X87497Y-54038D01*
X87694Y-54628D01*
X88228Y-54628D02*
X88031Y-54347D01*
X87890Y-54628D02*
X87890Y-54038D01*
X88115Y-54038D01*
X88172Y-54066D01*
X88200Y-54094D01*
X88228Y-54150D01*
X88228Y-54235D01*
X88200Y-54291D01*
X88172Y-54319D01*
X88115Y-54347D01*
X87890Y-54347D01*
X88481Y-54319D02*
X88678Y-54319D01*
X88762Y-54628D02*
X88481Y-54628D01*
X88481Y-54038D01*
X88762Y-54038D01*
X91567Y-54644D02*
X91286Y-54644D01*
X91286Y-54053D01*
X92101Y-54588D02*
X92073Y-54616D01*
X91989Y-54644D01*
X91933Y-54644D01*
X91848Y-54616D01*
X91792Y-54560D01*
X91764Y-54503D01*
X91736Y-54391D01*
X91736Y-54307D01*
X91764Y-54194D01*
X91792Y-54138D01*
X91848Y-54082D01*
X91933Y-54053D01*
X91989Y-54053D01*
X92073Y-54082D01*
X92101Y-54110D01*
X92354Y-54644D02*
X92354Y-54053D01*
X92495Y-54053D01*
X92579Y-54082D01*
X92636Y-54138D01*
X92664Y-54194D01*
X92692Y-54307D01*
X92692Y-54391D01*
X92664Y-54503D01*
X92636Y-54560D01*
X92579Y-54616D01*
X92495Y-54644D01*
X92354Y-54644D01*
X93507Y-54053D02*
X93620Y-54053D01*
X93676Y-54082D01*
X93732Y-54138D01*
X93760Y-54250D01*
X93760Y-54447D01*
X93732Y-54560D01*
X93676Y-54616D01*
X93620Y-54644D01*
X93507Y-54644D01*
X93451Y-54616D01*
X93395Y-54560D01*
X93367Y-54447D01*
X93367Y-54250D01*
X93395Y-54138D01*
X93451Y-54082D01*
X93507Y-54053D01*
X94014Y-54644D02*
X94014Y-54053D01*
X94351Y-54644D01*
X94351Y-54053D01*
X90812Y-47548D02*
X91009Y-48139D01*
X91206Y-47548D01*
X91740Y-48082D02*
X91712Y-48110D01*
X91628Y-48139D01*
X91571Y-48139D01*
X91487Y-48110D01*
X91431Y-48054D01*
X91403Y-47998D01*
X91375Y-47885D01*
X91375Y-47801D01*
X91403Y-47689D01*
X91431Y-47632D01*
X91487Y-47576D01*
X91571Y-47548D01*
X91628Y-47548D01*
X91712Y-47576D01*
X91740Y-47604D01*
X92331Y-48082D02*
X92303Y-48110D01*
X92218Y-48139D01*
X92162Y-48139D01*
X92078Y-48110D01*
X92021Y-48054D01*
X91993Y-47998D01*
X91965Y-47885D01*
X91965Y-47801D01*
X91993Y-47689D01*
X92021Y-47632D01*
X92078Y-47576D01*
X92162Y-47548D01*
X92218Y-47548D01*
X92303Y-47576D01*
X92331Y-47604D01*
X61014Y-48063D02*
X61014Y-47613D01*
X61958Y-48063D02*
X61958Y-47613D01*
X62183Y-47838D02*
X61733Y-47838D01*
X91287Y-48648D02*
X91006Y-48648D01*
X90978Y-48929D01*
X91006Y-48901D01*
X91062Y-48873D01*
X91203Y-48873D01*
X91259Y-48901D01*
X91287Y-48929D01*
X91315Y-48985D01*
X91315Y-49126D01*
X91287Y-49182D01*
X91259Y-49210D01*
X91203Y-49239D01*
X91062Y-49239D01*
X91006Y-49210D01*
X90978Y-49182D01*
X91484Y-48648D02*
X91681Y-49239D01*
X91878Y-48648D01*
X90868Y-46448D02*
X91234Y-46448D01*
X91037Y-46673D01*
X91121Y-46673D01*
X91178Y-46701D01*
X91206Y-46729D01*
X91234Y-46785D01*
X91234Y-46926D01*
X91206Y-46982D01*
X91178Y-47010D01*
X91121Y-47039D01*
X90953Y-47039D01*
X90896Y-47010D01*
X90868Y-46982D01*
X91403Y-46448D02*
X91600Y-47039D01*
X91796Y-46448D01*
X91937Y-46448D02*
X92303Y-46448D01*
X92106Y-46673D01*
X92190Y-46673D01*
X92246Y-46701D01*
X92274Y-46729D01*
X92303Y-46785D01*
X92303Y-46926D01*
X92274Y-46982D01*
X92246Y-47010D01*
X92190Y-47039D01*
X92021Y-47039D01*
X91965Y-47010D01*
X91937Y-46982D01*
X88582Y-48687D02*
X88610Y-48715D01*
X88639Y-48799D01*
X88639Y-48856D01*
X88610Y-48940D01*
X88554Y-48996D01*
X88498Y-49024D01*
X88385Y-49052D01*
X88301Y-49052D01*
X88189Y-49024D01*
X88132Y-48996D01*
X88076Y-48940D01*
X88048Y-48856D01*
X88048Y-48799D01*
X88076Y-48715D01*
X88104Y-48687D01*
X88639Y-48434D02*
X88048Y-48434D01*
X88329Y-48434D02*
X88329Y-48096D01*
X88639Y-48096D02*
X88048Y-48096D01*
X88414Y-47815D02*
X88414Y-47365D01*
X88329Y-46887D02*
X88357Y-46803D01*
X88385Y-46775D01*
X88442Y-46747D01*
X88526Y-46747D01*
X88582Y-46775D01*
X88610Y-46803D01*
X88639Y-46859D01*
X88639Y-47084D01*
X88048Y-47084D01*
X88048Y-46887D01*
X88076Y-46831D01*
X88104Y-46803D01*
X88160Y-46775D01*
X88217Y-46775D01*
X88273Y-46803D01*
X88301Y-46831D01*
X88329Y-46887D01*
X88329Y-47084D01*
X84182Y-48745D02*
X84210Y-48773D01*
X84239Y-48857D01*
X84239Y-48913D01*
X84210Y-48998D01*
X84154Y-49054D01*
X84098Y-49082D01*
X83985Y-49110D01*
X83901Y-49110D01*
X83789Y-49082D01*
X83732Y-49054D01*
X83676Y-48998D01*
X83648Y-48913D01*
X83648Y-48857D01*
X83676Y-48773D01*
X83704Y-48745D01*
X84239Y-48492D02*
X83648Y-48492D01*
X83929Y-48492D02*
X83929Y-48154D01*
X84239Y-48154D02*
X83648Y-48154D01*
X84014Y-47873D02*
X84014Y-47423D01*
X84070Y-47170D02*
X84070Y-46889D01*
X84239Y-47226D02*
X83648Y-47029D01*
X84239Y-46832D01*
X80215Y-45739D02*
X80215Y-45148D01*
X80496Y-45739D02*
X80496Y-45148D01*
X80834Y-45739D01*
X80834Y-45148D01*
X81031Y-45148D02*
X81368Y-45148D01*
X81199Y-45739D02*
X81199Y-45148D01*
X80281Y-40722D02*
X80365Y-40750D01*
X80506Y-40750D01*
X80562Y-40722D01*
X80590Y-40694D01*
X80618Y-40638D01*
X80618Y-40582D01*
X80590Y-40525D01*
X80562Y-40497D01*
X80506Y-40469D01*
X80393Y-40441D01*
X80337Y-40413D01*
X80309Y-40385D01*
X80281Y-40329D01*
X80281Y-40272D01*
X80309Y-40216D01*
X80337Y-40188D01*
X80393Y-40160D01*
X80534Y-40160D01*
X80618Y-40188D01*
X81209Y-40694D02*
X81181Y-40722D01*
X81096Y-40750D01*
X81040Y-40750D01*
X80956Y-40722D01*
X80899Y-40666D01*
X80871Y-40610D01*
X80843Y-40497D01*
X80843Y-40413D01*
X80871Y-40300D01*
X80899Y-40244D01*
X80956Y-40188D01*
X81040Y-40160D01*
X81096Y-40160D01*
X81181Y-40188D01*
X81209Y-40216D01*
X81743Y-40750D02*
X81462Y-40750D01*
X81462Y-40160D01*
X80267Y-41667D02*
X80351Y-41695D01*
X80492Y-41695D01*
X80548Y-41667D01*
X80576Y-41639D01*
X80604Y-41583D01*
X80604Y-41526D01*
X80576Y-41470D01*
X80548Y-41442D01*
X80492Y-41414D01*
X80379Y-41386D01*
X80323Y-41358D01*
X80295Y-41330D01*
X80267Y-41273D01*
X80267Y-41217D01*
X80295Y-41161D01*
X80323Y-41133D01*
X80379Y-41105D01*
X80520Y-41105D01*
X80604Y-41133D01*
X80857Y-41695D02*
X80857Y-41105D01*
X80998Y-41105D01*
X81082Y-41133D01*
X81138Y-41189D01*
X81167Y-41245D01*
X81195Y-41358D01*
X81195Y-41442D01*
X81167Y-41555D01*
X81138Y-41611D01*
X81082Y-41667D01*
X80998Y-41695D01*
X80857Y-41695D01*
X81420Y-41526D02*
X81701Y-41526D01*
X81363Y-41695D02*
X81560Y-41105D01*
X81757Y-41695D01*
X80550Y-39176D02*
X80493Y-39148D01*
X80409Y-39148D01*
X80325Y-39176D01*
X80268Y-39232D01*
X80240Y-39289D01*
X80212Y-39401D01*
X80212Y-39485D01*
X80240Y-39598D01*
X80268Y-39654D01*
X80325Y-39710D01*
X80409Y-39739D01*
X80465Y-39739D01*
X80550Y-39710D01*
X80578Y-39682D01*
X80578Y-39485D01*
X80465Y-39485D01*
X80831Y-39739D02*
X80831Y-39148D01*
X81168Y-39739D01*
X81168Y-39148D01*
X81449Y-39739D02*
X81449Y-39148D01*
X81590Y-39148D01*
X81674Y-39176D01*
X81731Y-39232D01*
X81759Y-39289D01*
X81787Y-39401D01*
X81787Y-39485D01*
X81759Y-39598D01*
X81731Y-39654D01*
X81674Y-39710D01*
X81590Y-39739D01*
X81449Y-39739D01*
X80268Y-38148D02*
X80634Y-38148D01*
X80437Y-38373D01*
X80521Y-38373D01*
X80578Y-38401D01*
X80606Y-38429D01*
X80634Y-38485D01*
X80634Y-38626D01*
X80606Y-38682D01*
X80578Y-38710D01*
X80521Y-38739D01*
X80353Y-38739D01*
X80296Y-38710D01*
X80268Y-38682D01*
X80803Y-38148D02*
X81000Y-38739D01*
X81196Y-38148D01*
X81337Y-38148D02*
X81703Y-38148D01*
X81506Y-38373D01*
X81590Y-38373D01*
X81646Y-38401D01*
X81674Y-38429D01*
X81703Y-38485D01*
X81703Y-38626D01*
X81674Y-38682D01*
X81646Y-38710D01*
X81590Y-38739D01*
X81421Y-38739D01*
X81365Y-38710D01*
X81337Y-38682D01*
X91432Y-38659D02*
X91151Y-38659D01*
X91151Y-38068D01*
X91966Y-38602D02*
X91938Y-38630D01*
X91854Y-38659D01*
X91797Y-38659D01*
X91713Y-38630D01*
X91657Y-38574D01*
X91629Y-38518D01*
X91600Y-38405D01*
X91600Y-38321D01*
X91629Y-38209D01*
X91657Y-38152D01*
X91713Y-38096D01*
X91797Y-38068D01*
X91854Y-38068D01*
X91938Y-38096D01*
X91966Y-38124D01*
X92219Y-38659D02*
X92219Y-38068D01*
X92360Y-38068D01*
X92444Y-38096D01*
X92500Y-38152D01*
X92528Y-38209D01*
X92557Y-38321D01*
X92557Y-38405D01*
X92528Y-38518D01*
X92500Y-38574D01*
X92444Y-38630D01*
X92360Y-38659D01*
X92219Y-38659D01*
X92935Y-39204D02*
X92879Y-39176D01*
X92795Y-39176D01*
X92710Y-39204D01*
X92654Y-39260D01*
X92626Y-39316D01*
X92598Y-39429D01*
X92598Y-39513D01*
X92626Y-39625D01*
X92654Y-39682D01*
X92710Y-39738D01*
X92795Y-39766D01*
X92851Y-39766D01*
X92935Y-39738D01*
X92964Y-39710D01*
X92964Y-39513D01*
X92851Y-39513D01*
X93217Y-39766D02*
X93217Y-39176D01*
X93554Y-39766D01*
X93554Y-39176D01*
X93835Y-39766D02*
X93835Y-39176D01*
X93976Y-39176D01*
X94060Y-39204D01*
X94116Y-39260D01*
X94145Y-39316D01*
X94173Y-39429D01*
X94173Y-39513D01*
X94145Y-39625D01*
X94116Y-39682D01*
X94060Y-39738D01*
X93976Y-39766D01*
X93835Y-39766D01*
X93115Y-40199D02*
X92834Y-40199D01*
X92806Y-40480D01*
X92834Y-40452D01*
X92890Y-40424D01*
X93031Y-40424D01*
X93087Y-40452D01*
X93115Y-40480D01*
X93143Y-40537D01*
X93143Y-40677D01*
X93115Y-40733D01*
X93087Y-40762D01*
X93031Y-40790D01*
X92890Y-40790D01*
X92834Y-40762D01*
X92806Y-40733D01*
X93312Y-40199D02*
X93509Y-40790D01*
X93706Y-40199D01*
X92604Y-42809D02*
X92688Y-42837D01*
X92829Y-42837D01*
X92885Y-42809D01*
X92913Y-42781D01*
X92941Y-42724D01*
X92941Y-42668D01*
X92913Y-42612D01*
X92885Y-42584D01*
X92829Y-42556D01*
X92716Y-42528D01*
X92660Y-42500D01*
X92632Y-42471D01*
X92604Y-42415D01*
X92604Y-42359D01*
X92632Y-42303D01*
X92660Y-42275D01*
X92716Y-42246D01*
X92857Y-42246D01*
X92941Y-42275D01*
X93532Y-42781D02*
X93503Y-42809D01*
X93419Y-42837D01*
X93363Y-42837D01*
X93278Y-42809D01*
X93222Y-42753D01*
X93194Y-42696D01*
X93166Y-42584D01*
X93166Y-42500D01*
X93194Y-42387D01*
X93222Y-42331D01*
X93278Y-42275D01*
X93363Y-42246D01*
X93419Y-42246D01*
X93503Y-42275D01*
X93532Y-42303D01*
X94066Y-42837D02*
X93785Y-42837D01*
X93785Y-42246D01*
X92629Y-41746D02*
X92713Y-41774D01*
X92854Y-41774D01*
X92910Y-41746D01*
X92938Y-41718D01*
X92966Y-41661D01*
X92966Y-41605D01*
X92938Y-41549D01*
X92910Y-41521D01*
X92854Y-41493D01*
X92741Y-41465D01*
X92685Y-41437D01*
X92657Y-41408D01*
X92629Y-41352D01*
X92629Y-41296D01*
X92657Y-41240D01*
X92685Y-41212D01*
X92741Y-41183D01*
X92882Y-41183D01*
X92966Y-41212D01*
X93219Y-41774D02*
X93219Y-41183D01*
X93360Y-41183D01*
X93444Y-41212D01*
X93501Y-41268D01*
X93529Y-41324D01*
X93557Y-41437D01*
X93557Y-41521D01*
X93529Y-41633D01*
X93501Y-41690D01*
X93444Y-41746D01*
X93360Y-41774D01*
X93219Y-41774D01*
X93782Y-41605D02*
X94063Y-41605D01*
X93726Y-41774D02*
X93922Y-41183D01*
X94119Y-41774D01*
G54D13*
X61900Y-25000D02*
G75*
G03X61900Y-25000I-900J0D01*
G74*
G01*
X61900Y-35000D02*
G75*
G03X61900Y-35000I-900J0D01*
G74*
G01*
X129400Y-25000D02*
G75*
G03X129400Y-25000I-900J0D01*
G74*
G01*
X129400Y-35000D02*
G75*
G03X129400Y-35000I-900J0D01*
G74*
G01*
G54D14*
X79483Y-49075D02*
G75*
G03X79483Y-49075I-50J0D01*
G74*
G01*
X79433Y-48625D02*
X79433Y-49025D01*
X79433Y-49025D02*
X78833Y-49025D01*
X78833Y-49025D02*
X78833Y-48625D01*
X78833Y-48225D02*
X78833Y-47825D01*
X78833Y-47825D02*
X79433Y-47825D01*
X79433Y-47825D02*
X79433Y-48225D01*
G54D15*
X84700Y-49200D02*
X84700Y-48200D01*
X84700Y-48200D02*
X87700Y-48200D01*
X87700Y-48200D02*
X87700Y-49200D01*
X87700Y-49200D02*
X84700Y-49200D01*
X85700Y-48200D02*
X85700Y-49200D01*
X84700Y-47700D02*
X84700Y-46700D01*
X84700Y-46700D02*
X87700Y-46700D01*
X87700Y-46700D02*
X87700Y-47700D01*
X87700Y-47700D02*
X84700Y-47700D01*
X85700Y-46700D02*
X85700Y-47700D01*
X90500Y-49400D02*
X89500Y-49400D01*
X89500Y-49400D02*
X89500Y-46400D01*
X89500Y-46400D02*
X90500Y-46400D01*
X90500Y-46400D02*
X90500Y-49400D01*
X89500Y-48400D02*
X90500Y-48400D01*
X62500Y-46350D02*
X62500Y-47350D01*
X62500Y-47350D02*
X60500Y-47350D01*
X60500Y-47350D02*
X60500Y-46350D01*
X60500Y-46350D02*
X62500Y-46350D01*
G54D10*
X77200Y-45850D02*
X61200Y-45850D01*
X61200Y-45850D02*
X61200Y-37850D01*
X61200Y-37850D02*
X77200Y-37850D01*
X77200Y-37850D02*
X77200Y-45850D01*
X79100Y-45900D02*
X80000Y-45900D01*
X80000Y-45900D02*
X80000Y-38000D01*
X80000Y-38000D02*
X79100Y-38000D01*
X79100Y-38000D02*
X79100Y-38100D01*
X79100Y-45900D02*
X79100Y-38100D01*
G54D16*
X91280Y-43030D02*
X91280Y-39030D01*
X92280Y-43030D02*
X92280Y-39030D01*
X92280Y-39030D02*
X91280Y-39030D01*
X91280Y-43030D02*
X92280Y-43030D01*
G54D15*
X86500Y-25500D02*
X86500Y-24500D01*
X86500Y-24500D02*
X89500Y-24500D01*
X89500Y-24500D02*
X89500Y-25500D01*
X89500Y-25500D02*
X86500Y-25500D01*
X87500Y-24500D02*
X87500Y-25500D01*
X92000Y-25500D02*
X92000Y-24500D01*
X92000Y-24500D02*
X95000Y-24500D01*
X95000Y-24500D02*
X95000Y-25500D01*
X95000Y-25500D02*
X92000Y-25500D01*
X93000Y-24500D02*
X93000Y-25500D01*
X98000Y-25500D02*
X98000Y-24500D01*
X98000Y-24500D02*
X101000Y-24500D01*
X101000Y-24500D02*
X101000Y-25500D01*
X101000Y-25500D02*
X98000Y-25500D01*
X99000Y-24500D02*
X99000Y-25500D01*
X104000Y-25500D02*
X104000Y-24500D01*
X104000Y-24500D02*
X107000Y-24500D01*
X107000Y-24500D02*
X107000Y-25500D01*
X107000Y-25500D02*
X104000Y-25500D01*
X105000Y-24500D02*
X105000Y-25500D01*
X79800Y-54800D02*
X78800Y-54800D01*
X78800Y-53800D02*
X79800Y-53800D01*
X78800Y-54800D02*
X78800Y-53800D01*
X79800Y-53800D02*
X79800Y-54800D01*
X81300Y-54800D02*
X80300Y-54800D01*
X80300Y-53800D02*
X81300Y-53800D01*
X80300Y-54800D02*
X80300Y-53800D01*
X81300Y-53800D02*
X81300Y-54800D01*
X78300Y-52700D02*
X77300Y-52700D01*
X77300Y-51700D02*
X78300Y-51700D01*
X77300Y-52700D02*
X77300Y-51700D01*
X78300Y-51700D02*
X78300Y-52700D01*
X81200Y-52700D02*
X80200Y-52700D01*
X80200Y-51700D02*
X81200Y-51700D01*
X80200Y-52700D02*
X80200Y-51700D01*
X81200Y-51700D02*
X81200Y-52700D01*
X82800Y-52700D02*
X81800Y-52700D01*
X81800Y-51700D02*
X82800Y-51700D01*
X81800Y-52700D02*
X81800Y-51700D01*
X82800Y-51700D02*
X82800Y-52700D01*
X78300Y-54800D02*
X77300Y-54800D01*
X77300Y-53800D02*
X78300Y-53800D01*
X77300Y-54800D02*
X77300Y-53800D01*
X78300Y-53800D02*
X78300Y-54800D01*
X82800Y-54800D02*
X81800Y-54800D01*
X81800Y-53800D02*
X82800Y-53800D01*
X81800Y-54800D02*
X81800Y-53800D01*
X82800Y-53800D02*
X82800Y-54800D01*
X79800Y-52700D02*
X78800Y-52700D01*
X78800Y-51700D02*
X79800Y-51700D01*
X78800Y-52700D02*
X78800Y-51700D01*
X79800Y-51700D02*
X79800Y-52700D01*
X84200Y-54800D02*
X83200Y-54800D01*
X83200Y-53800D02*
X84200Y-53800D01*
X83200Y-54800D02*
X83200Y-53800D01*
X84200Y-53800D02*
X84200Y-54800D01*
G54D10*
X63600Y-23600D02*
X63600Y-24500D01*
X63600Y-24500D02*
X71500Y-24500D01*
X71500Y-24500D02*
X71500Y-23600D01*
X71500Y-23600D02*
X71400Y-23600D01*
X63600Y-23600D02*
X71400Y-23600D01*
X96062Y-38976D02*
X129527Y-38976D01*
X129527Y-38976D02*
X129527Y-54724D01*
X129527Y-54724D02*
X96062Y-54724D01*
X96062Y-54724D02*
X96062Y-38976D01*
G54D15*
X67797Y-47344D02*
X67797Y-46344D01*
X67797Y-46344D02*
X69797Y-46344D01*
X69797Y-46344D02*
X69797Y-47344D01*
X69797Y-47344D02*
X67797Y-47344D01*
X65435Y-47344D02*
X65435Y-46344D01*
X65435Y-46344D02*
X67435Y-46344D01*
X67435Y-46344D02*
X67435Y-47344D01*
X67435Y-47344D02*
X65435Y-47344D01*
X63073Y-47344D02*
X63073Y-46344D01*
X63073Y-46344D02*
X65073Y-46344D01*
X65073Y-46344D02*
X65073Y-47344D01*
X65073Y-47344D02*
X63073Y-47344D01*
G54D14*
X70330Y-47160D02*
G75*
G03X70330Y-47160I-50J0D01*
G74*
G01*
X70730Y-47160D02*
X70330Y-47160D01*
X70330Y-47160D02*
X70330Y-46560D01*
X70330Y-46560D02*
X70730Y-46560D01*
X71130Y-46560D02*
X71530Y-46560D01*
X71530Y-46560D02*
X71530Y-47160D01*
X71530Y-47160D02*
X71130Y-47160D01*
G54D10*
X92542Y-50230D02*
X92598Y-50249D01*
X92692Y-50249D01*
X92729Y-50230D01*
X92748Y-50212D01*
X92767Y-50174D01*
X92767Y-50137D01*
X92748Y-50099D01*
X92729Y-50080D01*
X92692Y-50062D01*
X92617Y-50043D01*
X92579Y-50024D01*
X92561Y-50005D01*
X92542Y-49968D01*
X92542Y-49930D01*
X92561Y-49893D01*
X92579Y-49874D01*
X92617Y-49855D01*
X92711Y-49855D01*
X92767Y-49874D01*
X92898Y-49855D02*
X92992Y-50249D01*
X93067Y-49968D01*
X93142Y-50249D01*
X93236Y-49855D01*
X93592Y-50249D02*
X93367Y-50249D01*
X93479Y-50249D02*
X93479Y-49855D01*
X93442Y-49912D01*
X93404Y-49949D01*
X93367Y-49968D01*
X87542Y-50230D02*
X87598Y-50249D01*
X87692Y-50249D01*
X87729Y-50230D01*
X87748Y-50212D01*
X87767Y-50174D01*
X87767Y-50137D01*
X87748Y-50099D01*
X87729Y-50080D01*
X87692Y-50062D01*
X87617Y-50043D01*
X87579Y-50024D01*
X87561Y-50005D01*
X87542Y-49968D01*
X87542Y-49930D01*
X87561Y-49893D01*
X87579Y-49874D01*
X87617Y-49855D01*
X87711Y-49855D01*
X87767Y-49874D01*
X87898Y-49855D02*
X87992Y-50249D01*
X88067Y-49968D01*
X88142Y-50249D01*
X88236Y-49855D01*
X88367Y-49893D02*
X88386Y-49874D01*
X88423Y-49855D01*
X88517Y-49855D01*
X88554Y-49874D01*
X88573Y-49893D01*
X88592Y-49930D01*
X88592Y-49968D01*
X88573Y-50024D01*
X88348Y-50249D01*
X88592Y-50249D01*
G54D17*
X78829Y-48595D02*
X78632Y-48595D01*
X78632Y-48548D01*
X78642Y-48520D01*
X78660Y-48501D01*
X78679Y-48492D01*
X78717Y-48482D01*
X78745Y-48482D01*
X78782Y-48492D01*
X78801Y-48501D01*
X78820Y-48520D01*
X78829Y-48548D01*
X78829Y-48595D01*
X78829Y-48295D02*
X78829Y-48407D01*
X78829Y-48351D02*
X78632Y-48351D01*
X78660Y-48370D01*
X78679Y-48389D01*
X78689Y-48407D01*
X79779Y-48526D02*
X79779Y-48620D01*
X79582Y-48620D01*
X79676Y-48460D02*
X79676Y-48395D01*
X79779Y-48367D02*
X79779Y-48460D01*
X79582Y-48460D01*
X79582Y-48367D01*
X79779Y-48282D02*
X79582Y-48282D01*
X79582Y-48235D01*
X79592Y-48207D01*
X79610Y-48188D01*
X79629Y-48179D01*
X79667Y-48170D01*
X79695Y-48170D01*
X79732Y-48179D01*
X79751Y-48188D01*
X79770Y-48207D01*
X79779Y-48235D01*
X79779Y-48282D01*
G54D15*
X84616Y-49461D02*
X84616Y-49747D01*
X84597Y-49804D01*
X84559Y-49842D01*
X84502Y-49861D01*
X84464Y-49861D01*
X84807Y-49861D02*
X84807Y-49461D01*
X84959Y-49461D01*
X84997Y-49480D01*
X85016Y-49500D01*
X85035Y-49538D01*
X85035Y-49595D01*
X85016Y-49633D01*
X84997Y-49652D01*
X84959Y-49671D01*
X84807Y-49671D01*
X85416Y-49861D02*
X85188Y-49861D01*
X85302Y-49861D02*
X85302Y-49461D01*
X85264Y-49519D01*
X85226Y-49557D01*
X85188Y-49576D01*
X86966Y-46061D02*
X86966Y-46347D01*
X86947Y-46404D01*
X86909Y-46442D01*
X86852Y-46461D01*
X86814Y-46461D01*
X87157Y-46461D02*
X87157Y-46061D01*
X87309Y-46061D01*
X87347Y-46080D01*
X87366Y-46100D01*
X87385Y-46138D01*
X87385Y-46195D01*
X87366Y-46233D01*
X87347Y-46252D01*
X87309Y-46271D01*
X87157Y-46271D01*
X87538Y-46100D02*
X87557Y-46080D01*
X87595Y-46061D01*
X87690Y-46061D01*
X87728Y-46080D01*
X87747Y-46100D01*
X87766Y-46138D01*
X87766Y-46176D01*
X87747Y-46233D01*
X87519Y-46461D01*
X87766Y-46461D01*
X88911Y-48133D02*
X89197Y-48133D01*
X89254Y-48152D01*
X89292Y-48190D01*
X89311Y-48247D01*
X89311Y-48285D01*
X89311Y-47942D02*
X88911Y-47942D01*
X88911Y-47790D01*
X88930Y-47752D01*
X88950Y-47733D01*
X88988Y-47714D01*
X89045Y-47714D01*
X89083Y-47733D01*
X89102Y-47752D01*
X89121Y-47790D01*
X89121Y-47942D01*
X88911Y-47580D02*
X88911Y-47333D01*
X89064Y-47466D01*
X89064Y-47409D01*
X89083Y-47371D01*
X89102Y-47352D01*
X89140Y-47333D01*
X89235Y-47333D01*
X89273Y-47352D01*
X89292Y-47371D01*
X89311Y-47409D01*
X89311Y-47523D01*
X89292Y-47561D01*
X89273Y-47580D01*
X61276Y-46074D02*
X61318Y-46088D01*
X61333Y-46103D01*
X61347Y-46131D01*
X61347Y-46174D01*
X61333Y-46203D01*
X61318Y-46217D01*
X61290Y-46231D01*
X61176Y-46231D01*
X61176Y-45931D01*
X61276Y-45931D01*
X61304Y-45945D01*
X61318Y-45960D01*
X61333Y-45988D01*
X61333Y-46017D01*
X61318Y-46045D01*
X61304Y-46060D01*
X61276Y-46074D01*
X61176Y-46074D01*
X61433Y-45931D02*
X61604Y-45931D01*
X61518Y-46231D02*
X61518Y-45931D01*
X61861Y-46231D02*
X61690Y-46231D01*
X61776Y-46231D02*
X61776Y-45931D01*
X61747Y-45974D01*
X61718Y-46003D01*
X61690Y-46017D01*
G54D10*
X76880Y-45946D02*
X76880Y-46265D01*
X76899Y-46302D01*
X76917Y-46321D01*
X76955Y-46340D01*
X77030Y-46340D01*
X77067Y-46321D01*
X77086Y-46302D01*
X77105Y-46265D01*
X77105Y-45946D01*
X77255Y-45946D02*
X77517Y-45946D01*
X77349Y-46340D01*
X68500Y-41896D02*
X68687Y-41896D01*
X68462Y-42009D02*
X68593Y-41615D01*
X68725Y-42009D01*
X69081Y-42009D02*
X68950Y-41821D01*
X68856Y-42009D02*
X68856Y-41615D01*
X69006Y-41615D01*
X69043Y-41634D01*
X69062Y-41653D01*
X69081Y-41690D01*
X69081Y-41746D01*
X69062Y-41784D01*
X69043Y-41803D01*
X69006Y-41821D01*
X68856Y-41821D01*
X69250Y-42009D02*
X69250Y-41615D01*
X69343Y-41615D01*
X69400Y-41634D01*
X69437Y-41671D01*
X69456Y-41709D01*
X69475Y-41784D01*
X69475Y-41840D01*
X69456Y-41915D01*
X69437Y-41953D01*
X69400Y-41990D01*
X69343Y-42009D01*
X69250Y-42009D01*
X69643Y-41615D02*
X69643Y-41934D01*
X69662Y-41971D01*
X69681Y-41990D01*
X69718Y-42009D01*
X69793Y-42009D01*
X69831Y-41990D01*
X69849Y-41971D01*
X69868Y-41934D01*
X69868Y-41615D01*
X70056Y-42009D02*
X70056Y-41615D01*
X70243Y-42009D02*
X70243Y-41615D01*
X70468Y-42009D01*
X70468Y-41615D01*
X70731Y-41615D02*
X70806Y-41615D01*
X70843Y-41634D01*
X70881Y-41671D01*
X70899Y-41746D01*
X70899Y-41878D01*
X70881Y-41953D01*
X70843Y-41990D01*
X70806Y-42009D01*
X70731Y-42009D01*
X70693Y-41990D01*
X70656Y-41953D01*
X70637Y-41878D01*
X70637Y-41746D01*
X70656Y-41671D01*
X70693Y-41634D01*
X70731Y-41615D01*
G54D18*
X80041Y-43354D02*
X80365Y-43354D01*
X80403Y-43335D01*
X80422Y-43316D01*
X80441Y-43278D01*
X80441Y-43202D01*
X80422Y-43164D01*
X80403Y-43145D01*
X80365Y-43126D01*
X80041Y-43126D01*
X80213Y-42878D02*
X80194Y-42916D01*
X80175Y-42935D01*
X80137Y-42954D01*
X80118Y-42954D01*
X80080Y-42935D01*
X80060Y-42916D01*
X80041Y-42878D01*
X80041Y-42802D01*
X80060Y-42764D01*
X80080Y-42745D01*
X80118Y-42726D01*
X80137Y-42726D01*
X80175Y-42745D01*
X80194Y-42764D01*
X80213Y-42802D01*
X80213Y-42878D01*
X80232Y-42916D01*
X80251Y-42935D01*
X80289Y-42954D01*
X80365Y-42954D01*
X80403Y-42935D01*
X80422Y-42916D01*
X80441Y-42878D01*
X80441Y-42802D01*
X80422Y-42764D01*
X80403Y-42745D01*
X80365Y-42726D01*
X80289Y-42726D01*
X80251Y-42745D01*
X80232Y-42764D01*
X80213Y-42802D01*
X78861Y-43304D02*
X78461Y-43304D01*
X78747Y-43171D01*
X78461Y-43038D01*
X78861Y-43038D01*
X78861Y-42847D02*
X78461Y-42847D01*
X78461Y-42695D01*
X78480Y-42657D01*
X78500Y-42638D01*
X78538Y-42619D01*
X78595Y-42619D01*
X78633Y-42638D01*
X78652Y-42657D01*
X78671Y-42695D01*
X78671Y-42847D01*
X78461Y-42447D02*
X78785Y-42447D01*
X78823Y-42428D01*
X78842Y-42409D01*
X78861Y-42371D01*
X78861Y-42295D01*
X78842Y-42257D01*
X78823Y-42238D01*
X78785Y-42219D01*
X78461Y-42219D01*
X78461Y-41857D02*
X78461Y-41933D01*
X78480Y-41971D01*
X78500Y-41990D01*
X78557Y-42028D01*
X78633Y-42047D01*
X78785Y-42047D01*
X78823Y-42028D01*
X78842Y-42009D01*
X78861Y-41971D01*
X78861Y-41895D01*
X78842Y-41857D01*
X78823Y-41838D01*
X78785Y-41819D01*
X78690Y-41819D01*
X78652Y-41838D01*
X78633Y-41857D01*
X78614Y-41895D01*
X78614Y-41971D01*
X78633Y-42009D01*
X78652Y-42028D01*
X78690Y-42047D01*
X78461Y-41571D02*
X78461Y-41533D01*
X78480Y-41495D01*
X78500Y-41476D01*
X78538Y-41457D01*
X78614Y-41438D01*
X78709Y-41438D01*
X78785Y-41457D01*
X78823Y-41476D01*
X78842Y-41495D01*
X78861Y-41533D01*
X78861Y-41571D01*
X78842Y-41609D01*
X78823Y-41628D01*
X78785Y-41647D01*
X78709Y-41666D01*
X78614Y-41666D01*
X78538Y-41647D01*
X78500Y-41628D01*
X78480Y-41609D01*
X78461Y-41571D01*
X78461Y-41076D02*
X78461Y-41266D01*
X78652Y-41285D01*
X78633Y-41266D01*
X78614Y-41228D01*
X78614Y-41133D01*
X78633Y-41095D01*
X78652Y-41076D01*
X78690Y-41057D01*
X78785Y-41057D01*
X78823Y-41076D01*
X78842Y-41095D01*
X78861Y-41133D01*
X78861Y-41228D01*
X78842Y-41266D01*
X78823Y-41285D01*
X78461Y-40809D02*
X78461Y-40771D01*
X78480Y-40733D01*
X78500Y-40714D01*
X78538Y-40695D01*
X78614Y-40676D01*
X78709Y-40676D01*
X78785Y-40695D01*
X78823Y-40714D01*
X78842Y-40733D01*
X78861Y-40771D01*
X78861Y-40809D01*
X78842Y-40847D01*
X78823Y-40866D01*
X78785Y-40885D01*
X78709Y-40904D01*
X78614Y-40904D01*
X78538Y-40885D01*
X78500Y-40866D01*
X78480Y-40847D01*
X78461Y-40809D01*
X91475Y-38291D02*
X91475Y-38615D01*
X91494Y-38653D01*
X91513Y-38672D01*
X91551Y-38691D01*
X91627Y-38691D01*
X91665Y-38672D01*
X91684Y-38653D01*
X91703Y-38615D01*
X91703Y-38291D01*
X91913Y-38691D02*
X91989Y-38691D01*
X92027Y-38672D01*
X92046Y-38653D01*
X92084Y-38596D01*
X92103Y-38520D01*
X92103Y-38368D01*
X92084Y-38330D01*
X92065Y-38310D01*
X92027Y-38291D01*
X91951Y-38291D01*
X91913Y-38310D01*
X91894Y-38330D01*
X91875Y-38368D01*
X91875Y-38463D01*
X91894Y-38501D01*
X91913Y-38520D01*
X91951Y-38539D01*
X92027Y-38539D01*
X92065Y-38520D01*
X92084Y-38501D01*
X92103Y-38463D01*
G54D15*
X87695Y-23761D02*
X87695Y-24085D01*
X87714Y-24123D01*
X87733Y-24142D01*
X87771Y-24161D01*
X87847Y-24161D01*
X87885Y-24142D01*
X87904Y-24123D01*
X87923Y-24085D01*
X87923Y-23761D01*
X88323Y-24161D02*
X88095Y-24161D01*
X88209Y-24161D02*
X88209Y-23761D01*
X88171Y-23819D01*
X88133Y-23857D01*
X88095Y-23876D01*
X93195Y-23761D02*
X93195Y-24085D01*
X93214Y-24123D01*
X93233Y-24142D01*
X93271Y-24161D01*
X93347Y-24161D01*
X93385Y-24142D01*
X93404Y-24123D01*
X93423Y-24085D01*
X93423Y-23761D01*
X93576Y-23761D02*
X93823Y-23761D01*
X93690Y-23914D01*
X93747Y-23914D01*
X93785Y-23933D01*
X93804Y-23952D01*
X93823Y-23990D01*
X93823Y-24085D01*
X93804Y-24123D01*
X93785Y-24142D01*
X93747Y-24161D01*
X93633Y-24161D01*
X93595Y-24142D01*
X93576Y-24123D01*
X99195Y-23761D02*
X99195Y-24085D01*
X99214Y-24123D01*
X99233Y-24142D01*
X99271Y-24161D01*
X99347Y-24161D01*
X99385Y-24142D01*
X99404Y-24123D01*
X99423Y-24085D01*
X99423Y-23761D01*
X99785Y-23895D02*
X99785Y-24161D01*
X99690Y-23742D02*
X99595Y-24028D01*
X99842Y-24028D01*
X105195Y-23761D02*
X105195Y-24085D01*
X105214Y-24123D01*
X105233Y-24142D01*
X105271Y-24161D01*
X105347Y-24161D01*
X105385Y-24142D01*
X105404Y-24123D01*
X105423Y-24085D01*
X105423Y-23761D01*
X105804Y-23761D02*
X105614Y-23761D01*
X105595Y-23952D01*
X105614Y-23933D01*
X105652Y-23914D01*
X105747Y-23914D01*
X105785Y-23933D01*
X105804Y-23952D01*
X105823Y-23990D01*
X105823Y-24085D01*
X105804Y-24123D01*
X105785Y-24142D01*
X105747Y-24161D01*
X105652Y-24161D01*
X105614Y-24142D01*
X105595Y-24123D01*
G54D18*
X82961Y-50895D02*
X82561Y-50895D01*
X82561Y-50742D01*
X82580Y-50704D01*
X82600Y-50685D01*
X82638Y-50666D01*
X82695Y-50666D01*
X82733Y-50685D01*
X82752Y-50704D01*
X82771Y-50742D01*
X82771Y-50895D01*
X82561Y-50323D02*
X82561Y-50399D01*
X82580Y-50438D01*
X82600Y-50457D01*
X82657Y-50495D01*
X82733Y-50514D01*
X82885Y-50514D01*
X82923Y-50495D01*
X82942Y-50476D01*
X82961Y-50438D01*
X82961Y-50361D01*
X82942Y-50323D01*
X82923Y-50304D01*
X82885Y-50285D01*
X82790Y-50285D01*
X82752Y-50304D01*
X82733Y-50323D01*
X82714Y-50361D01*
X82714Y-50438D01*
X82733Y-50476D01*
X82752Y-50495D01*
X82790Y-50514D01*
X84180Y-51604D02*
X84161Y-51642D01*
X84161Y-51700D01*
X84180Y-51757D01*
X84219Y-51795D01*
X84257Y-51814D01*
X84333Y-51833D01*
X84390Y-51833D01*
X84466Y-51814D01*
X84504Y-51795D01*
X84542Y-51757D01*
X84561Y-51700D01*
X84561Y-51661D01*
X84542Y-51604D01*
X84523Y-51585D01*
X84390Y-51585D01*
X84390Y-51661D01*
X84561Y-51414D02*
X84161Y-51414D01*
X84561Y-51185D01*
X84161Y-51185D01*
X84561Y-50995D02*
X84161Y-50995D01*
X84161Y-50899D01*
X84180Y-50842D01*
X84219Y-50804D01*
X84257Y-50785D01*
X84333Y-50766D01*
X84390Y-50766D01*
X84466Y-50785D01*
X84504Y-50804D01*
X84542Y-50842D01*
X84561Y-50899D01*
X84561Y-50995D01*
G54D15*
X79078Y-53671D02*
X79078Y-53371D01*
X79192Y-53371D01*
X79221Y-53385D01*
X79235Y-53400D01*
X79250Y-53428D01*
X79250Y-53471D01*
X79235Y-53500D01*
X79221Y-53514D01*
X79192Y-53528D01*
X79078Y-53528D01*
X79364Y-53400D02*
X79378Y-53385D01*
X79407Y-53371D01*
X79478Y-53371D01*
X79507Y-53385D01*
X79521Y-53400D01*
X79535Y-53428D01*
X79535Y-53457D01*
X79521Y-53500D01*
X79350Y-53671D01*
X79535Y-53671D01*
X78978Y-55221D02*
X78978Y-54921D01*
X79050Y-54921D01*
X79092Y-54935D01*
X79121Y-54964D01*
X79135Y-54992D01*
X79150Y-55050D01*
X79150Y-55092D01*
X79135Y-55150D01*
X79121Y-55178D01*
X79092Y-55207D01*
X79050Y-55221D01*
X78978Y-55221D01*
X79264Y-55135D02*
X79407Y-55135D01*
X79235Y-55221D02*
X79335Y-54921D01*
X79435Y-55221D01*
X79492Y-54921D02*
X79664Y-54921D01*
X79578Y-55221D02*
X79578Y-54921D01*
X80578Y-53671D02*
X80578Y-53371D01*
X80692Y-53371D01*
X80721Y-53385D01*
X80735Y-53400D01*
X80750Y-53428D01*
X80750Y-53471D01*
X80735Y-53500D01*
X80721Y-53514D01*
X80692Y-53528D01*
X80578Y-53528D01*
X80850Y-53371D02*
X81035Y-53371D01*
X80935Y-53485D01*
X80978Y-53485D01*
X81007Y-53500D01*
X81021Y-53514D01*
X81035Y-53542D01*
X81035Y-53614D01*
X81021Y-53642D01*
X81007Y-53657D01*
X80978Y-53671D01*
X80892Y-53671D01*
X80864Y-53657D01*
X80850Y-53642D01*
X80621Y-55192D02*
X80607Y-55207D01*
X80564Y-55221D01*
X80535Y-55221D01*
X80492Y-55207D01*
X80464Y-55178D01*
X80450Y-55150D01*
X80435Y-55092D01*
X80435Y-55050D01*
X80450Y-54992D01*
X80464Y-54964D01*
X80492Y-54935D01*
X80535Y-54921D01*
X80564Y-54921D01*
X80607Y-54935D01*
X80621Y-54950D01*
X80892Y-55221D02*
X80750Y-55221D01*
X80750Y-54921D01*
X80992Y-55221D02*
X80992Y-54921D01*
X81164Y-55221D02*
X81035Y-55050D01*
X81164Y-54921D02*
X80992Y-55092D01*
X77578Y-53121D02*
X77578Y-52821D01*
X77692Y-52821D01*
X77721Y-52835D01*
X77735Y-52850D01*
X77750Y-52878D01*
X77750Y-52921D01*
X77735Y-52950D01*
X77721Y-52964D01*
X77692Y-52978D01*
X77578Y-52978D01*
X78021Y-52821D02*
X77878Y-52821D01*
X77864Y-52964D01*
X77878Y-52950D01*
X77907Y-52935D01*
X77978Y-52935D01*
X78007Y-52950D01*
X78021Y-52964D01*
X78035Y-52992D01*
X78035Y-53064D01*
X78021Y-53092D01*
X78007Y-53107D01*
X77978Y-53121D01*
X77907Y-53121D01*
X77878Y-53107D01*
X77864Y-53092D01*
X77300Y-51221D02*
X77400Y-51521D01*
X77500Y-51221D01*
X77771Y-51492D02*
X77757Y-51507D01*
X77714Y-51521D01*
X77685Y-51521D01*
X77642Y-51507D01*
X77614Y-51478D01*
X77600Y-51450D01*
X77585Y-51392D01*
X77585Y-51350D01*
X77600Y-51292D01*
X77614Y-51264D01*
X77642Y-51235D01*
X77685Y-51221D01*
X77714Y-51221D01*
X77757Y-51235D01*
X77771Y-51250D01*
X78071Y-51492D02*
X78057Y-51507D01*
X78014Y-51521D01*
X77985Y-51521D01*
X77942Y-51507D01*
X77914Y-51478D01*
X77900Y-51450D01*
X77885Y-51392D01*
X77885Y-51350D01*
X77900Y-51292D01*
X77914Y-51264D01*
X77942Y-51235D01*
X77985Y-51221D01*
X78014Y-51221D01*
X78057Y-51235D01*
X78071Y-51250D01*
X80335Y-53121D02*
X80335Y-52821D01*
X80450Y-52821D01*
X80478Y-52835D01*
X80492Y-52850D01*
X80507Y-52878D01*
X80507Y-52921D01*
X80492Y-52950D01*
X80478Y-52964D01*
X80450Y-52978D01*
X80335Y-52978D01*
X80792Y-53121D02*
X80621Y-53121D01*
X80707Y-53121D02*
X80707Y-52821D01*
X80678Y-52864D01*
X80650Y-52892D01*
X80621Y-52907D01*
X80978Y-52821D02*
X81007Y-52821D01*
X81035Y-52835D01*
X81050Y-52850D01*
X81064Y-52878D01*
X81078Y-52935D01*
X81078Y-53007D01*
X81064Y-53064D01*
X81050Y-53092D01*
X81035Y-53107D01*
X81007Y-53121D01*
X80978Y-53121D01*
X80950Y-53107D01*
X80935Y-53092D01*
X80921Y-53064D01*
X80907Y-53007D01*
X80907Y-52935D01*
X80921Y-52878D01*
X80935Y-52850D01*
X80950Y-52835D01*
X80978Y-52821D01*
X80342Y-51557D02*
X80385Y-51571D01*
X80457Y-51571D01*
X80485Y-51557D01*
X80500Y-51542D01*
X80514Y-51514D01*
X80514Y-51485D01*
X80500Y-51457D01*
X80485Y-51442D01*
X80457Y-51428D01*
X80400Y-51414D01*
X80371Y-51400D01*
X80357Y-51385D01*
X80342Y-51357D01*
X80342Y-51328D01*
X80357Y-51300D01*
X80371Y-51285D01*
X80400Y-51271D01*
X80471Y-51271D01*
X80514Y-51285D01*
X80814Y-51542D02*
X80800Y-51557D01*
X80757Y-51571D01*
X80728Y-51571D01*
X80685Y-51557D01*
X80657Y-51528D01*
X80642Y-51500D01*
X80628Y-51442D01*
X80628Y-51400D01*
X80642Y-51342D01*
X80657Y-51314D01*
X80685Y-51285D01*
X80728Y-51271D01*
X80757Y-51271D01*
X80800Y-51285D01*
X80814Y-51300D01*
X81085Y-51571D02*
X80942Y-51571D01*
X80942Y-51271D01*
X82128Y-53121D02*
X82128Y-52821D01*
X82242Y-52821D01*
X82271Y-52835D01*
X82285Y-52850D01*
X82300Y-52878D01*
X82300Y-52921D01*
X82285Y-52950D01*
X82271Y-52964D01*
X82242Y-52978D01*
X82128Y-52978D01*
X82471Y-52950D02*
X82442Y-52935D01*
X82428Y-52921D01*
X82414Y-52892D01*
X82414Y-52878D01*
X82428Y-52850D01*
X82442Y-52835D01*
X82471Y-52821D01*
X82528Y-52821D01*
X82557Y-52835D01*
X82571Y-52850D01*
X82585Y-52878D01*
X82585Y-52892D01*
X82571Y-52921D01*
X82557Y-52935D01*
X82528Y-52950D01*
X82471Y-52950D01*
X82442Y-52964D01*
X82428Y-52978D01*
X82414Y-53007D01*
X82414Y-53064D01*
X82428Y-53092D01*
X82442Y-53107D01*
X82471Y-53121D01*
X82528Y-53121D01*
X82557Y-53107D01*
X82571Y-53092D01*
X82585Y-53064D01*
X82585Y-53007D01*
X82571Y-52978D01*
X82557Y-52964D01*
X82528Y-52950D01*
X81935Y-51557D02*
X81978Y-51571D01*
X82050Y-51571D01*
X82078Y-51557D01*
X82092Y-51542D01*
X82107Y-51514D01*
X82107Y-51485D01*
X82092Y-51457D01*
X82078Y-51442D01*
X82050Y-51428D01*
X81992Y-51414D01*
X81964Y-51400D01*
X81950Y-51385D01*
X81935Y-51357D01*
X81935Y-51328D01*
X81950Y-51300D01*
X81964Y-51285D01*
X81992Y-51271D01*
X82064Y-51271D01*
X82107Y-51285D01*
X82235Y-51571D02*
X82235Y-51271D01*
X82307Y-51271D01*
X82350Y-51285D01*
X82378Y-51314D01*
X82392Y-51342D01*
X82407Y-51400D01*
X82407Y-51442D01*
X82392Y-51500D01*
X82378Y-51528D01*
X82350Y-51557D01*
X82307Y-51571D01*
X82235Y-51571D01*
X82521Y-51485D02*
X82664Y-51485D01*
X82492Y-51571D02*
X82592Y-51271D01*
X82692Y-51571D01*
X77578Y-53671D02*
X77578Y-53371D01*
X77692Y-53371D01*
X77721Y-53385D01*
X77735Y-53400D01*
X77750Y-53428D01*
X77750Y-53471D01*
X77735Y-53500D01*
X77721Y-53514D01*
X77692Y-53528D01*
X77578Y-53528D01*
X78035Y-53671D02*
X77864Y-53671D01*
X77950Y-53671D02*
X77950Y-53371D01*
X77921Y-53414D01*
X77892Y-53442D01*
X77864Y-53457D01*
X77292Y-55064D02*
X77335Y-55078D01*
X77350Y-55092D01*
X77364Y-55121D01*
X77364Y-55164D01*
X77350Y-55192D01*
X77335Y-55207D01*
X77307Y-55221D01*
X77192Y-55221D01*
X77192Y-54921D01*
X77292Y-54921D01*
X77321Y-54935D01*
X77335Y-54950D01*
X77350Y-54978D01*
X77350Y-55007D01*
X77335Y-55035D01*
X77321Y-55050D01*
X77292Y-55064D01*
X77192Y-55064D01*
X77492Y-54921D02*
X77492Y-55164D01*
X77507Y-55192D01*
X77521Y-55207D01*
X77550Y-55221D01*
X77607Y-55221D01*
X77635Y-55207D01*
X77650Y-55192D01*
X77664Y-55164D01*
X77664Y-54921D01*
X77764Y-54921D02*
X77935Y-54921D01*
X77850Y-55221D02*
X77850Y-54921D01*
X77992Y-54921D02*
X78164Y-54921D01*
X78078Y-55221D02*
X78078Y-54921D01*
X78421Y-55221D02*
X78250Y-55221D01*
X78335Y-55221D02*
X78335Y-54921D01*
X78307Y-54964D01*
X78278Y-54992D01*
X78250Y-55007D01*
X82078Y-53671D02*
X82078Y-53371D01*
X82192Y-53371D01*
X82221Y-53385D01*
X82235Y-53400D01*
X82250Y-53428D01*
X82250Y-53471D01*
X82235Y-53500D01*
X82221Y-53514D01*
X82192Y-53528D01*
X82078Y-53528D01*
X82392Y-53671D02*
X82450Y-53671D01*
X82478Y-53657D01*
X82492Y-53642D01*
X82521Y-53600D01*
X82535Y-53542D01*
X82535Y-53428D01*
X82521Y-53400D01*
X82507Y-53385D01*
X82478Y-53371D01*
X82421Y-53371D01*
X82392Y-53385D01*
X82378Y-53400D01*
X82364Y-53428D01*
X82364Y-53500D01*
X82378Y-53528D01*
X82392Y-53542D01*
X82421Y-53557D01*
X82478Y-53557D01*
X82507Y-53542D01*
X82521Y-53528D01*
X82535Y-53500D01*
X82242Y-54921D02*
X82100Y-54921D01*
X82085Y-55064D01*
X82100Y-55050D01*
X82128Y-55035D01*
X82200Y-55035D01*
X82228Y-55050D01*
X82242Y-55064D01*
X82257Y-55092D01*
X82257Y-55164D01*
X82242Y-55192D01*
X82228Y-55207D01*
X82200Y-55221D01*
X82128Y-55221D01*
X82100Y-55207D01*
X82085Y-55192D01*
X82342Y-54921D02*
X82442Y-55221D01*
X82542Y-54921D01*
X79078Y-53171D02*
X79078Y-52871D01*
X79192Y-52871D01*
X79221Y-52885D01*
X79235Y-52900D01*
X79250Y-52928D01*
X79250Y-52971D01*
X79235Y-53000D01*
X79221Y-53014D01*
X79192Y-53028D01*
X79078Y-53028D01*
X79507Y-52971D02*
X79507Y-53171D01*
X79435Y-52857D02*
X79364Y-53071D01*
X79550Y-53071D01*
X79028Y-51571D02*
X79028Y-51271D01*
X79171Y-51571D02*
X79171Y-51271D01*
X79342Y-51571D01*
X79342Y-51271D01*
X79442Y-51271D02*
X79614Y-51271D01*
X79528Y-51571D02*
X79528Y-51271D01*
X83378Y-53621D02*
X83378Y-53321D01*
X83492Y-53321D01*
X83521Y-53335D01*
X83535Y-53350D01*
X83550Y-53378D01*
X83550Y-53421D01*
X83535Y-53450D01*
X83521Y-53464D01*
X83492Y-53478D01*
X83378Y-53478D01*
X83650Y-53321D02*
X83850Y-53321D01*
X83721Y-53621D01*
X83328Y-54921D02*
X83514Y-54921D01*
X83414Y-55035D01*
X83457Y-55035D01*
X83485Y-55050D01*
X83500Y-55064D01*
X83514Y-55092D01*
X83514Y-55164D01*
X83500Y-55192D01*
X83485Y-55207D01*
X83457Y-55221D01*
X83371Y-55221D01*
X83342Y-55207D01*
X83328Y-55192D01*
X83600Y-54921D02*
X83700Y-55221D01*
X83800Y-54921D01*
X83871Y-54921D02*
X84057Y-54921D01*
X83957Y-55035D01*
X84000Y-55035D01*
X84028Y-55050D01*
X84042Y-55064D01*
X84057Y-55092D01*
X84057Y-55164D01*
X84042Y-55192D01*
X84028Y-55207D01*
X84000Y-55221D01*
X83914Y-55221D01*
X83885Y-55207D01*
X83871Y-55192D01*
G54D18*
X62395Y-23961D02*
X62395Y-24285D01*
X62414Y-24323D01*
X62433Y-24342D01*
X62471Y-24361D01*
X62547Y-24361D01*
X62585Y-24342D01*
X62604Y-24323D01*
X62623Y-24285D01*
X62623Y-23961D01*
X62795Y-24000D02*
X62814Y-23980D01*
X62852Y-23961D01*
X62947Y-23961D01*
X62985Y-23980D01*
X63004Y-24000D01*
X63023Y-24038D01*
X63023Y-24076D01*
X63004Y-24133D01*
X62776Y-24361D01*
X63023Y-24361D01*
G54D10*
X111839Y-46222D02*
X111614Y-46222D01*
X111726Y-46222D02*
X111726Y-45828D01*
X111689Y-45884D01*
X111651Y-45922D01*
X111614Y-45941D01*
X112176Y-45828D02*
X112101Y-45828D01*
X112064Y-45847D01*
X112045Y-45866D01*
X112007Y-45922D01*
X111989Y-45997D01*
X111989Y-46147D01*
X112007Y-46184D01*
X112026Y-46203D01*
X112064Y-46222D01*
X112139Y-46222D01*
X112176Y-46203D01*
X112195Y-46184D01*
X112214Y-46147D01*
X112214Y-46053D01*
X112195Y-46016D01*
X112176Y-45997D01*
X112139Y-45978D01*
X112064Y-45978D01*
X112026Y-45997D01*
X112007Y-46016D01*
X111989Y-46053D01*
X112457Y-45828D02*
X112495Y-45828D01*
X112532Y-45847D01*
X112551Y-45866D01*
X112570Y-45903D01*
X112589Y-45978D01*
X112589Y-46072D01*
X112570Y-46147D01*
X112551Y-46184D01*
X112532Y-46203D01*
X112495Y-46222D01*
X112457Y-46222D01*
X112420Y-46203D01*
X112401Y-46184D01*
X112382Y-46147D01*
X112364Y-46072D01*
X112364Y-45978D01*
X112382Y-45903D01*
X112401Y-45866D01*
X112420Y-45847D01*
X112457Y-45828D01*
X112739Y-45866D02*
X112757Y-45847D01*
X112795Y-45828D01*
X112889Y-45828D01*
X112926Y-45847D01*
X112945Y-45866D01*
X112964Y-45903D01*
X112964Y-45941D01*
X112945Y-45997D01*
X112720Y-46222D01*
X112964Y-46222D01*
X113038Y-46259D02*
X113338Y-46259D01*
X113620Y-46222D02*
X113432Y-46222D01*
X113432Y-45828D01*
X113976Y-46184D02*
X113957Y-46203D01*
X113901Y-46222D01*
X113863Y-46222D01*
X113807Y-46203D01*
X113770Y-46166D01*
X113751Y-46128D01*
X113732Y-46053D01*
X113732Y-45997D01*
X113751Y-45922D01*
X113770Y-45884D01*
X113807Y-45847D01*
X113863Y-45828D01*
X113901Y-45828D01*
X113957Y-45847D01*
X113976Y-45866D01*
X114145Y-46222D02*
X114145Y-45828D01*
X114238Y-45828D01*
X114295Y-45847D01*
X114332Y-45884D01*
X114351Y-45922D01*
X114370Y-45997D01*
X114370Y-46053D01*
X114351Y-46128D01*
X114332Y-46166D01*
X114295Y-46203D01*
X114238Y-46222D01*
X114145Y-46222D01*
G54D15*
X68547Y-45915D02*
X68547Y-46129D01*
X68533Y-46172D01*
X68504Y-46201D01*
X68461Y-46215D01*
X68433Y-46215D01*
X68690Y-46215D02*
X68690Y-45915D01*
X68804Y-45915D01*
X68833Y-45929D01*
X68847Y-45944D01*
X68861Y-45972D01*
X68861Y-46015D01*
X68847Y-46044D01*
X68833Y-46058D01*
X68804Y-46072D01*
X68690Y-46072D01*
X69119Y-45915D02*
X69061Y-45915D01*
X69033Y-45929D01*
X69019Y-45944D01*
X68990Y-45986D01*
X68976Y-46044D01*
X68976Y-46158D01*
X68990Y-46186D01*
X69004Y-46201D01*
X69033Y-46215D01*
X69090Y-46215D01*
X69119Y-46201D01*
X69133Y-46186D01*
X69147Y-46158D01*
X69147Y-46086D01*
X69133Y-46058D01*
X69119Y-46044D01*
X69090Y-46029D01*
X69033Y-46029D01*
X69004Y-46044D01*
X68990Y-46058D01*
X68976Y-46086D01*
X66210Y-45911D02*
X66210Y-46126D01*
X66196Y-46169D01*
X66167Y-46197D01*
X66124Y-46211D01*
X66096Y-46211D01*
X66353Y-46211D02*
X66353Y-45911D01*
X66467Y-45911D01*
X66496Y-45926D01*
X66510Y-45940D01*
X66524Y-45969D01*
X66524Y-46011D01*
X66510Y-46040D01*
X66496Y-46054D01*
X66467Y-46069D01*
X66353Y-46069D01*
X66796Y-45911D02*
X66653Y-45911D01*
X66639Y-46054D01*
X66653Y-46040D01*
X66682Y-46026D01*
X66753Y-46026D01*
X66782Y-46040D01*
X66796Y-46054D01*
X66810Y-46083D01*
X66810Y-46154D01*
X66796Y-46183D01*
X66782Y-46197D01*
X66753Y-46211D01*
X66682Y-46211D01*
X66653Y-46197D01*
X66639Y-46183D01*
X63823Y-45915D02*
X63823Y-46129D01*
X63808Y-46172D01*
X63780Y-46201D01*
X63737Y-46215D01*
X63708Y-46215D01*
X63966Y-46215D02*
X63966Y-45915D01*
X64080Y-45915D01*
X64108Y-45929D01*
X64123Y-45944D01*
X64137Y-45972D01*
X64137Y-46015D01*
X64123Y-46044D01*
X64108Y-46058D01*
X64080Y-46072D01*
X63966Y-46072D01*
X64394Y-46015D02*
X64394Y-46215D01*
X64323Y-45901D02*
X64251Y-46115D01*
X64437Y-46115D01*
G54D17*
X70803Y-46439D02*
X70737Y-46345D01*
X70690Y-46439D02*
X70690Y-46242D01*
X70765Y-46242D01*
X70784Y-46252D01*
X70793Y-46261D01*
X70803Y-46280D01*
X70803Y-46308D01*
X70793Y-46327D01*
X70784Y-46336D01*
X70765Y-46345D01*
X70690Y-46345D01*
X70990Y-46439D02*
X70878Y-46439D01*
X70934Y-46439D02*
X70934Y-46242D01*
X70915Y-46270D01*
X70897Y-46289D01*
X70878Y-46299D01*
X71178Y-46439D02*
X71066Y-46439D01*
X71122Y-46439D02*
X71122Y-46242D01*
X71103Y-46270D01*
X71084Y-46289D01*
X71066Y-46299D01*
X70822Y-47242D02*
X70840Y-47242D01*
X70859Y-47252D01*
X70869Y-47261D01*
X70878Y-47280D01*
X70887Y-47317D01*
X70887Y-47364D01*
X70878Y-47402D01*
X70869Y-47420D01*
X70859Y-47430D01*
X70840Y-47439D01*
X70822Y-47439D01*
X70803Y-47430D01*
X70793Y-47420D01*
X70784Y-47402D01*
X70775Y-47364D01*
X70775Y-47317D01*
X70784Y-47280D01*
X70793Y-47261D01*
X70803Y-47252D01*
X70822Y-47242D01*
X71084Y-47439D02*
X71019Y-47345D01*
X70972Y-47439D02*
X70972Y-47242D01*
X71047Y-47242D01*
X71066Y-47252D01*
X71075Y-47261D01*
X71084Y-47280D01*
X71084Y-47308D01*
X71075Y-47327D01*
X71066Y-47336D01*
X71047Y-47345D01*
X70972Y-47345D01*
M02*
