G04 (created by PCBNEW (2013-07-07 BZR 4022)-stable) date 2020-03-17 3:52:32 PM*
%MOIN*%
G04 Gerber Fmt 3.4, Leading zero omitted, Abs format*
%FSLAX34Y34*%
G01*
G70*
G90*
G04 APERTURE LIST*
%ADD10C,0.00590551*%
%ADD11C,0.0787402*%
%ADD12C,0.16*%
%ADD13R,0.0315X0.0394*%
%ADD14R,0.055X0.035*%
%ADD15R,0.035X0.055*%
%ADD16R,0.06X0.06*%
%ADD17C,0.06*%
%ADD18R,0.126772X0.019685*%
%ADD19C,0.08*%
%ADD20C,0.035*%
%ADD21C,0.01*%
G04 APERTURE END LIST*
G54D10*
G54D11*
X91551Y-51251D03*
X94110Y-51251D03*
X91551Y-53023D03*
X94110Y-53023D03*
X86551Y-51251D03*
X89110Y-51251D03*
X86551Y-53023D03*
X89110Y-53023D03*
G54D12*
X61000Y-25000D03*
X61000Y-35000D03*
X128500Y-25000D03*
X128500Y-35000D03*
G54D13*
X75700Y-25867D03*
X75325Y-26733D03*
X76075Y-26733D03*
G54D14*
X101250Y-30625D03*
X101250Y-29875D03*
X81600Y-34025D03*
X81600Y-34775D03*
X69000Y-30625D03*
X69000Y-29875D03*
X88200Y-44475D03*
X88200Y-43725D03*
X65300Y-30625D03*
X65300Y-29875D03*
X87000Y-44475D03*
X87000Y-43725D03*
X84500Y-38375D03*
X84500Y-37625D03*
X79350Y-34075D03*
X79350Y-34825D03*
G54D15*
X80925Y-31100D03*
X81675Y-31100D03*
G54D14*
X101500Y-34625D03*
X101500Y-35375D03*
X69700Y-36375D03*
X69700Y-35625D03*
X66800Y-36375D03*
X66800Y-35625D03*
X85000Y-27125D03*
X85000Y-27875D03*
X97500Y-34625D03*
X97500Y-35375D03*
X89500Y-31375D03*
X89500Y-30625D03*
X73200Y-35625D03*
X73200Y-36375D03*
G54D15*
X90125Y-35000D03*
X90875Y-35000D03*
X87125Y-35000D03*
X87875Y-35000D03*
G54D16*
X85200Y-48700D03*
G54D17*
X86200Y-48700D03*
X87200Y-48700D03*
G54D16*
X85200Y-47200D03*
G54D17*
X86200Y-47200D03*
X87200Y-47200D03*
G54D16*
X90000Y-48900D03*
G54D17*
X90000Y-47900D03*
X90000Y-46900D03*
G54D16*
X62000Y-46850D03*
G54D17*
X61000Y-46850D03*
G54D18*
X75794Y-33006D03*
X73845Y-33006D03*
X73845Y-29986D03*
X75794Y-29986D03*
X75794Y-29474D03*
X73845Y-29474D03*
X73845Y-30498D03*
X75794Y-30498D03*
X73845Y-31994D03*
X73845Y-32494D03*
X75794Y-32494D03*
X75794Y-31994D03*
X75794Y-31010D03*
X75794Y-31510D03*
X73845Y-31510D03*
X73845Y-31010D03*
G54D19*
X62200Y-38850D03*
X73200Y-38850D03*
X72200Y-38850D03*
X70200Y-38850D03*
X71200Y-38850D03*
X75200Y-38850D03*
X74200Y-38850D03*
X76200Y-38850D03*
X69200Y-38850D03*
X68200Y-38850D03*
X66200Y-38850D03*
X67200Y-38850D03*
X63200Y-38850D03*
X64200Y-38850D03*
X65200Y-38850D03*
X73200Y-44850D03*
X74200Y-44850D03*
X76200Y-44850D03*
X75200Y-44850D03*
X72200Y-44850D03*
X65200Y-44850D03*
X71200Y-44850D03*
X70200Y-44850D03*
X62200Y-44850D03*
X64200Y-44850D03*
X63200Y-44850D03*
X68200Y-44850D03*
X69200Y-44850D03*
X67200Y-44850D03*
X66200Y-44850D03*
G54D16*
X79500Y-38500D03*
G54D17*
X79500Y-39500D03*
X79500Y-40500D03*
X79500Y-41500D03*
X79500Y-42500D03*
X79500Y-43500D03*
X79500Y-44500D03*
X79500Y-45500D03*
G54D16*
X91780Y-39530D03*
G54D17*
X91780Y-40530D03*
X91780Y-41530D03*
X91780Y-42530D03*
G54D16*
X87000Y-25000D03*
G54D17*
X88000Y-25000D03*
X89000Y-25000D03*
G54D16*
X92500Y-25000D03*
G54D17*
X93500Y-25000D03*
X94500Y-25000D03*
G54D16*
X98500Y-25000D03*
G54D17*
X99500Y-25000D03*
X100500Y-25000D03*
G54D16*
X104500Y-25000D03*
G54D17*
X105500Y-25000D03*
X106500Y-25000D03*
G54D16*
X83600Y-52400D03*
G54D17*
X83600Y-51400D03*
X83600Y-50400D03*
G54D16*
X79300Y-54300D03*
X80800Y-54300D03*
X77800Y-52200D03*
X80700Y-52200D03*
X82300Y-52200D03*
X77800Y-54300D03*
X82300Y-54300D03*
X79300Y-52200D03*
X83700Y-54300D03*
X71000Y-24000D03*
G54D17*
X70000Y-24000D03*
X69000Y-24000D03*
X68000Y-24000D03*
X67000Y-24000D03*
X66000Y-24000D03*
X65000Y-24000D03*
G54D16*
X68297Y-46844D03*
G54D17*
X69297Y-46844D03*
G54D16*
X65935Y-46844D03*
G54D17*
X66935Y-46844D03*
G54D16*
X63573Y-46844D03*
G54D17*
X64573Y-46844D03*
G54D14*
X97250Y-32625D03*
X97250Y-31875D03*
G54D20*
X88200Y-45150D03*
X82550Y-39350D03*
X75700Y-46750D03*
X74550Y-47100D03*
X73400Y-47050D03*
X75050Y-28850D03*
X81200Y-53200D03*
X68450Y-48350D03*
X90800Y-51650D03*
X83400Y-53200D03*
X74450Y-35000D03*
X69700Y-27450D03*
X68600Y-26350D03*
X79900Y-35400D03*
X84000Y-46000D03*
X78650Y-42350D03*
X78400Y-40600D03*
X77600Y-39800D03*
X77600Y-39000D03*
X75750Y-38250D03*
X74750Y-37250D03*
X72550Y-36050D03*
X69650Y-30450D03*
X69700Y-32600D03*
X69100Y-33200D03*
X69100Y-34100D03*
X72450Y-34600D03*
X73850Y-36000D03*
X79250Y-37250D03*
X83200Y-41950D03*
X82200Y-42150D03*
X83600Y-43950D03*
X68400Y-29300D03*
X80950Y-34450D03*
X77550Y-28800D03*
X67900Y-24900D03*
X82150Y-35350D03*
X77900Y-40700D03*
X69150Y-39800D03*
X70650Y-34750D03*
X71250Y-34150D03*
X72850Y-31900D03*
X98150Y-34000D03*
X85650Y-27700D03*
X88750Y-31500D03*
X72850Y-30950D03*
X70650Y-33150D03*
X69850Y-33950D03*
X67750Y-36050D03*
X72850Y-30050D03*
X88800Y-43150D03*
X86350Y-44300D03*
X78500Y-47450D03*
X78900Y-49400D03*
X71900Y-46250D03*
X70650Y-47550D03*
X90300Y-34350D03*
X90150Y-31200D03*
X91450Y-35550D03*
X89000Y-30050D03*
X101900Y-30450D03*
X102150Y-34800D03*
X93400Y-25900D03*
X74800Y-46250D03*
X64650Y-47950D03*
X89100Y-46600D03*
X90800Y-39950D03*
X90800Y-41150D03*
X89200Y-43500D03*
X86350Y-46150D03*
X67650Y-45450D03*
X72150Y-39800D03*
X74450Y-40500D03*
X76350Y-42950D03*
X77600Y-44200D03*
X89500Y-50600D03*
X88700Y-49800D03*
X88700Y-45050D03*
X79550Y-30300D03*
X80150Y-29700D03*
X72850Y-29450D03*
X75650Y-46250D03*
X72850Y-46650D03*
X75300Y-41900D03*
X83600Y-42950D03*
X81800Y-41150D03*
X86750Y-45200D03*
X75700Y-33450D03*
X76800Y-32350D03*
X77100Y-31900D03*
X74200Y-33600D03*
X76850Y-31100D03*
X77650Y-31900D03*
X76800Y-29550D03*
X76600Y-27250D03*
X85550Y-28450D03*
X86450Y-34300D03*
X76600Y-26550D03*
X76850Y-30050D03*
X82834Y-47125D03*
X79133Y-48800D03*
X86299Y-38897D03*
X86771Y-43070D03*
X85590Y-43543D03*
X84448Y-45472D03*
X83622Y-45118D03*
X70650Y-37250D03*
X71650Y-38250D03*
X80400Y-39550D03*
X81450Y-42850D03*
X81200Y-43800D03*
X72350Y-32100D03*
X71300Y-33150D03*
X70000Y-34450D03*
X73950Y-41100D03*
X81100Y-41950D03*
X80400Y-42400D03*
X96600Y-33300D03*
X91700Y-46200D03*
X88850Y-30650D03*
X90650Y-31150D03*
X101300Y-31200D03*
X101300Y-34050D03*
X75800Y-29050D03*
X75800Y-27300D03*
G54D21*
X90000Y-46900D02*
X88250Y-45150D01*
X88250Y-45150D02*
X88200Y-45150D01*
X82550Y-39350D02*
X81700Y-38500D01*
X81700Y-38500D02*
X79500Y-38500D01*
X75700Y-46750D02*
X75350Y-47100D01*
X75350Y-47100D02*
X74550Y-47100D01*
X73400Y-47050D02*
X73350Y-47000D01*
X73350Y-47000D02*
X72700Y-47000D01*
X72700Y-47000D02*
X72650Y-46950D01*
X72650Y-46950D02*
X72600Y-46950D01*
X72600Y-46950D02*
X72500Y-46850D01*
X72500Y-46850D02*
X69300Y-46850D01*
X69300Y-46850D02*
X69297Y-46844D01*
X75050Y-28850D02*
X74450Y-29450D01*
X74450Y-29450D02*
X73850Y-29450D01*
X73850Y-29450D02*
X73845Y-29474D01*
X89110Y-51251D02*
X89100Y-51250D01*
X89100Y-51250D02*
X86550Y-51250D01*
X86550Y-51250D02*
X86551Y-51251D01*
X91551Y-51251D02*
X91550Y-51250D01*
X91550Y-51250D02*
X94100Y-51250D01*
X94100Y-51250D02*
X94110Y-51251D01*
X89110Y-51251D02*
X89100Y-51250D01*
X89100Y-51250D02*
X91550Y-51250D01*
X91550Y-51250D02*
X91551Y-51251D01*
X81200Y-53200D02*
X80700Y-52700D01*
X80700Y-52700D02*
X77300Y-52700D01*
X77300Y-52700D02*
X72950Y-48350D01*
X72950Y-48350D02*
X68450Y-48350D01*
X90800Y-51650D02*
X90000Y-52450D01*
X90000Y-52450D02*
X86400Y-52450D01*
X86400Y-52450D02*
X86350Y-52500D01*
X86350Y-52500D02*
X86250Y-52500D01*
X86250Y-52500D02*
X85550Y-53200D01*
X85550Y-53200D02*
X83400Y-53200D01*
X79350Y-34825D02*
X79350Y-34850D01*
X79350Y-34850D02*
X79200Y-35000D01*
X79200Y-35000D02*
X74450Y-35000D01*
X69700Y-27450D02*
X68600Y-26350D01*
X79350Y-34825D02*
X79350Y-34850D01*
X79350Y-34850D02*
X79900Y-35400D01*
X84000Y-46000D02*
X85200Y-47200D01*
X85200Y-48700D02*
X85200Y-48500D01*
X85200Y-48500D02*
X79650Y-42950D01*
X79650Y-42950D02*
X79250Y-42950D01*
X79250Y-42950D02*
X78650Y-42350D01*
X78400Y-40600D02*
X77600Y-39800D01*
X77600Y-39000D02*
X76850Y-38250D01*
X76850Y-38250D02*
X75750Y-38250D01*
X74750Y-37250D02*
X73900Y-36400D01*
X73900Y-36400D02*
X73200Y-36400D01*
X73200Y-36400D02*
X73200Y-36375D01*
X73200Y-36375D02*
X73200Y-36400D01*
X73200Y-36400D02*
X72850Y-36050D01*
X72850Y-36050D02*
X72550Y-36050D01*
X69000Y-29875D02*
X69000Y-29900D01*
X69000Y-29900D02*
X69350Y-30250D01*
X69350Y-30250D02*
X69450Y-30250D01*
X69450Y-30250D02*
X69650Y-30450D01*
X69700Y-32600D02*
X69100Y-33200D01*
X69100Y-34100D02*
X69800Y-34800D01*
X69800Y-34800D02*
X70150Y-34800D01*
X70150Y-34800D02*
X70200Y-34750D01*
X70200Y-34750D02*
X70250Y-34750D01*
X70250Y-34750D02*
X70300Y-34700D01*
X70300Y-34700D02*
X70300Y-34600D01*
X70300Y-34600D02*
X70350Y-34600D01*
X70350Y-34600D02*
X70350Y-34500D01*
X70350Y-34500D02*
X71050Y-33800D01*
X71050Y-33800D02*
X71400Y-33800D01*
X71400Y-33800D02*
X71450Y-33850D01*
X71450Y-33850D02*
X71500Y-33850D01*
X71500Y-33850D02*
X72250Y-34600D01*
X72250Y-34600D02*
X72450Y-34600D01*
X73850Y-36000D02*
X74000Y-36150D01*
X74000Y-36150D02*
X74100Y-36150D01*
X74100Y-36150D02*
X74850Y-36900D01*
X74850Y-36900D02*
X74900Y-36900D01*
X74900Y-36900D02*
X74950Y-36950D01*
X74950Y-36950D02*
X75000Y-36950D01*
X75000Y-36950D02*
X75300Y-37250D01*
X75300Y-37250D02*
X79250Y-37250D01*
X83200Y-41950D02*
X83000Y-42150D01*
X83000Y-42150D02*
X82200Y-42150D01*
X83600Y-43950D02*
X86400Y-46750D01*
X86400Y-46750D02*
X86450Y-46750D01*
X86450Y-46750D02*
X86900Y-47200D01*
X86900Y-47200D02*
X87200Y-47200D01*
X69000Y-29875D02*
X69000Y-29900D01*
X69000Y-29900D02*
X68400Y-29300D01*
X81600Y-34775D02*
X81600Y-34800D01*
X81600Y-34800D02*
X81250Y-34450D01*
X81250Y-34450D02*
X80950Y-34450D01*
X77550Y-28800D02*
X76400Y-27650D01*
X76400Y-27650D02*
X75650Y-27650D01*
X75650Y-27650D02*
X75600Y-27600D01*
X75600Y-27600D02*
X75550Y-27600D01*
X75550Y-27600D02*
X75050Y-27100D01*
X75050Y-27100D02*
X75000Y-27100D01*
X75000Y-27100D02*
X73650Y-25750D01*
X73650Y-25750D02*
X72300Y-25750D01*
X72300Y-25750D02*
X71450Y-24900D01*
X71450Y-24900D02*
X67900Y-24900D01*
X82150Y-35350D02*
X81600Y-34800D01*
X81600Y-34800D02*
X81600Y-34775D01*
X77900Y-40700D02*
X77750Y-40850D01*
X77750Y-40850D02*
X74300Y-40850D01*
X74300Y-40850D02*
X74250Y-40800D01*
X74250Y-40800D02*
X74200Y-40800D01*
X74200Y-40800D02*
X74150Y-40750D01*
X74150Y-40750D02*
X72650Y-40750D01*
X72650Y-40750D02*
X72050Y-40150D01*
X72050Y-40150D02*
X72000Y-40150D01*
X72000Y-40150D02*
X71950Y-40100D01*
X71950Y-40100D02*
X71900Y-40100D01*
X71900Y-40100D02*
X71600Y-39800D01*
X71600Y-39800D02*
X69150Y-39800D01*
X70650Y-34750D02*
X71250Y-34150D01*
X72850Y-31900D02*
X73250Y-31500D01*
X73250Y-31500D02*
X73850Y-31500D01*
X73850Y-31500D02*
X73845Y-31510D01*
X97500Y-34625D02*
X97500Y-34650D01*
X97500Y-34650D02*
X98150Y-34000D01*
X85000Y-27125D02*
X85000Y-27150D01*
X85000Y-27150D02*
X85350Y-27500D01*
X85350Y-27500D02*
X85450Y-27500D01*
X85450Y-27500D02*
X85650Y-27700D01*
X88750Y-31500D02*
X88850Y-31400D01*
X88850Y-31400D02*
X89500Y-31400D01*
X89500Y-31400D02*
X89500Y-31375D01*
X71000Y-24000D02*
X72500Y-25500D01*
X72500Y-25500D02*
X76050Y-25500D01*
X76050Y-25500D02*
X76150Y-25600D01*
X76150Y-25600D02*
X83100Y-25600D01*
X83100Y-25600D02*
X84650Y-27150D01*
X84650Y-27150D02*
X85000Y-27150D01*
X85000Y-27150D02*
X85000Y-27125D01*
X89500Y-31375D02*
X89500Y-31400D01*
X89500Y-31400D02*
X92750Y-34650D01*
X92750Y-34650D02*
X97500Y-34650D01*
X97500Y-34650D02*
X97500Y-34625D01*
X73845Y-30498D02*
X73850Y-30500D01*
X73850Y-30500D02*
X73600Y-30750D01*
X73600Y-30750D02*
X73050Y-30750D01*
X73050Y-30750D02*
X72850Y-30950D01*
X70650Y-33150D02*
X69850Y-33950D01*
X67750Y-36050D02*
X67400Y-36400D01*
X67400Y-36400D02*
X66800Y-36400D01*
X66800Y-36400D02*
X66800Y-36375D01*
X73845Y-30498D02*
X73850Y-30500D01*
X73850Y-30500D02*
X73600Y-30250D01*
X73600Y-30250D02*
X73050Y-30250D01*
X73050Y-30250D02*
X72850Y-30050D01*
X88800Y-43150D02*
X88200Y-43750D01*
X88200Y-43750D02*
X88200Y-43725D01*
X87000Y-43725D02*
X87000Y-43750D01*
X87000Y-43750D02*
X86650Y-44100D01*
X86650Y-44100D02*
X86550Y-44100D01*
X86550Y-44100D02*
X86350Y-44300D01*
X78500Y-47450D02*
X76450Y-45400D01*
X76450Y-45400D02*
X75950Y-45400D01*
X75950Y-45400D02*
X75900Y-45350D01*
X75900Y-45350D02*
X75850Y-45350D01*
X75850Y-45350D02*
X75350Y-44850D01*
X75350Y-44850D02*
X75200Y-44850D01*
X83600Y-50400D02*
X82600Y-49400D01*
X82600Y-49400D02*
X78900Y-49400D01*
X75200Y-44850D02*
X73800Y-46250D01*
X73800Y-46250D02*
X71900Y-46250D01*
X70650Y-47550D02*
X62900Y-47550D01*
X62900Y-47550D02*
X62700Y-47350D01*
X62700Y-47350D02*
X61500Y-47350D01*
X61500Y-47350D02*
X61000Y-46850D01*
X90875Y-35000D02*
X90900Y-35000D01*
X90900Y-35000D02*
X90900Y-34950D01*
X90900Y-34950D02*
X90300Y-34350D01*
X90150Y-31200D02*
X89600Y-30650D01*
X89600Y-30650D02*
X89500Y-30650D01*
X89500Y-30650D02*
X89500Y-30625D01*
X89500Y-30625D02*
X89500Y-30650D01*
X89500Y-30650D02*
X89150Y-31000D01*
X89150Y-31000D02*
X89050Y-31000D01*
X89050Y-31000D02*
X88950Y-31100D01*
X88950Y-31100D02*
X81675Y-31100D01*
X97500Y-35375D02*
X97500Y-35400D01*
X97500Y-35400D02*
X97100Y-35000D01*
X97100Y-35000D02*
X90875Y-35000D01*
X90875Y-35000D02*
X90900Y-35000D01*
X90900Y-35000D02*
X91450Y-35550D01*
X89500Y-30625D02*
X89500Y-30550D01*
X89500Y-30550D02*
X89000Y-30050D01*
X81675Y-31100D02*
X81700Y-31100D01*
X81700Y-31100D02*
X81300Y-31500D01*
X81300Y-31500D02*
X81300Y-31550D01*
X81300Y-31550D02*
X80550Y-31550D01*
X80550Y-31550D02*
X80500Y-31500D01*
X80500Y-31500D02*
X75800Y-31500D01*
X75800Y-31500D02*
X75794Y-31510D01*
X101250Y-29875D02*
X101250Y-29900D01*
X101250Y-29900D02*
X101600Y-30250D01*
X101600Y-30250D02*
X101700Y-30250D01*
X101700Y-30250D02*
X101900Y-30450D01*
X102150Y-34800D02*
X101550Y-35400D01*
X101550Y-35400D02*
X101500Y-35400D01*
X101500Y-35400D02*
X101500Y-35375D01*
X75794Y-31510D02*
X75800Y-31500D01*
X75800Y-31500D02*
X75600Y-31300D01*
X75600Y-31300D02*
X75000Y-31300D01*
X75000Y-31300D02*
X75000Y-31100D01*
X75000Y-31100D02*
X74400Y-30500D01*
X74400Y-30500D02*
X73850Y-30500D01*
X73850Y-30500D02*
X73845Y-30498D01*
X70000Y-24000D02*
X69550Y-24450D01*
X69550Y-24450D02*
X65750Y-24450D01*
X65750Y-24450D02*
X65300Y-24000D01*
X65300Y-24000D02*
X65000Y-24000D01*
X101500Y-35375D02*
X101500Y-35400D01*
X101500Y-35400D02*
X97500Y-35400D01*
X97500Y-35400D02*
X97500Y-35375D01*
X88200Y-43725D02*
X88200Y-43750D01*
X88200Y-43750D02*
X87000Y-43750D01*
X87000Y-43750D02*
X87000Y-43725D01*
X105500Y-25000D02*
X105000Y-24500D01*
X105000Y-24500D02*
X104000Y-24500D01*
X104000Y-24500D02*
X103950Y-24550D01*
X103950Y-24550D02*
X100250Y-24550D01*
X100250Y-24550D02*
X99800Y-25000D01*
X99800Y-25000D02*
X99500Y-25000D01*
X93500Y-25000D02*
X93000Y-24500D01*
X93000Y-24500D02*
X92000Y-24500D01*
X92000Y-24500D02*
X91950Y-24550D01*
X91950Y-24550D02*
X88750Y-24550D01*
X88750Y-24550D02*
X88300Y-25000D01*
X88300Y-25000D02*
X88000Y-25000D01*
X104500Y-25000D02*
X103600Y-25900D01*
X103600Y-25900D02*
X93400Y-25900D01*
X87000Y-25000D02*
X87500Y-25500D01*
X87500Y-25500D02*
X93000Y-25500D01*
X93000Y-25500D02*
X93050Y-25450D01*
X93050Y-25450D02*
X94750Y-25450D01*
X94750Y-25450D02*
X95200Y-25000D01*
X95200Y-25000D02*
X98500Y-25000D01*
X74800Y-46250D02*
X73100Y-47950D01*
X73100Y-47950D02*
X64650Y-47950D01*
X89100Y-46600D02*
X87450Y-48250D01*
X87450Y-48250D02*
X86950Y-48250D01*
X86950Y-48250D02*
X86500Y-48700D01*
X86500Y-48700D02*
X86200Y-48700D01*
X90800Y-39950D02*
X90800Y-41150D01*
X89200Y-43500D02*
X88650Y-44050D01*
X88650Y-44050D02*
X88650Y-44100D01*
X88650Y-44100D02*
X87750Y-44100D01*
X87750Y-44100D02*
X87750Y-44750D01*
X87750Y-44750D02*
X86350Y-46150D01*
X64573Y-46844D02*
X64550Y-46850D01*
X64550Y-46850D02*
X64100Y-47300D01*
X64100Y-47300D02*
X63100Y-47300D01*
X63100Y-47300D02*
X62650Y-46850D01*
X62650Y-46850D02*
X62000Y-46850D01*
X73200Y-44850D02*
X72600Y-45450D01*
X72600Y-45450D02*
X67650Y-45450D01*
X68297Y-46844D02*
X68300Y-46850D01*
X68300Y-46850D02*
X66850Y-45400D01*
X66850Y-45400D02*
X63950Y-45400D01*
X63950Y-45400D02*
X63900Y-45350D01*
X63900Y-45350D02*
X63850Y-45350D01*
X63850Y-45350D02*
X63350Y-44850D01*
X63350Y-44850D02*
X63200Y-44850D01*
X72150Y-39800D02*
X72850Y-40500D01*
X72850Y-40500D02*
X74450Y-40500D01*
X76350Y-42950D02*
X77600Y-44200D01*
X89500Y-50600D02*
X88700Y-49800D01*
X88700Y-45050D02*
X88700Y-45000D01*
X88700Y-45000D02*
X88200Y-44500D01*
X88200Y-44500D02*
X88200Y-44475D01*
X77800Y-54300D02*
X78500Y-53600D01*
X78500Y-53600D02*
X89250Y-53600D01*
X89250Y-53600D02*
X89300Y-53550D01*
X89300Y-53550D02*
X89400Y-53550D01*
X89400Y-53550D02*
X89500Y-53450D01*
X89500Y-53450D02*
X89550Y-53450D01*
X89550Y-53450D02*
X90000Y-53000D01*
X90000Y-53000D02*
X91550Y-53000D01*
X91550Y-53000D02*
X91551Y-53023D01*
X91551Y-53023D02*
X91550Y-53000D01*
X91550Y-53000D02*
X94100Y-53000D01*
X94100Y-53000D02*
X94110Y-53023D01*
X73845Y-29986D02*
X73850Y-30000D01*
X73850Y-30000D02*
X74050Y-30200D01*
X74050Y-30200D02*
X74650Y-30200D01*
X74650Y-30200D02*
X74650Y-30350D01*
X74650Y-30350D02*
X75000Y-30700D01*
X75000Y-30700D02*
X75000Y-30750D01*
X75000Y-30750D02*
X76600Y-30750D01*
X76600Y-30750D02*
X76950Y-30400D01*
X76950Y-30400D02*
X77000Y-30400D01*
X77000Y-30400D02*
X77050Y-30350D01*
X77050Y-30350D02*
X77100Y-30350D01*
X77100Y-30350D02*
X77150Y-30300D01*
X77150Y-30300D02*
X79550Y-30300D01*
X80150Y-29700D02*
X89150Y-29700D01*
X89150Y-29700D02*
X89200Y-29750D01*
X89200Y-29750D02*
X89250Y-29750D01*
X89250Y-29750D02*
X89750Y-30250D01*
X89750Y-30250D02*
X89950Y-30250D01*
X89950Y-30250D02*
X90500Y-30800D01*
X90500Y-30800D02*
X90800Y-30800D01*
X90800Y-30800D02*
X90850Y-30850D01*
X90850Y-30850D02*
X90900Y-30850D01*
X90900Y-30850D02*
X91950Y-31900D01*
X91950Y-31900D02*
X97250Y-31900D01*
X97250Y-31900D02*
X97250Y-31875D01*
X73845Y-29986D02*
X73850Y-30000D01*
X73850Y-30000D02*
X73600Y-29750D01*
X73600Y-29750D02*
X73050Y-29750D01*
X73050Y-29750D02*
X73050Y-29650D01*
X73050Y-29650D02*
X72850Y-29450D01*
X75650Y-46250D02*
X75300Y-45900D01*
X75300Y-45900D02*
X74650Y-45900D01*
X74650Y-45900D02*
X74600Y-45950D01*
X74600Y-45950D02*
X74550Y-45950D01*
X74550Y-45950D02*
X73850Y-46650D01*
X73850Y-46650D02*
X72850Y-46650D01*
X69000Y-30625D02*
X69000Y-30650D01*
X69000Y-30650D02*
X70850Y-32500D01*
X70850Y-32500D02*
X73850Y-32500D01*
X73850Y-32500D02*
X73845Y-32494D01*
X65300Y-29875D02*
X65300Y-29900D01*
X65300Y-29900D02*
X65650Y-30250D01*
X65650Y-30250D02*
X65750Y-30250D01*
X65750Y-30250D02*
X66150Y-30650D01*
X66150Y-30650D02*
X69000Y-30650D01*
X69000Y-30650D02*
X69000Y-30625D01*
X79500Y-45500D02*
X75900Y-41900D01*
X75900Y-41900D02*
X75300Y-41900D01*
X87000Y-44475D02*
X87000Y-44500D01*
X87000Y-44500D02*
X86850Y-44650D01*
X86850Y-44650D02*
X86200Y-44650D01*
X86200Y-44650D02*
X86150Y-44600D01*
X86150Y-44600D02*
X86100Y-44600D01*
X86100Y-44600D02*
X84450Y-42950D01*
X84450Y-42950D02*
X83600Y-42950D01*
X81800Y-41150D02*
X80600Y-39950D01*
X80600Y-39950D02*
X79250Y-39950D01*
X79250Y-39950D02*
X78700Y-39400D01*
X78700Y-39400D02*
X66950Y-39400D01*
X66950Y-39400D02*
X66900Y-39350D01*
X66900Y-39350D02*
X66850Y-39350D01*
X66850Y-39350D02*
X66350Y-38850D01*
X66350Y-38850D02*
X66200Y-38850D01*
X86750Y-45200D02*
X86750Y-44750D01*
X86750Y-44750D02*
X87000Y-44500D01*
X87000Y-44500D02*
X87000Y-44475D01*
X89110Y-53023D02*
X89100Y-53000D01*
X89100Y-53000D02*
X86550Y-53000D01*
X86550Y-53000D02*
X86551Y-53023D01*
X73845Y-33006D02*
X73850Y-33000D01*
X73850Y-33000D02*
X73600Y-32750D01*
X73600Y-32750D02*
X70650Y-32750D01*
X70650Y-32750D02*
X68900Y-31000D01*
X68900Y-31000D02*
X68550Y-31000D01*
X68550Y-31000D02*
X68450Y-30900D01*
X68450Y-30900D02*
X65950Y-30900D01*
X65950Y-30900D02*
X65700Y-30650D01*
X65700Y-30650D02*
X65300Y-30650D01*
X65300Y-30650D02*
X65300Y-30625D01*
X73845Y-33006D02*
X73850Y-33000D01*
X73850Y-33000D02*
X74100Y-32750D01*
X74100Y-32750D02*
X78450Y-32750D01*
X78450Y-32750D02*
X79400Y-33700D01*
X79400Y-33700D02*
X79800Y-33700D01*
X79800Y-33700D02*
X80150Y-34050D01*
X80150Y-34050D02*
X81600Y-34050D01*
X81600Y-34050D02*
X81600Y-34025D01*
X73200Y-35625D02*
X73200Y-35650D01*
X73200Y-35650D02*
X75400Y-33450D01*
X75400Y-33450D02*
X75700Y-33450D01*
X76800Y-32350D02*
X76650Y-32500D01*
X76650Y-32500D02*
X75800Y-32500D01*
X75800Y-32500D02*
X75794Y-32494D01*
X69700Y-36375D02*
X69700Y-36400D01*
X69700Y-36400D02*
X70100Y-36000D01*
X70100Y-36000D02*
X70150Y-36000D01*
X70150Y-36000D02*
X70500Y-35650D01*
X70500Y-35650D02*
X73200Y-35650D01*
X73200Y-35650D02*
X73200Y-35625D01*
X75794Y-31994D02*
X75800Y-32000D01*
X75800Y-32000D02*
X75900Y-31900D01*
X75900Y-31900D02*
X77100Y-31900D01*
X74200Y-33600D02*
X72800Y-35000D01*
X72800Y-35000D02*
X72550Y-35000D01*
X72550Y-35000D02*
X72400Y-35150D01*
X72400Y-35150D02*
X70100Y-35150D01*
X70100Y-35150D02*
X70000Y-35250D01*
X70000Y-35250D02*
X69250Y-35250D01*
X69250Y-35250D02*
X68850Y-35650D01*
X68850Y-35650D02*
X66800Y-35650D01*
X66800Y-35650D02*
X66800Y-35625D01*
X75794Y-33006D02*
X75800Y-33000D01*
X75800Y-33000D02*
X75550Y-33250D01*
X75550Y-33250D02*
X75150Y-33250D01*
X75150Y-33250D02*
X73150Y-35250D01*
X73150Y-35250D02*
X72750Y-35250D01*
X72750Y-35250D02*
X72600Y-35400D01*
X72600Y-35400D02*
X70300Y-35400D01*
X70300Y-35400D02*
X70050Y-35650D01*
X70050Y-35650D02*
X69700Y-35650D01*
X69700Y-35650D02*
X69700Y-35625D01*
X79350Y-34075D02*
X79350Y-34100D01*
X79350Y-34100D02*
X78250Y-33000D01*
X78250Y-33000D02*
X75800Y-33000D01*
X75800Y-33000D02*
X75794Y-33006D01*
X75794Y-31010D02*
X75800Y-31000D01*
X75800Y-31000D02*
X75900Y-31100D01*
X75900Y-31100D02*
X76850Y-31100D01*
X77650Y-31900D02*
X78250Y-32500D01*
X78250Y-32500D02*
X78650Y-32500D01*
X78650Y-32500D02*
X79600Y-33450D01*
X79600Y-33450D02*
X80000Y-33450D01*
X80000Y-33450D02*
X80200Y-33650D01*
X80200Y-33650D02*
X82050Y-33650D01*
X82050Y-33650D02*
X82350Y-33950D01*
X82350Y-33950D02*
X86600Y-33950D01*
X86600Y-33950D02*
X86650Y-34000D01*
X86650Y-34000D02*
X86700Y-34000D01*
X86700Y-34000D02*
X87250Y-34550D01*
X87250Y-34550D02*
X87500Y-34550D01*
X87500Y-34550D02*
X87500Y-34600D01*
X87500Y-34600D02*
X87900Y-35000D01*
X87900Y-35000D02*
X87875Y-35000D01*
X87875Y-35000D02*
X90125Y-35000D01*
X75794Y-29986D02*
X75800Y-30000D01*
X75800Y-30000D02*
X76050Y-29750D01*
X76050Y-29750D02*
X76600Y-29750D01*
X76600Y-29750D02*
X76800Y-29550D01*
X76600Y-27250D02*
X76100Y-26750D01*
X76100Y-26750D02*
X76075Y-26733D01*
X85000Y-27875D02*
X85000Y-27900D01*
X85000Y-27900D02*
X84600Y-27500D01*
X84600Y-27500D02*
X84550Y-27500D01*
X84550Y-27500D02*
X82900Y-25850D01*
X82900Y-25850D02*
X75700Y-25850D01*
X75700Y-25850D02*
X75700Y-25867D01*
X85000Y-27875D02*
X85000Y-27900D01*
X85000Y-27900D02*
X85550Y-28450D01*
X86450Y-34300D02*
X87150Y-35000D01*
X87150Y-35000D02*
X87125Y-35000D01*
X75700Y-25867D02*
X75700Y-25850D01*
X75700Y-25850D02*
X76200Y-26350D01*
X76200Y-26350D02*
X76400Y-26350D01*
X76400Y-26350D02*
X76600Y-26550D01*
X76850Y-30050D02*
X76400Y-30500D01*
X76400Y-30500D02*
X75800Y-30500D01*
X75800Y-30500D02*
X75794Y-30498D01*
X69200Y-38850D02*
X70400Y-37650D01*
X70400Y-37650D02*
X84500Y-37650D01*
X84500Y-37650D02*
X84500Y-37625D01*
X79133Y-48800D02*
X80808Y-47125D01*
X80808Y-47125D02*
X82834Y-47125D01*
X85776Y-38375D02*
X84500Y-38375D01*
X86299Y-38897D02*
X85776Y-38375D01*
X86062Y-43070D02*
X86771Y-43070D01*
X85590Y-43543D02*
X86062Y-43070D01*
X83976Y-45472D02*
X84448Y-45472D01*
X83622Y-45118D02*
X83976Y-45472D01*
X67200Y-38850D02*
X68800Y-37250D01*
X68800Y-37250D02*
X70650Y-37250D01*
X71650Y-38250D02*
X72000Y-37900D01*
X72000Y-37900D02*
X75900Y-37900D01*
X75900Y-37900D02*
X75950Y-37950D01*
X75950Y-37950D02*
X76000Y-37950D01*
X76000Y-37950D02*
X76050Y-38000D01*
X76050Y-38000D02*
X77050Y-38000D01*
X77050Y-38000D02*
X77700Y-38650D01*
X77700Y-38650D02*
X77750Y-38650D01*
X77750Y-38650D02*
X77800Y-38700D01*
X77800Y-38700D02*
X77850Y-38700D01*
X77850Y-38700D02*
X78200Y-39050D01*
X78200Y-39050D02*
X79750Y-39050D01*
X79750Y-39050D02*
X80250Y-39550D01*
X80250Y-39550D02*
X80400Y-39550D01*
X81450Y-42850D02*
X81450Y-43550D01*
X81450Y-43550D02*
X81200Y-43800D01*
X73845Y-31994D02*
X73850Y-32000D01*
X73850Y-32000D02*
X73650Y-32200D01*
X73650Y-32200D02*
X73050Y-32200D01*
X73050Y-32200D02*
X73000Y-32250D01*
X73000Y-32250D02*
X72700Y-32250D01*
X72700Y-32250D02*
X72650Y-32200D01*
X72650Y-32200D02*
X72600Y-32200D01*
X72600Y-32200D02*
X72500Y-32100D01*
X72500Y-32100D02*
X72350Y-32100D01*
X71300Y-33150D02*
X70000Y-34450D01*
X79500Y-40500D02*
X78900Y-41100D01*
X78900Y-41100D02*
X73950Y-41100D01*
X81100Y-41950D02*
X81700Y-42550D01*
X81700Y-42550D02*
X91800Y-42550D01*
X91800Y-42550D02*
X91780Y-42530D01*
X69200Y-44850D02*
X72550Y-41500D01*
X72550Y-41500D02*
X79500Y-41500D01*
X79500Y-41500D02*
X80400Y-42400D01*
X79500Y-41500D02*
X79550Y-41550D01*
X79550Y-41550D02*
X91800Y-41550D01*
X91800Y-41550D02*
X91780Y-41530D01*
X97250Y-32625D02*
X97250Y-32650D01*
X97250Y-32650D02*
X96600Y-33300D01*
X91700Y-46200D02*
X90000Y-47900D01*
X90000Y-47900D02*
X87200Y-50700D01*
X87200Y-50700D02*
X86300Y-50700D01*
X86300Y-50700D02*
X86250Y-50750D01*
X86250Y-50750D02*
X86200Y-50750D01*
X86200Y-50750D02*
X86000Y-50950D01*
X86000Y-50950D02*
X83350Y-50950D01*
X83350Y-50950D02*
X82600Y-51700D01*
X82600Y-51700D02*
X78800Y-51700D01*
X78800Y-51700D02*
X78300Y-52200D01*
X78300Y-52200D02*
X77800Y-52200D01*
X80925Y-31100D02*
X80950Y-31100D01*
X80950Y-31100D02*
X80950Y-31050D01*
X80950Y-31050D02*
X81300Y-30700D01*
X81300Y-30700D02*
X81300Y-30650D01*
X81300Y-30650D02*
X88850Y-30650D01*
X90650Y-31150D02*
X92150Y-32650D01*
X92150Y-32650D02*
X97250Y-32650D01*
X97250Y-32650D02*
X97250Y-32625D01*
X97250Y-32625D02*
X97250Y-32650D01*
X97250Y-32650D02*
X97650Y-32250D01*
X97650Y-32250D02*
X97700Y-32250D01*
X97700Y-32250D02*
X99300Y-30650D01*
X99300Y-30650D02*
X101250Y-30650D01*
X101250Y-30650D02*
X101250Y-30625D01*
X80925Y-31100D02*
X80950Y-31100D01*
X80950Y-31100D02*
X79050Y-29200D01*
X79050Y-29200D02*
X76650Y-29200D01*
X76650Y-29200D02*
X76600Y-29250D01*
X76600Y-29250D02*
X76550Y-29250D01*
X76550Y-29250D02*
X76350Y-29450D01*
X76350Y-29450D02*
X75800Y-29450D01*
X75800Y-29450D02*
X75794Y-29474D01*
X101250Y-30625D02*
X101250Y-31150D01*
X101250Y-31150D02*
X101300Y-31200D01*
X101300Y-34050D02*
X101300Y-34450D01*
X101300Y-34450D02*
X101500Y-34650D01*
X101500Y-34650D02*
X101500Y-34625D01*
X75794Y-29474D02*
X75800Y-29450D01*
X75800Y-29450D02*
X75800Y-29050D01*
X75800Y-27300D02*
X75800Y-27200D01*
X75800Y-27200D02*
X75350Y-26750D01*
X75350Y-26750D02*
X75325Y-26733D01*
M02*
