G04 (created by PCBNEW (2013-07-07 BZR 4022)-stable) date 2020-03-17 3:52:32 PM*
%MOIN*%
G04 Gerber Fmt 3.4, Leading zero omitted, Abs format*
%FSLAX34Y34*%
G01*
G70*
G90*
G04 APERTURE LIST*
%ADD10C,0.00590551*%
%ADD11C,0.0787402*%
%ADD12C,0.16*%
%ADD13R,0.055X0.035*%
%ADD14R,0.06X0.06*%
%ADD15C,0.06*%
%ADD16C,0.08*%
%ADD17R,0.035X0.055*%
%ADD18C,0.035*%
%ADD19C,0.01*%
G04 APERTURE END LIST*
G54D10*
G54D11*
X91551Y-51251D03*
X94110Y-51251D03*
X91551Y-53023D03*
X94110Y-53023D03*
X86551Y-51251D03*
X89110Y-51251D03*
X86551Y-53023D03*
X89110Y-53023D03*
G54D12*
X61000Y-25000D03*
X61000Y-35000D03*
X128500Y-25000D03*
X128500Y-35000D03*
G54D13*
X79133Y-48800D03*
X79133Y-48050D03*
G54D14*
X85200Y-48700D03*
G54D15*
X86200Y-48700D03*
X87200Y-48700D03*
G54D14*
X85200Y-47200D03*
G54D15*
X86200Y-47200D03*
X87200Y-47200D03*
G54D14*
X90000Y-48900D03*
G54D15*
X90000Y-47900D03*
X90000Y-46900D03*
G54D14*
X62000Y-46850D03*
G54D15*
X61000Y-46850D03*
G54D16*
X62200Y-38850D03*
X73200Y-38850D03*
X72200Y-38850D03*
X70200Y-38850D03*
X71200Y-38850D03*
X75200Y-38850D03*
X74200Y-38850D03*
X76200Y-38850D03*
X69200Y-38850D03*
X68200Y-38850D03*
X66200Y-38850D03*
X67200Y-38850D03*
X63200Y-38850D03*
X64200Y-38850D03*
X65200Y-38850D03*
X73200Y-44850D03*
X74200Y-44850D03*
X76200Y-44850D03*
X75200Y-44850D03*
X72200Y-44850D03*
X65200Y-44850D03*
X71200Y-44850D03*
X70200Y-44850D03*
X62200Y-44850D03*
X64200Y-44850D03*
X63200Y-44850D03*
X68200Y-44850D03*
X69200Y-44850D03*
X67200Y-44850D03*
X66200Y-44850D03*
G54D14*
X79500Y-38500D03*
G54D15*
X79500Y-39500D03*
X79500Y-40500D03*
X79500Y-41500D03*
X79500Y-42500D03*
X79500Y-43500D03*
X79500Y-44500D03*
X79500Y-45500D03*
G54D14*
X91780Y-39530D03*
G54D15*
X91780Y-40530D03*
X91780Y-41530D03*
X91780Y-42530D03*
G54D14*
X87000Y-25000D03*
G54D15*
X88000Y-25000D03*
X89000Y-25000D03*
G54D14*
X92500Y-25000D03*
G54D15*
X93500Y-25000D03*
X94500Y-25000D03*
G54D14*
X98500Y-25000D03*
G54D15*
X99500Y-25000D03*
X100500Y-25000D03*
G54D14*
X104500Y-25000D03*
G54D15*
X105500Y-25000D03*
X106500Y-25000D03*
G54D14*
X83600Y-52400D03*
G54D15*
X83600Y-51400D03*
X83600Y-50400D03*
G54D14*
X79300Y-54300D03*
X80800Y-54300D03*
X77800Y-52200D03*
X80700Y-52200D03*
X82300Y-52200D03*
X77800Y-54300D03*
X82300Y-54300D03*
X79300Y-52200D03*
X83700Y-54300D03*
X71000Y-24000D03*
G54D15*
X70000Y-24000D03*
X69000Y-24000D03*
X68000Y-24000D03*
X67000Y-24000D03*
X66000Y-24000D03*
X65000Y-24000D03*
G54D14*
X68297Y-46844D03*
G54D15*
X69297Y-46844D03*
G54D14*
X65935Y-46844D03*
G54D15*
X66935Y-46844D03*
G54D14*
X63573Y-46844D03*
G54D15*
X64573Y-46844D03*
G54D17*
X70555Y-46860D03*
X71305Y-46860D03*
G54D18*
X88200Y-45150D03*
X82550Y-39350D03*
X75700Y-46750D03*
X74550Y-47100D03*
X73400Y-47050D03*
X75050Y-28850D03*
X81200Y-53200D03*
X68450Y-48350D03*
X90800Y-51650D03*
X83400Y-53200D03*
X74450Y-35000D03*
X69700Y-27450D03*
X68600Y-26350D03*
X79900Y-35400D03*
X84000Y-46000D03*
X78650Y-42350D03*
X78400Y-40600D03*
X77600Y-39800D03*
X77600Y-39000D03*
X75750Y-38250D03*
X74750Y-37250D03*
X72550Y-36050D03*
X69650Y-30450D03*
X69700Y-32600D03*
X69100Y-33200D03*
X69100Y-34100D03*
X72450Y-34600D03*
X73850Y-36000D03*
X79250Y-37250D03*
X83200Y-41950D03*
X82200Y-42150D03*
X83600Y-43950D03*
X68400Y-29300D03*
X80950Y-34450D03*
X77550Y-28800D03*
X67900Y-24900D03*
X82150Y-35350D03*
X77900Y-40700D03*
X69150Y-39800D03*
X70650Y-34750D03*
X71250Y-34150D03*
X72850Y-31900D03*
X98150Y-34000D03*
X85650Y-27700D03*
X88750Y-31500D03*
X72850Y-30950D03*
X70650Y-33150D03*
X69850Y-33950D03*
X67750Y-36050D03*
X72850Y-30050D03*
X88800Y-43150D03*
X86350Y-44300D03*
X78500Y-47450D03*
X78900Y-49400D03*
X71900Y-46250D03*
X70650Y-47550D03*
X90300Y-34350D03*
X90150Y-31200D03*
X91450Y-35550D03*
X89000Y-30050D03*
X101900Y-30450D03*
X102150Y-34800D03*
X93400Y-25900D03*
X74800Y-46250D03*
X64650Y-47950D03*
X89100Y-46600D03*
X90800Y-39950D03*
X90800Y-41150D03*
X89200Y-43500D03*
X86350Y-46150D03*
X67650Y-45450D03*
X72150Y-39800D03*
X74450Y-40500D03*
X76350Y-42950D03*
X77600Y-44200D03*
X89500Y-50600D03*
X88700Y-49800D03*
X88700Y-45050D03*
X79550Y-30300D03*
X80150Y-29700D03*
X72850Y-29450D03*
X75650Y-46250D03*
X72850Y-46650D03*
X75300Y-41900D03*
X83600Y-42950D03*
X81800Y-41150D03*
X86750Y-45200D03*
X75700Y-33450D03*
X76800Y-32350D03*
X77100Y-31900D03*
X74200Y-33600D03*
X76850Y-31100D03*
X77650Y-31900D03*
X76800Y-29550D03*
X76600Y-27250D03*
X85550Y-28450D03*
X86450Y-34300D03*
X76600Y-26550D03*
X76850Y-30050D03*
X82834Y-47125D03*
X79133Y-48800D03*
X86299Y-38897D03*
X86771Y-43070D03*
X85590Y-43543D03*
X84448Y-45472D03*
X83622Y-45118D03*
X70650Y-37250D03*
X71650Y-38250D03*
X80400Y-39550D03*
X81450Y-42850D03*
X81200Y-43800D03*
X72350Y-32100D03*
X71300Y-33150D03*
X70000Y-34450D03*
X73950Y-41100D03*
X81100Y-41950D03*
X80400Y-42400D03*
X96600Y-33300D03*
X91700Y-46200D03*
X88850Y-30650D03*
X90650Y-31150D03*
X101300Y-31200D03*
X101300Y-34050D03*
X75800Y-29050D03*
X75800Y-27300D03*
G54D19*
X88200Y-45150D02*
X82550Y-39500D01*
X82550Y-39500D02*
X82550Y-39350D01*
X79500Y-38500D02*
X77000Y-41000D01*
X77000Y-41000D02*
X77000Y-45300D01*
X77000Y-45300D02*
X76950Y-45350D01*
X76950Y-45350D02*
X76950Y-45400D01*
X76950Y-45400D02*
X76000Y-46350D01*
X76000Y-46350D02*
X76000Y-46400D01*
X76000Y-46400D02*
X75950Y-46450D01*
X75950Y-46450D02*
X75950Y-46500D01*
X75950Y-46500D02*
X75700Y-46750D01*
X74550Y-47100D02*
X73450Y-47100D01*
X73450Y-47100D02*
X73400Y-47050D01*
X79500Y-38500D02*
X78000Y-37000D01*
X78000Y-37000D02*
X78000Y-31750D01*
X78000Y-31750D02*
X77950Y-31700D01*
X77950Y-31700D02*
X77950Y-31650D01*
X77950Y-31650D02*
X77100Y-30800D01*
X77100Y-30800D02*
X77050Y-30800D01*
X77050Y-30800D02*
X77000Y-30750D01*
X77000Y-30750D02*
X76950Y-30750D01*
X76950Y-30750D02*
X75050Y-28850D01*
X86551Y-51251D02*
X86500Y-51300D01*
X86500Y-51300D02*
X83700Y-54100D01*
X83700Y-54100D02*
X83700Y-54300D01*
X90000Y-46900D02*
X89100Y-47800D01*
X89100Y-47800D02*
X89100Y-51250D01*
X89100Y-51250D02*
X89110Y-51251D01*
X82300Y-54300D02*
X81200Y-53200D01*
X68450Y-48350D02*
X66950Y-46850D01*
X66950Y-46850D02*
X66935Y-46844D01*
X90000Y-48900D02*
X90800Y-49700D01*
X90800Y-49700D02*
X90800Y-51650D01*
X83400Y-53200D02*
X82300Y-54300D01*
X90000Y-48900D02*
X91300Y-47600D01*
X91300Y-47600D02*
X91300Y-41350D01*
X91300Y-41350D02*
X91350Y-41300D01*
X91350Y-41300D02*
X91350Y-41250D01*
X91350Y-41250D02*
X91800Y-40800D01*
X91800Y-40800D02*
X91800Y-40550D01*
X91800Y-40550D02*
X91780Y-40530D01*
X74450Y-35000D02*
X73200Y-33750D01*
X73200Y-33750D02*
X73200Y-30800D01*
X73200Y-30800D02*
X73150Y-30750D01*
X73150Y-30750D02*
X73150Y-30700D01*
X73150Y-30700D02*
X73100Y-30650D01*
X73100Y-30650D02*
X73050Y-30650D01*
X73050Y-30650D02*
X73000Y-30600D01*
X73000Y-30600D02*
X72850Y-30600D01*
X72850Y-30600D02*
X69700Y-27450D01*
X68600Y-26350D02*
X68250Y-26000D01*
X68250Y-26000D02*
X68250Y-24750D01*
X68250Y-24750D02*
X68200Y-24700D01*
X68200Y-24700D02*
X68200Y-24650D01*
X68200Y-24650D02*
X68000Y-24450D01*
X68000Y-24450D02*
X68000Y-24000D01*
X79900Y-35400D02*
X81900Y-37400D01*
X81900Y-37400D02*
X81900Y-39750D01*
X81900Y-39750D02*
X84000Y-41850D01*
X84000Y-41850D02*
X84000Y-46000D01*
X78650Y-42350D02*
X78400Y-42100D01*
X78400Y-42100D02*
X78400Y-40600D01*
X77600Y-39800D02*
X77600Y-39000D01*
X75750Y-38250D02*
X74750Y-37250D01*
X72550Y-36050D02*
X69000Y-32500D01*
X69000Y-32500D02*
X69000Y-24000D01*
X69650Y-30450D02*
X69700Y-30500D01*
X69700Y-30500D02*
X69700Y-32600D01*
X69100Y-33200D02*
X69100Y-34100D01*
X72450Y-34600D02*
X73850Y-36000D01*
X79250Y-37250D02*
X81650Y-39650D01*
X81650Y-39650D02*
X81650Y-39950D01*
X81650Y-39950D02*
X83200Y-41500D01*
X83200Y-41500D02*
X83200Y-41950D01*
X82200Y-42150D02*
X83600Y-43550D01*
X83600Y-43550D02*
X83600Y-43950D01*
X68400Y-29300D02*
X66000Y-26900D01*
X66000Y-26900D02*
X66000Y-24000D01*
X80950Y-34450D02*
X78250Y-31750D01*
X78250Y-31750D02*
X78250Y-31550D01*
X78250Y-31550D02*
X78200Y-31500D01*
X78200Y-31500D02*
X78200Y-31450D01*
X78200Y-31450D02*
X77550Y-30800D01*
X77550Y-30800D02*
X77550Y-28800D01*
X67900Y-24900D02*
X67000Y-24000D01*
X87200Y-48700D02*
X87650Y-48250D01*
X87650Y-48250D02*
X87650Y-46950D01*
X87650Y-46950D02*
X87100Y-46400D01*
X87100Y-46400D02*
X87100Y-45050D01*
X87100Y-45050D02*
X87050Y-45000D01*
X87050Y-45000D02*
X87050Y-44950D01*
X87050Y-44950D02*
X86700Y-44600D01*
X86700Y-44600D02*
X86700Y-44150D01*
X86700Y-44150D02*
X86650Y-44100D01*
X86650Y-44100D02*
X86650Y-44050D01*
X86650Y-44050D02*
X82150Y-39550D01*
X82150Y-39550D02*
X82150Y-35350D01*
X79300Y-54300D02*
X78300Y-53300D01*
X78300Y-53300D02*
X78300Y-51700D01*
X78300Y-51700D02*
X77950Y-51350D01*
X77950Y-51350D02*
X77950Y-44050D01*
X77950Y-44050D02*
X77900Y-44000D01*
X77900Y-44000D02*
X77900Y-40700D01*
X69150Y-39800D02*
X68200Y-38850D01*
X68200Y-38850D02*
X70650Y-36400D01*
X70650Y-36400D02*
X70650Y-34750D01*
X71250Y-34150D02*
X72850Y-32550D01*
X72850Y-32550D02*
X72850Y-31900D01*
X98150Y-34000D02*
X100950Y-31200D01*
X100950Y-31200D02*
X100950Y-31050D01*
X100950Y-31050D02*
X101000Y-31000D01*
X101000Y-31000D02*
X101000Y-30950D01*
X101000Y-30950D02*
X101550Y-30400D01*
X101550Y-30400D02*
X101550Y-30300D01*
X101550Y-30300D02*
X101600Y-30250D01*
X101600Y-30250D02*
X101600Y-30200D01*
X101600Y-30200D02*
X106500Y-25300D01*
X106500Y-25300D02*
X106500Y-25000D01*
X85650Y-27700D02*
X88500Y-30550D01*
X88500Y-30550D02*
X88500Y-30800D01*
X88500Y-30800D02*
X88550Y-30850D01*
X88550Y-30850D02*
X88550Y-30900D01*
X88550Y-30900D02*
X88750Y-31100D01*
X88750Y-31100D02*
X88750Y-31500D01*
X72850Y-30950D02*
X70650Y-33150D01*
X69850Y-33950D02*
X67750Y-36050D01*
X72850Y-30050D02*
X70000Y-27200D01*
X70000Y-27200D02*
X70000Y-24000D01*
X91780Y-39530D02*
X91750Y-39600D01*
X91750Y-39600D02*
X88800Y-42550D01*
X88800Y-42550D02*
X88800Y-43150D01*
X86350Y-44300D02*
X83600Y-47050D01*
X83600Y-47050D02*
X83600Y-50400D01*
X79133Y-48050D02*
X79150Y-48050D01*
X79150Y-48050D02*
X79100Y-48050D01*
X79100Y-48050D02*
X78500Y-47450D01*
X78900Y-49400D02*
X78700Y-49200D01*
X78700Y-49200D02*
X78700Y-48450D01*
X78700Y-48450D02*
X78750Y-48450D01*
X78750Y-48450D02*
X79150Y-48050D01*
X79150Y-48050D02*
X79133Y-48050D01*
X71900Y-46250D02*
X71300Y-46850D01*
X71300Y-46850D02*
X71305Y-46860D01*
X71305Y-46860D02*
X71300Y-46850D01*
X71300Y-46850D02*
X70900Y-47250D01*
X70900Y-47250D02*
X70900Y-47300D01*
X70900Y-47300D02*
X70650Y-47550D01*
X79133Y-48050D02*
X79150Y-48050D01*
X79150Y-48050D02*
X79050Y-47950D01*
X79050Y-47950D02*
X79050Y-40250D01*
X79050Y-40250D02*
X79500Y-39800D01*
X79500Y-39800D02*
X79500Y-39500D01*
X90300Y-34350D02*
X90150Y-34200D01*
X90150Y-34200D02*
X90150Y-31200D01*
X91450Y-35550D02*
X91800Y-35900D01*
X91800Y-35900D02*
X91800Y-39550D01*
X91800Y-39550D02*
X91780Y-39530D01*
X89000Y-30050D02*
X89000Y-25000D01*
X101900Y-30450D02*
X102150Y-30700D01*
X102150Y-30700D02*
X102150Y-34800D01*
X83600Y-50400D02*
X83600Y-51400D01*
X83600Y-51400D02*
X83600Y-52400D01*
X93400Y-25900D02*
X92500Y-25000D01*
X76200Y-44850D02*
X74800Y-46250D01*
X64650Y-47950D02*
X63550Y-46850D01*
X63550Y-46850D02*
X63573Y-46844D01*
X94500Y-25000D02*
X93750Y-25750D01*
X93750Y-25750D02*
X93750Y-26050D01*
X93750Y-26050D02*
X93700Y-26100D01*
X93700Y-26100D02*
X93700Y-26150D01*
X93700Y-26150D02*
X91000Y-28850D01*
X91000Y-28850D02*
X91000Y-31300D01*
X91000Y-31300D02*
X90950Y-31350D01*
X90950Y-31350D02*
X90950Y-31400D01*
X90950Y-31400D02*
X90650Y-31700D01*
X90650Y-31700D02*
X90650Y-34500D01*
X90650Y-34500D02*
X90600Y-34550D01*
X90600Y-34550D02*
X90600Y-34600D01*
X90600Y-34600D02*
X88450Y-36750D01*
X88450Y-36750D02*
X88450Y-43300D01*
X88450Y-43300D02*
X88500Y-43350D01*
X88500Y-43350D02*
X88500Y-43400D01*
X88500Y-43400D02*
X89100Y-44000D01*
X89100Y-44000D02*
X89100Y-46600D01*
X100500Y-25000D02*
X90900Y-34600D01*
X90900Y-34600D02*
X90900Y-34700D01*
X90900Y-34700D02*
X90850Y-34750D01*
X90850Y-34750D02*
X90850Y-34800D01*
X90850Y-34800D02*
X90800Y-34850D01*
X90800Y-34850D02*
X90800Y-39950D01*
X90800Y-41150D02*
X89200Y-42750D01*
X89200Y-42750D02*
X89200Y-43500D01*
X86350Y-46150D02*
X86200Y-46300D01*
X86200Y-46300D02*
X86200Y-47200D01*
X67650Y-45450D02*
X67350Y-45450D01*
X67350Y-45450D02*
X65950Y-46850D01*
X65950Y-46850D02*
X65935Y-46844D01*
X71200Y-38850D02*
X72150Y-39800D01*
X74450Y-40500D02*
X76350Y-42400D01*
X76350Y-42400D02*
X76350Y-42950D01*
X77600Y-44200D02*
X77300Y-44500D01*
X77300Y-44500D02*
X77300Y-52700D01*
X77300Y-52700D02*
X77800Y-53200D01*
X77800Y-53200D02*
X77800Y-54300D01*
X91551Y-53023D02*
X91550Y-53000D01*
X91550Y-53000D02*
X89650Y-51100D01*
X89650Y-51100D02*
X89650Y-51000D01*
X89650Y-51000D02*
X89600Y-50950D01*
X89600Y-50950D02*
X89600Y-50900D01*
X89600Y-50900D02*
X89500Y-50800D01*
X89500Y-50800D02*
X89500Y-50600D01*
X88700Y-49800D02*
X88700Y-45050D01*
X79550Y-30300D02*
X80150Y-29700D01*
X72850Y-29450D02*
X73850Y-30450D01*
X73850Y-30450D02*
X73850Y-33750D01*
X73850Y-33750D02*
X73900Y-33800D01*
X73900Y-33800D02*
X73900Y-33850D01*
X73900Y-33850D02*
X76750Y-36700D01*
X76750Y-36700D02*
X76750Y-45100D01*
X76750Y-45100D02*
X76700Y-45150D01*
X76700Y-45150D02*
X76700Y-45200D01*
X76700Y-45200D02*
X75650Y-46250D01*
X72850Y-46650D02*
X72150Y-45950D01*
X72150Y-45950D02*
X72100Y-45950D01*
X72100Y-45950D02*
X72050Y-45900D01*
X72050Y-45900D02*
X71450Y-45900D01*
X71450Y-45900D02*
X70550Y-46800D01*
X70550Y-46800D02*
X70550Y-46850D01*
X70550Y-46850D02*
X70555Y-46860D01*
X75300Y-41900D02*
X74200Y-40800D01*
X74200Y-40800D02*
X74150Y-40800D01*
X74150Y-40800D02*
X72200Y-38850D01*
X79500Y-45500D02*
X79600Y-45600D01*
X79600Y-45600D02*
X79600Y-49150D01*
X79600Y-49150D02*
X79300Y-49450D01*
X79300Y-49450D02*
X79300Y-52200D01*
X83600Y-42950D02*
X81800Y-41150D01*
X86551Y-53023D02*
X86550Y-53000D01*
X86550Y-53000D02*
X87100Y-52450D01*
X87100Y-52450D02*
X87100Y-51000D01*
X87100Y-51000D02*
X87050Y-50950D01*
X87050Y-50950D02*
X87050Y-50900D01*
X87050Y-50900D02*
X86750Y-50600D01*
X86750Y-50600D02*
X86750Y-45200D01*
X75700Y-33450D02*
X76800Y-32350D01*
X77100Y-31900D02*
X75900Y-31900D01*
X75900Y-31900D02*
X74200Y-33600D01*
X76850Y-31100D02*
X77650Y-31900D01*
X76800Y-29550D02*
X76600Y-29350D01*
X76600Y-29350D02*
X76600Y-27250D01*
X85550Y-28450D02*
X86450Y-29350D01*
X86450Y-29350D02*
X86450Y-34300D01*
X76600Y-26550D02*
X77150Y-27100D01*
X77150Y-27100D02*
X77150Y-29700D01*
X77150Y-29700D02*
X77100Y-29750D01*
X77100Y-29750D02*
X77100Y-29800D01*
X77100Y-29800D02*
X76850Y-30050D01*
X82992Y-45078D02*
X83582Y-45078D01*
X82834Y-47125D02*
X82992Y-46968D01*
X82992Y-45078D02*
X82992Y-46968D01*
X86535Y-39133D02*
X86299Y-38897D01*
X86535Y-42834D02*
X86535Y-39133D01*
X86771Y-43070D02*
X86535Y-42834D01*
X85590Y-44330D02*
X85590Y-43543D01*
X84448Y-45472D02*
X85590Y-44330D01*
X83582Y-45078D02*
X83622Y-45118D01*
X70650Y-37250D02*
X71650Y-38250D01*
X80400Y-39550D02*
X81450Y-40600D01*
X81450Y-40600D02*
X81450Y-42850D01*
X81200Y-43800D02*
X81200Y-52700D01*
X81200Y-52700D02*
X81150Y-52700D01*
X81150Y-52700D02*
X80800Y-53050D01*
X80800Y-53050D02*
X80800Y-54300D01*
X72350Y-32100D02*
X71300Y-33150D01*
X70000Y-34450D02*
X67200Y-37250D01*
X67200Y-37250D02*
X67200Y-38850D01*
X73950Y-41100D02*
X70200Y-44850D01*
X79500Y-40500D02*
X79650Y-40500D01*
X79650Y-40500D02*
X81100Y-41950D01*
X80700Y-52200D02*
X79950Y-51450D01*
X79950Y-51450D02*
X79950Y-41250D01*
X79950Y-41250D02*
X79500Y-40800D01*
X79500Y-40800D02*
X79500Y-40500D01*
X80400Y-42400D02*
X82300Y-44300D01*
X82300Y-44300D02*
X82300Y-52200D01*
X96600Y-33300D02*
X92250Y-37650D01*
X92250Y-37650D02*
X92250Y-42700D01*
X92250Y-42700D02*
X92200Y-42750D01*
X92200Y-42750D02*
X92200Y-42800D01*
X92200Y-42800D02*
X91700Y-43300D01*
X91700Y-43300D02*
X91700Y-46200D01*
X88850Y-30650D02*
X90150Y-30650D01*
X90150Y-30650D02*
X90650Y-31150D01*
X101300Y-31200D02*
X101300Y-34050D01*
X75800Y-29050D02*
X75800Y-27300D01*
M02*
